<svg width="245" height="200" viewBox="0 0 245 200" fill="none" xmlns="http://www.w3.org/2000/svg">
<g clip-path="url(#clip0_274_33996)">
<path d="M65.7982 131.539C55.238 138.599 46.4728 145.719 40.1606 152.599C38.246 154.663 36.5408 156.727 35.075 158.732L32.0236 152.15C22.7199 151.163 16.2282 148.59 13.3563 144.283L12.1597 141.68C9.04849 131.15 24.096 114.936 50.272 98.123L65.7982 131.539Z" fill="#001074"/>
<path d="M222.855 70.5708C222.796 70.6306 222.736 70.7204 222.676 70.7802C207.688 69.2844 183.068 74.5496 154.678 84.8106L139.66 54.7156C168.29 45.8008 193.448 42.3007 209.693 44.2153L222.855 70.5708Z" fill="#001074"/>
<path d="M149.262 87.443C139.869 91.0328 130.116 95.1312 120.244 99.6784C103.611 107.337 88.3843 115.653 75.3112 124.03L59.2466 91.7807C73.4265 83.165 90.0894 74.6092 108.368 66.8611C117.103 63.1516 125.749 59.8609 134.125 57.0488L149.262 87.443Z" fill="#001074"/>
<path d="M106.214 45.3217L111.389 55.9417L86.8586 49.8987L95.7735 24.9791L101.368 35.629L102.086 35.2701C125.091 23.9022 160.989 13.5215 172.327 10.8291L177.562 20.761C164.579 23.5432 125.061 34.9111 106.214 45.3217Z" fill="#FF5686"/>
<path d="M244.872 28.718C244.872 28.5986 244.843 28.5091 244.843 28.3896C244.843 28.4792 244.872 28.5986 244.872 28.718Z" fill="#F1F5FB"/>
<path d="M242.12 24.1418C242.09 23.7828 242.061 23.4537 242.001 23.0947C242.061 23.4238 242.09 23.7828 242.12 24.1418Z" fill="#F1F5FB"/>
<path d="M242.21 25.4283C242.21 25.0394 242.18 24.6804 242.15 24.2915C242.18 24.6804 242.21 25.0693 242.21 25.4283Z" fill="#F1F5FB"/>
<path d="M239.189 14.2995C239.009 14.0003 238.86 13.6712 238.68 13.3721C238.83 13.7011 239.009 14.0003 239.189 14.2995Z" fill="#F1F5FB"/>
<path d="M241.522 20.3727C241.432 20.0137 241.342 19.6548 241.253 19.3257C241.313 19.6548 241.432 20.0137 241.522 20.3727Z" fill="#F1F5FB"/>
<path d="M239.248 14.4492C239.428 14.7783 239.607 15.1074 239.757 15.4663C239.607 15.1373 239.428 14.7783 239.248 14.4492Z" fill="#F1F5FB"/>
<path d="M239.787 37.3049C239.966 36.916 240.116 36.5271 240.295 36.1382C240.146 36.557 239.966 36.9459 239.787 37.3049Z" fill="#F1F5FB"/>
<path d="M241.881 30.7234C241.941 30.3645 242.001 30.0055 242.03 29.6465C241.971 29.9756 241.941 30.3345 241.881 30.7234Z" fill="#F1F5FB"/>
<path d="M240.774 16.6031C242.389 19.0861 243.556 21.7785 244.244 24.6204C243.556 21.7785 242.389 19.0561 240.774 16.6031Z" fill="#F1F5FB"/>
<path d="M241.851 30.8428C241.791 31.2317 241.701 31.6206 241.612 32.0095C241.701 31.5907 241.791 31.2018 241.851 30.8428Z" fill="#F1F5FB"/>
<path d="M241.223 33.5352C241.133 33.8941 241.013 34.2531 240.894 34.6121C241.013 34.2531 241.103 33.8941 241.223 33.5352Z" fill="#F1F5FB"/>
<path d="M242.18 28.27C242.15 28.6589 242.12 29.0179 242.06 29.4068C242.09 29.0179 242.15 28.629 242.18 28.27Z" fill="#F1F5FB"/>
<path d="M240.804 18.0391C240.924 18.398 241.043 18.757 241.163 19.116C241.043 18.7271 240.954 18.398 240.804 18.0391Z" fill="#F1F5FB"/>
<path d="M241.821 21.8086C241.881 22.1676 241.94 22.5565 242 22.9155C241.94 22.5266 241.881 22.1676 241.821 21.8086Z" fill="#F1F5FB"/>
<path d="M238.56 13.2226C238.471 13.0432 238.351 12.8936 238.261 12.7141C237.543 11.5773 236.735 10.5003 235.868 9.48321C235.838 9.45329 235.808 9.42338 235.778 9.39346C235.569 9.15414 235.359 8.94473 235.15 8.70541C235.09 8.64558 235.06 8.61566 235 8.55583C234.402 7.92761 233.744 7.29938 233.056 6.73098C232.966 6.64124 232.846 6.55149 232.757 6.46175C232.577 6.31217 232.398 6.16259 232.218 6.04293C232.069 5.92327 231.919 5.80361 231.769 5.71386C231.59 5.5942 231.44 5.47454 231.261 5.35487C231.081 5.2053 230.872 5.08563 230.693 4.96597C230.543 4.87623 230.423 4.75656 230.274 4.66682C229.945 4.45741 229.616 4.248 229.257 4.03859C229.137 3.97876 229.017 3.88901 228.898 3.82918C228.658 3.67961 228.389 3.55995 228.15 3.41037C228 3.35054 227.88 3.26079 227.731 3.20096C227.462 3.08129 227.192 2.93172 226.923 2.81206C226.804 2.75223 226.684 2.69239 226.564 2.63256C226.175 2.45307 225.786 2.27358 225.368 2.124C222.226 0.867551 218.996 0.179495 215.765 0.0299173C215.226 1.82545e-06 214.688 0 214.149 0C213.312 0 212.474 0.0598337 211.636 0.119665C210.739 0.209411 209.812 0.329069 208.914 0.508562C207.568 0.747886 206.252 1.10687 204.965 1.52569C203.679 1.94451 202.422 2.48299 201.196 3.0813C197.546 4.87622 194.285 7.41904 191.653 10.5901C190.217 12.3551 188.96 14.2996 187.973 16.4535C187.794 16.8424 187.644 17.2313 187.465 17.5903C187.435 17.6801 187.405 17.7399 187.375 17.8296C187.225 18.2185 187.076 18.5775 186.956 18.9664C186.926 19.0263 186.896 19.116 186.896 19.1758C186.777 19.5348 186.657 19.8639 186.567 20.2229C186.537 20.2827 186.537 20.3425 186.507 20.4024C186.388 20.7913 186.298 21.1503 186.208 21.5392C186.178 21.6289 186.178 21.7186 186.148 21.8084C186.059 22.1973 185.999 22.5563 185.909 22.9452C185.909 23.005 185.909 23.0349 185.879 23.0948C185.819 23.4238 185.759 23.7828 185.73 24.1119C185.73 24.2016 185.7 24.2914 185.7 24.411C185.67 24.77 185.61 25.129 185.61 25.488C185.61 25.5777 185.61 25.6974 185.58 25.7871C185.55 26.0863 185.55 26.4154 185.55 26.7145C185.55 26.8043 185.55 26.894 185.55 26.9538C185.55 27.3128 185.55 27.6419 185.55 28.0009C185.55 28.1206 185.55 28.2402 185.55 28.3898C185.55 28.7189 185.58 29.0779 185.61 29.4069C185.61 29.5266 185.64 29.6462 185.64 29.736C185.67 30.0052 185.7 30.2446 185.73 30.5138C185.759 30.6634 185.759 30.783 185.789 30.9027C185.849 31.2318 185.879 31.5309 185.939 31.86C185.969 32.0096 185.999 32.1592 186.029 32.3087C186.089 32.5481 186.118 32.7575 186.178 32.9968C186.238 33.2062 186.268 33.3857 186.328 33.5951C186.388 33.8344 186.448 34.0438 186.507 34.2831C186.567 34.4327 186.597 34.6122 186.657 34.7618C186.747 35.031 186.836 35.3003 186.926 35.5695C186.986 35.749 187.046 35.9285 187.106 36.108C187.165 36.2875 187.225 36.467 187.315 36.6465C187.405 36.8559 187.465 37.0354 187.554 37.2448C187.644 37.4841 187.764 37.7234 187.854 37.9328C187.943 38.1123 188.003 38.2918 188.093 38.4414C188.183 38.591 188.242 38.7705 188.332 38.92C188.452 39.1893 188.601 39.4286 188.751 39.6978C188.841 39.8474 188.93 39.997 188.99 40.1466C189.08 40.3261 189.2 40.4757 189.289 40.6551C189.439 40.9244 189.619 41.1936 189.798 41.433C189.858 41.5227 189.948 41.6424 190.007 41.7321C190.157 41.9714 190.337 42.2107 190.486 42.4202C190.546 42.5099 190.636 42.6296 190.696 42.7193C190.905 42.9886 191.114 43.2578 191.324 43.527C191.354 43.557 191.384 43.6168 191.443 43.6766C191.683 43.9758 191.952 44.2749 192.221 44.5741C192.311 44.6638 192.371 44.7237 192.461 44.8134C192.67 45.0228 192.849 45.2322 193.059 45.4416C193.149 45.5314 193.238 45.6211 193.328 45.7109C193.537 45.9203 193.777 46.1596 194.016 46.369C194.076 46.4288 194.136 46.4887 194.226 46.5485C194.525 46.8177 194.824 47.087 195.153 47.3263C195.243 47.3861 195.303 47.446 195.392 47.5058C195.632 47.7152 195.901 47.8947 196.14 48.0742C196.26 48.1639 196.35 48.2238 196.469 48.3135C196.709 48.493 196.978 48.6725 197.217 48.852C197.307 48.9118 197.397 48.9717 197.486 49.0315C197.845 49.2708 198.174 49.4802 198.533 49.6896C198.593 49.7195 198.653 49.7495 198.713 49.7794C199.012 49.9589 199.341 50.1383 199.64 50.2879C199.76 50.3478 199.88 50.4076 199.999 50.4674C200.268 50.617 200.538 50.7367 200.837 50.8862C200.957 50.9461 201.076 51.0059 201.196 51.0657C201.585 51.2452 201.974 51.4247 202.392 51.5743C216.692 57.348 233.415 50.9162 239.757 37.2448C239.936 36.8559 240.086 36.467 240.265 36.0781C240.295 35.9883 240.325 35.9285 240.355 35.8388C240.505 35.4499 240.654 35.0909 240.774 34.702C240.804 34.6421 240.804 34.5524 240.834 34.4926C240.954 34.1336 241.073 33.7746 241.163 33.4156C241.163 33.3558 241.193 33.3258 241.193 33.266C241.313 32.8771 241.402 32.4882 241.492 32.1292C241.522 32.0395 241.522 31.9497 241.552 31.8899C241.642 31.501 241.731 31.1121 241.791 30.7232C241.791 30.6933 241.791 30.6335 241.821 30.6035C241.881 30.2446 241.941 29.8856 241.971 29.5266C241.971 29.4668 242.001 29.377 242.001 29.3172C242.06 28.9283 242.09 28.5693 242.12 28.1804C242.12 28.0906 242.12 28.0308 242.15 27.9411C242.18 27.5522 242.18 27.1932 242.21 26.8043C242.21 26.7744 242.21 26.7744 242.21 26.7444C242.21 26.3555 242.21 25.9666 242.21 25.5777C242.21 25.488 242.21 25.4282 242.21 25.3384C242.21 24.9495 242.18 24.5905 242.15 24.2016C242.15 24.1418 242.15 24.082 242.12 24.0221C242.09 23.6631 242.06 23.3341 242.001 22.9751C242.001 22.9153 242.001 22.8554 241.971 22.7956C241.911 22.4366 241.851 22.0477 241.791 21.6887C241.791 21.599 241.761 21.5391 241.731 21.4494C241.672 21.0605 241.582 20.7015 241.492 20.3425C241.492 20.3126 241.492 20.2827 241.462 20.2827C241.372 19.9237 241.283 19.5647 241.193 19.2357C241.163 19.1758 241.163 19.0861 241.133 19.0262C241.013 18.6673 240.924 18.3083 240.774 17.9493C240.744 17.8895 240.714 17.7997 240.714 17.7399C240.595 17.4108 240.475 17.0518 240.325 16.7228C240.325 16.6928 240.295 16.6629 240.295 16.633C240.146 16.274 239.996 15.945 239.847 15.586C239.817 15.5261 239.787 15.4364 239.757 15.3766C239.607 15.0475 239.428 14.6885 239.248 14.3594C239.218 14.2996 239.189 14.2697 239.159 14.2099C238.979 13.9107 238.83 13.5816 238.65 13.2825C238.62 13.3423 238.59 13.2825 238.56 13.2226Z" fill="#0030B9"/>
<path d="M190.067 41.7619C190.217 42.0012 190.396 42.2406 190.546 42.45C190.606 42.5397 190.696 42.6594 190.755 42.7491C190.965 43.0184 191.174 43.2876 191.384 43.5568C191.414 43.5867 191.443 43.6466 191.503 43.7064C191.743 44.0056 192.012 44.3047 192.281 44.6039C192.371 44.6936 192.431 44.7535 192.52 44.8432C192.73 45.0526 192.909 45.262 193.119 45.4714C193.208 45.5612 193.298 45.6509 193.388 45.7407C193.597 45.9501 193.837 46.1894 194.076 46.3988C194.136 46.4586 194.196 46.5185 194.285 46.5783C194.585 46.8475 194.884 47.1168 195.213 47.3561C195.303 47.4159 195.362 47.4758 195.452 47.5356C195.691 47.745 195.961 47.9245 196.2 48.104C196.32 48.1937 196.409 48.2536 196.529 48.3433C196.768 48.5228 197.038 48.7023 197.277 48.8818C197.367 48.9416 197.456 49.0015 197.546 49.0613C197.905 49.3006 198.234 49.51 198.593 49.7194C198.653 49.7493 198.713 49.7793 198.773 49.8092C199.072 49.9887 199.401 50.1682 199.7 50.3177C199.82 50.3776 199.939 50.4374 200.059 50.4972C200.328 50.6468 200.598 50.7665 200.897 50.916C201.016 50.9759 201.136 51.0357 201.256 51.0955C201.645 51.275 202.034 51.4545 202.452 51.6041C216.752 57.3778 233.475 50.946 239.817 37.2746C239.996 36.8857 240.146 36.4968 240.325 36.1079C240.355 36.0181 240.385 35.9583 240.415 35.8686C240.565 35.4797 240.714 35.1207 240.834 34.7318C240.864 34.6719 240.864 34.5822 240.894 34.5224C241.013 34.1634 241.133 33.8044 241.223 33.4454C241.223 33.3856 241.253 33.3557 241.253 33.2958C241.372 32.9069 241.462 32.518 241.552 32.159C241.582 32.0693 241.582 31.9795 241.612 31.9197C241.701 31.5308 241.791 31.1419 241.851 30.753C241.851 30.7231 241.851 30.6633 241.881 30.6333C241.941 30.2744 242.001 29.9154 242.031 29.5564C242.031 29.4966 242.06 29.4068 242.06 29.347C242.12 28.9581 242.15 28.5991 242.18 28.2102C242.18 28.1204 242.18 28.0606 242.21 27.9709C242.24 27.582 242.24 27.223 242.27 26.8341C242.27 26.8042 242.27 26.8042 242.27 26.7742C242.27 26.3853 242.27 25.9964 242.27 25.6075C242.27 25.5178 242.27 25.458 242.27 25.3682C242.27 24.9793 242.24 24.6203 242.21 24.2314C242.21 24.1716 242.21 24.1118 242.18 24.0519C242.15 23.693 242.12 23.3639 242.06 23.0049C242.06 22.9451 242.06 22.8852 242.031 22.8254C241.971 22.4664 241.911 22.0775 241.851 21.7185C241.851 21.6288 241.821 21.569 241.791 21.4792C241.731 21.0903 241.642 20.7313 241.552 20.3723C241.552 20.3424 241.552 20.3125 241.522 20.3125C241.432 19.9535 241.342 19.5945 241.253 19.2655C241.223 19.2056 241.223 19.1159 241.193 19.056C241.073 18.6971 240.983 18.3381 240.834 17.9791C240.804 17.9193 240.774 17.8295 240.774 17.7697C240.654 17.4406 240.535 17.0816 240.385 16.7526C240.385 16.7226 240.355 16.6927 240.355 16.6628C240.206 16.3038 240.056 15.9748 239.907 15.6158C239.877 15.5559 239.847 15.4662 239.817 15.4064C239.667 15.0773 239.488 14.7183 239.308 14.3892C239.278 14.3294 239.248 14.2995 239.218 14.2397C239.039 13.9405 238.889 13.6114 238.71 13.3123C238.68 13.2524 238.65 13.1926 238.62 13.1328C238.471 12.8635 238.291 12.6242 238.141 12.355L240.834 16.5132C242.449 18.9962 243.616 21.6886 244.304 24.5306C244.603 25.7571 244.813 27.0136 244.902 28.27C244.902 28.3897 244.932 28.4794 244.932 28.5991C245.231 32.8172 244.514 37.1848 242.569 41.373C242.09 42.42 241.522 43.4073 240.924 44.3646C240.445 45.1424 239.907 45.8902 239.368 46.6082C238.381 47.8946 237.274 49.0912 236.077 50.1981C235.748 50.4972 235.389 50.7964 235.06 51.0955C232.458 53.2495 229.466 54.9247 226.295 56.0615C225.936 56.1812 225.577 56.3008 225.218 56.4205C221.03 57.7368 216.543 58.1556 212.085 57.5274C211.158 57.4077 210.23 57.2282 209.333 56.9889C207.957 56.6598 206.611 56.2111 205.264 55.6726C204.935 55.523 204.576 55.4034 204.247 55.2538C203.26 54.8051 202.303 54.2965 201.375 53.758C198.025 51.7537 195.243 49.151 193.119 46.1595C192.939 45.8902 192.73 45.621 192.55 45.3219L189.858 41.1636C189.888 41.2234 189.918 41.2533 189.978 41.3132C189.918 41.5824 189.978 41.6722 190.067 41.7619Z" fill="#080E3F"/>
<path d="M216.722 12.0861C216.722 11.9664 216.632 11.8767 216.512 11.8468L213.162 11.3681C213.042 11.3382 212.922 11.4279 212.922 11.5476L212.623 15.0477C207.687 14.9879 204.426 17.3512 204.068 21.2402C203.619 26.266 208.226 28.1507 211.367 29.3473L210.918 34.4629C208.674 33.8945 206.461 32.7278 204.935 31.3217L204.756 31.2619L204.606 31.3516L202.392 35.121C202.332 35.2107 202.362 35.3304 202.422 35.3902C204.157 37.0655 207.239 38.5314 210.469 39.2194L210.17 42.6298C210.17 42.7494 210.26 42.8691 210.38 42.8691L213.73 43.3478C213.76 43.3478 213.82 43.3478 213.85 43.3178C213.91 43.2879 213.97 43.2281 213.97 43.1383L214.269 39.6083C219.175 39.6382 222.406 37.3048 222.735 33.4457C223.154 28.8088 219.414 26.9242 215.495 25.4284L215.944 20.2231C216.153 20.2829 216.333 20.3427 216.542 20.4026C216.752 20.4624 216.931 20.5522 217.141 20.612C217.529 20.7616 217.918 20.9411 218.337 21.1505C219.115 21.5394 219.893 22.018 220.641 22.5565L220.82 22.5864L220.97 22.4967L223.004 18.6675C223.064 18.5777 223.034 18.4581 222.944 18.3982C221.299 17.082 218.995 16.005 216.393 15.4366L216.722 12.0861ZM214.717 34.8518L215.076 30.8431C216.423 31.561 216.961 32.2491 216.901 33.0867C216.811 34.0739 216.064 34.6723 214.717 34.8518ZM211.816 24.0224C210.41 23.3343 209.841 22.6462 209.931 21.7787C210.021 20.7316 210.798 20.0735 212.175 19.894L211.816 24.0224Z" fill="white"/>
<path d="M42.5239 80.3529C40.2803 80.1734 39.1435 79.5452 38.7546 78.3187C38.3058 76.8229 39.0238 75.5365 40.7888 74.5493L42.5239 80.3529Z" fill="#39AFFF"/>
<path d="M52.2763 93.396L50.6011 87.8018C52.8148 88.0411 53.9217 88.6693 54.2807 89.8659C54.6696 91.242 53.9815 92.4686 52.2763 93.396Z" fill="#39AFFF"/>
<path d="M86.9485 83.4643C86.9485 83.4045 86.9485 83.3147 86.9485 83.2549C86.9185 82.6865 86.8886 82.148 86.8587 81.5796C86.8587 81.4301 86.8288 81.3104 86.8288 81.1608C86.769 80.5924 86.7091 80.024 86.6493 79.4556C86.6493 79.3659 86.6194 79.2761 86.6194 79.1864C86.5595 78.6778 86.4698 78.1394 86.3501 77.6308C86.3202 77.5111 86.3202 77.4214 86.2903 77.3316C86.1707 76.7632 86.051 76.1948 85.9313 75.6264C85.9014 75.5068 85.8715 75.3871 85.8416 75.2675C85.692 74.6991 85.5424 74.1008 85.3629 73.5024C84.3757 70.2117 82.9697 67.1305 81.2645 64.2885C78.1533 59.1729 73.9651 54.8352 69.0889 51.5146C67.4735 50.4077 65.7384 49.3906 63.9734 48.523C62.2083 47.6555 60.3536 46.8777 58.4689 46.2494C57.2125 45.8306 55.9261 45.4417 54.6397 45.1426C53.4431 44.8733 52.2465 44.634 51.0499 44.4545C50.2721 44.3348 49.4943 44.2451 48.7165 44.1554C44.0496 43.7066 39.2332 44.0058 34.4468 45.1725C33.8185 45.3221 33.2202 45.5015 32.6219 45.681C32.4424 45.7409 32.233 45.8007 32.0535 45.8605C31.6347 45.9802 31.2458 46.1298 30.827 46.2494C30.6176 46.3093 30.4082 46.399 30.1988 46.4888C29.8099 46.6383 29.421 46.7879 29.0321 46.9375C28.8526 47.0272 28.6432 47.0871 28.4637 47.1768C27.9252 47.3862 27.4166 47.6256 26.8781 47.8649C26.6388 47.9845 26.4294 48.0743 26.1901 48.1939C25.8909 48.3435 25.5918 48.4931 25.2926 48.6427C25.0234 48.7923 24.7541 48.9418 24.4849 49.0914C24.2456 49.2111 24.0063 49.3607 23.7969 49.4803C23.4977 49.6598 23.2285 49.8094 22.9293 49.9889C22.7498 50.0786 22.6002 50.1983 22.4207 50.3179C21.3139 51.006 20.2668 51.7539 19.2497 52.5616C19.16 52.6214 19.1001 52.6813 19.0104 52.7411C18.6514 53.0103 18.3223 53.3095 17.9932 53.5787C17.9633 53.6086 17.9035 53.6386 17.8736 53.6984C16.3778 54.9848 15.0017 56.3609 13.7453 57.8267C13.5658 58.0361 13.3863 58.2456 13.1769 58.4849C13.117 58.5447 13.0572 58.6344 12.9974 58.6943C12.6683 59.0832 12.3691 59.502 12.07 59.9208C12.0102 59.9806 11.9802 60.0405 11.9204 60.1003C11.5913 60.549 11.2922 60.9978 10.993 61.4465C10.9332 61.5363 10.8734 61.6559 10.8135 61.7457C10.5144 62.2243 10.2152 62.673 9.94598 63.1517C9.91607 63.1816 9.88615 63.2414 9.88615 63.2714C9.61692 63.7201 9.37759 64.1688 9.13827 64.6475C9.07844 64.7372 9.04852 64.827 8.98869 64.9167C8.74937 65.3954 8.51004 65.9039 8.27072 66.3826C8.21088 66.4723 8.18097 66.592 8.12114 66.6817C7.91173 67.1604 7.70232 67.639 7.49292 68.1476C7.49292 68.1775 7.463 68.2074 7.463 68.2672C7.25359 68.7758 7.0741 69.3143 6.89461 69.8228C6.86469 69.9425 6.80486 70.0323 6.77494 70.1519C6.59545 70.6605 6.44587 71.199 6.2963 71.7075C6.26638 71.7973 6.23646 71.8571 6.23646 71.9468C6.08688 72.4255 5.96723 72.9341 5.84756 73.4426C5.81765 73.5324 5.78773 73.6221 5.78773 73.7119C5.66807 74.2503 5.54841 74.7888 5.45866 75.3273C5.42875 75.447 5.39883 75.5666 5.39883 75.6863C5.30908 76.2547 5.21934 76.7931 5.12959 77.3615C5.12959 77.3915 5.12959 77.4214 5.12959 77.4513C5.06976 77.9898 5.00993 78.5283 4.98001 79.0966C4.98001 79.2163 4.9501 79.336 4.9501 79.4257C4.92018 79.9941 4.89027 80.5326 4.86035 81.101C4.86035 81.2206 4.86035 81.3104 4.86035 81.4301C4.86035 81.9685 4.86035 82.507 4.86035 83.0455C4.86035 83.1053 4.86035 83.1651 4.86035 83.225C4.89027 83.7934 4.92018 84.3618 4.9501 84.9302C4.9501 85.0498 4.98001 85.1695 4.98001 85.2891C5.03984 85.8575 5.09968 86.4259 5.15951 86.9943C5.15951 87.0542 5.18942 87.1439 5.18942 87.2037C5.24925 87.7422 5.339 88.2807 5.45866 88.8192C5.48858 88.9089 5.48858 89.0286 5.51849 89.1183C5.63815 89.6867 5.75781 90.2551 5.87748 90.8235C5.90739 90.9432 5.93731 91.0628 5.96722 91.1825C6.1168 91.7808 6.26638 92.3492 6.44587 92.9475C12.758 113.948 35.5536 126.632 57.362 121.277C57.9903 121.128 58.5886 120.948 59.1869 120.769C59.3664 120.709 59.5459 120.649 59.7254 120.619C60.1442 120.47 60.5929 120.35 61.0117 120.201C61.1912 120.141 61.3707 120.081 61.5801 119.991C62.0588 119.812 62.5374 119.632 63.0161 119.423C63.1058 119.393 63.1956 119.363 63.2853 119.303C63.8537 119.064 64.3922 118.824 64.9606 118.585C65.1101 118.525 65.2597 118.436 65.4093 118.376C65.7982 118.196 66.217 117.987 66.6059 117.777C66.7854 117.688 66.9649 117.598 67.1145 117.508C67.5034 117.299 67.9222 117.059 68.3111 116.82C68.4308 116.76 68.5504 116.67 68.6701 116.611C69.1787 116.312 69.6573 115.982 70.1659 115.653C70.2855 115.594 70.3753 115.504 70.4949 115.414C70.8838 115.145 71.2428 114.905 71.6018 114.636C71.7514 114.517 71.901 114.397 72.0505 114.307C72.3796 114.038 72.7386 113.769 73.0677 113.529C73.1873 113.41 73.3369 113.32 73.4566 113.23C73.9053 112.871 74.3241 112.482 74.7728 112.093C74.8327 112.034 74.8925 111.974 74.9523 111.914C75.3113 111.585 75.6703 111.226 76.0293 110.897C76.149 110.777 76.2985 110.628 76.4182 110.508C76.7174 110.209 76.9866 109.91 77.2558 109.61C77.3755 109.491 77.4952 109.341 77.6148 109.222L77.7046 109.132C77.9738 108.833 78.243 108.504 78.4824 108.204C78.6619 107.995 78.8414 107.756 79.0208 107.546C79.1704 107.367 79.32 107.157 79.4696 106.948C79.7388 106.619 79.9781 106.26 80.2175 105.931C80.367 105.721 80.5166 105.512 80.6662 105.273C80.8158 105.033 80.9654 104.824 81.1149 104.585C81.3243 104.285 81.5038 103.956 81.7132 103.627C81.8628 103.358 82.0423 103.089 82.1919 102.82C82.3415 102.58 82.4611 102.341 82.5808 102.102C82.7004 101.862 82.85 101.623 82.9697 101.384C83.1492 101.025 83.3287 100.636 83.5082 100.277C83.6278 100.067 83.7176 99.8281 83.8073 99.5887C83.9569 99.2896 84.0766 98.9605 84.1962 98.6315C84.3159 98.3622 84.4355 98.0631 84.5253 97.7938C84.645 97.4647 84.7646 97.1357 84.8843 96.8365C84.9441 96.6271 85.0339 96.4177 85.0937 96.2083C85.2433 95.7596 85.3928 95.3108 85.5125 94.8621C85.5723 94.6826 85.6022 94.4732 85.6621 94.2937C85.7518 93.9347 85.8416 93.5458 85.9313 93.1868C85.9612 93.0373 86.0211 92.8578 86.051 92.7082C86.1707 92.2295 86.2604 91.7509 86.3501 91.2423C86.3801 91.0628 86.41 90.8833 86.4399 90.7039C86.5296 90.1953 86.5895 89.6867 86.6792 89.1782C86.7091 89.0585 86.7091 88.9388 86.739 88.8192C86.7989 88.3704 86.8288 87.9217 86.8587 87.473C86.8587 87.3234 86.8886 87.1738 86.8886 87.0243C86.9185 86.4858 86.9485 85.9772 86.9485 85.4387C86.9485 85.2891 86.9485 85.1695 86.9485 85.0199C86.9784 84.4814 86.9784 83.9729 86.9485 83.4643ZM54.3107 100.157L55.8064 105.093C55.8363 105.213 55.8064 105.303 55.7466 105.392C55.7167 105.422 55.6568 105.452 55.597 105.482L50.8105 106.679C50.661 106.709 50.4516 106.619 50.4216 106.469L48.9857 101.713C44.2291 102.55 39.2931 102.221 36.0323 100.875C35.8827 100.815 35.793 100.666 35.8229 100.546L36.7503 94.2638L36.8998 94.0544H37.1691C39.9811 95.1313 43.6009 95.5202 46.9514 95.0715L44.7975 87.8918C39.8914 87.9516 32.6818 87.8918 30.5578 80.8617C28.9124 75.3871 32.0535 70.4511 38.7845 67.8783L37.3187 63.0021C37.2588 62.8525 37.3785 62.673 37.5281 62.6431L42.3445 61.4465C42.524 61.4166 42.7034 61.5063 42.7334 61.6559L44.1693 66.4424C47.9985 65.8441 51.708 66.0236 54.6397 66.921C54.7893 66.9809 54.879 67.1005 54.879 67.2501L54.191 73.5324L54.0414 73.7418L53.8021 73.7717C52.4858 73.4426 51.1994 73.2033 49.943 73.1135C49.3148 73.0537 48.6865 73.0537 48.0583 73.0537C47.7592 73.0537 47.4301 73.0537 47.1309 73.0836C46.8318 73.1135 46.5326 73.1136 46.2036 73.1435L48.4173 80.4428C54.4901 80.3531 60.563 80.8617 62.5374 87.3832C64.0631 92.6484 60.9519 97.5545 54.3107 100.157Z" fill="#0030B9"/>
<path d="M62.4476 87.2635C60.4732 80.7419 54.4303 80.2334 48.3275 80.3231L46.1138 73.0237C46.413 72.9938 46.7121 72.9639 47.0412 72.9639C47.3403 72.934 47.6694 72.934 47.9686 72.934C48.5968 72.934 49.225 72.9639 49.8532 72.9938C51.1097 73.1135 52.426 73.3229 53.7123 73.6519L53.9517 73.622L54.1012 73.4126L54.7893 67.1304C54.8192 66.9808 54.6995 66.8312 54.55 66.8013C51.6182 65.9038 47.9087 65.7243 44.0795 66.3227L42.6436 61.5362C42.5838 61.3866 42.4342 61.2669 42.2547 61.3268L37.4383 62.5234C37.2887 62.5533 37.1691 62.7328 37.2289 62.8824L38.6948 67.7586C31.9937 70.3313 28.8226 75.2674 30.468 80.7419C32.592 87.802 39.8016 87.8319 44.7078 87.7721L46.8617 94.9518C43.5112 95.4005 39.8914 95.0116 37.0793 93.9346H36.8101L36.6605 94.1441L35.7331 100.426C35.7032 100.576 35.793 100.696 35.9425 100.755C39.2033 102.102 44.1394 102.431 48.8959 101.593L50.3319 106.35C50.3917 106.499 50.5712 106.619 50.7208 106.559L55.5073 105.362C55.5671 105.362 55.6269 105.303 55.6568 105.273C55.7167 105.213 55.7765 105.093 55.7167 104.973L54.2209 100.037C60.9519 97.5544 64.0631 92.6483 62.4476 87.2635Z" fill="white"/>
<path d="M38.7546 78.3187C38.3058 76.8229 39.0238 75.5365 40.7888 74.5493L42.5239 80.3529C40.2803 80.1734 39.1435 79.5452 38.7546 78.3187Z" fill="#0030B9"/>
<path d="M52.2763 93.396L50.6011 87.8018C52.8148 88.0411 53.9217 88.6693 54.2807 89.8659C54.6696 91.242 53.9815 92.4686 52.2763 93.396Z" fill="#0030B9"/>
<path d="M77.1961 109.551C76.9269 109.85 76.6277 110.149 76.3585 110.448C76.2388 110.568 76.1192 110.717 75.9696 110.837C75.6106 111.196 75.2516 111.525 74.8926 111.854C74.8328 111.914 74.773 111.974 74.7131 112.033C74.2943 112.422 73.8456 112.811 73.3969 113.17C73.2772 113.26 73.1575 113.38 73.008 113.469C72.6789 113.739 72.3498 114.008 71.9908 114.277C71.8413 114.397 71.6917 114.516 71.5421 114.606C71.1831 114.875 70.7942 115.145 70.4352 115.384C70.3156 115.474 70.2258 115.534 70.1062 115.623C69.6275 115.952 69.1189 116.252 68.6104 116.581C68.4907 116.64 68.3711 116.73 68.2514 116.79C67.8625 117.029 67.4736 117.239 67.0548 117.478C66.8753 117.568 66.7257 117.658 66.5462 117.747C66.1573 117.957 65.7684 118.166 65.3496 118.346C65.2 118.405 65.0504 118.495 64.9009 118.555C64.3624 118.824 63.794 119.064 63.2256 119.303C63.1358 119.333 63.0461 119.363 62.9564 119.423C62.4777 119.602 61.9991 119.812 61.5204 119.991C61.3409 120.051 61.1614 120.111 60.952 120.171C60.5332 120.32 60.1144 120.47 59.6657 120.589C59.4862 120.649 59.3067 120.709 59.1272 120.769C58.5289 120.948 57.9306 121.128 57.3023 121.277C35.5239 126.632 12.7283 113.948 6.41609 92.9474C6.2366 92.3491 6.08702 91.7807 5.93744 91.1824C5.90752 91.0627 5.87761 90.9431 5.8477 90.8234C5.69812 90.255 5.57845 89.6866 5.48871 89.1182C5.45879 89.0285 5.45879 88.9088 5.42888 88.8191C5.33913 88.2806 5.24939 87.7421 5.15964 87.2036C5.15964 87.1438 5.12972 87.0541 5.12972 86.9942C5.03997 86.4258 4.98015 85.8574 4.95023 85.289C4.95023 85.1694 4.92031 85.0497 4.92031 84.9301C4.86048 84.3617 4.83057 83.7933 4.83057 83.2249C4.83057 83.165 4.83057 83.1052 4.83057 83.0454C4.80065 82.5069 4.80065 81.9684 4.83057 81.4299C4.83057 81.3103 4.83057 81.2205 4.83057 81.1009C4.83057 80.5325 4.86048 79.994 4.92031 79.4256C4.92031 79.306 4.95023 79.1863 4.95023 79.0965C4.98015 78.5581 5.03998 78.0196 5.09981 77.4512C5.09981 77.4213 5.09981 77.3914 5.09981 77.3614C5.15964 76.793 5.24938 76.2546 5.33913 75.6862C5.36904 75.5665 5.36905 75.4469 5.39896 75.3272C5.48871 74.7887 5.60837 74.2502 5.72803 73.7118C5.75795 73.622 5.75795 73.5323 5.78786 73.4425C5.90752 72.934 6.02719 72.4553 6.17676 71.9467C6.20668 71.857 6.20668 71.7972 6.23659 71.7074C6.38617 71.1689 6.56567 70.6604 6.71524 70.1518C6.74516 70.0322 6.80499 69.9424 6.8349 69.8227C7.0144 69.2843 7.19389 68.7757 7.4033 68.2671C7.4033 68.2372 7.43321 68.2073 7.43321 68.1774C7.64262 67.6987 7.85203 67.1902 8.06144 66.7115C8.12127 66.6218 8.15119 66.5021 8.21102 66.4124C8.45034 65.9337 8.68966 65.4252 8.92899 64.9465C8.98882 64.8568 9.01873 64.767 9.07856 64.6773C9.31789 64.2285 9.58713 63.7499 9.82645 63.3012C9.85637 63.2712 9.88629 63.2114 9.88629 63.1815C10.1555 62.7029 10.4547 62.2242 10.7538 61.7755C10.8137 61.6857 10.8735 61.5661 10.9632 61.4763C11.2624 61.0276 11.5915 60.5789 11.8906 60.1301C11.9505 60.0703 11.9804 60.0105 12.0402 59.9506C12.3394 59.5318 12.6684 59.1429 12.9676 58.7241C13.0274 58.6643 13.0872 58.5745 13.1471 58.5147C13.4163 58.1557 13.7155 57.8266 14.0146 57.4976L9.25806 62.9422C6.446 66.1731 4.20234 69.8527 2.61682 73.8015C1.92877 75.5067 1.39029 77.2717 0.971471 79.0666C0.941555 79.2162 0.911637 79.3658 0.851806 79.5453C-0.464475 85.5583 -0.28498 92.02 1.62961 98.422C2.10826 100.037 2.70657 101.593 3.36471 103.089C3.90319 104.315 4.5015 105.482 5.15964 106.619C6.32634 108.683 7.67254 110.657 9.19823 112.452C9.61705 112.961 10.0658 113.469 10.4846 113.948C13.8052 117.568 17.7541 120.589 22.1217 122.893C22.6303 123.162 23.1089 123.401 23.6175 123.641C29.3613 126.423 35.7632 127.949 42.3147 127.949C43.6609 127.949 45.037 127.889 46.3832 127.769C48.4174 127.59 50.4816 127.231 52.5159 126.722C53.0244 126.602 53.5629 126.453 54.0715 126.303C55.5971 125.854 57.0929 125.346 58.5289 124.748C63.7641 122.564 68.3112 119.393 71.9609 115.504C72.29 115.145 72.6191 114.786 72.9481 114.427L77.7047 108.982C77.6449 109.042 77.585 109.132 77.5252 109.192C77.4354 109.311 77.3158 109.431 77.1961 109.551Z" fill="#080E3F"/>
<path d="M228.12 144.522C228.12 144.522 221.837 132.197 219.594 127.201C218.218 128.936 199.311 145.808 188.362 152.898L172.626 124.957C183.486 116.551 196.708 106.38 203.41 95.5501L195.99 80.2334L232.218 91.9304L228.12 144.522Z" fill="#CFDDA7"/>
<path d="M53.0242 197.233C42.4042 193.194 34.5664 187.69 31.2757 182.754C31.0962 182.484 29.5107 179.074 29.4209 178.745L13.3862 144.252C16.2282 148.56 22.7498 150.864 32.0535 151.851L35.1049 158.702L53.0242 197.233Z" fill="#8EBF30"/>
<path d="M183.875 98.0928C146.63 121.756 92.2736 145.778 49.1355 151.911C57.7512 168.424 63.9736 182.335 72.5892 198.848C79.2604 199.835 86.3504 200.164 93.6797 199.925C135.083 198.669 184.324 179.612 211.995 156.548C212.025 156.548 189.738 109.341 183.875 98.0928Z" fill="#8EBF30"/>
<path d="M88.8931 192.087C87.0981 192.087 85.3032 192.057 83.5681 191.968H83.2989L83.1792 191.728C82.3715 190.053 80.7261 188.946 78.8714 188.856L78.6021 188.826L78.4825 188.587C74.9225 181.138 70.166 170.817 67.4137 164.146L67.2043 163.667L67.7129 163.548C69.1788 163.219 70.4053 162.261 71.0934 160.945C71.7814 159.599 71.8412 158.073 71.2728 156.697L71.0634 156.219L71.572 156.099C108.428 147.573 141.963 134.56 174.033 116.281L174.451 116.042L174.661 116.461C175.289 117.747 176.366 118.675 177.712 119.093C179.058 119.512 180.494 119.363 181.721 118.645L182.14 118.405L182.349 118.824C185.49 125.316 189.2 133.154 192.46 140.064C194.076 143.504 195.632 146.765 196.978 149.637L197.127 149.996L196.828 150.205C194.734 151.641 193.986 154.364 195.063 156.607L195.213 156.966L194.884 157.146C179.358 167.556 160.331 176.711 141.305 182.903C122.787 188.946 104.808 192.087 88.8931 192.087ZM83.8373 191.07C116.804 192.506 161.019 178.685 194.076 156.607C193.089 154.124 193.867 151.312 195.991 149.667C194.674 146.915 193.178 143.744 191.623 140.453C188.422 133.692 184.832 126.064 181.721 119.662C180.375 120.29 178.879 120.41 177.443 119.961C176.007 119.512 174.84 118.585 174.062 117.298C142.173 135.427 108.877 148.351 72.2601 156.817C72.7387 158.313 72.5891 159.928 71.8712 161.334C71.1532 162.74 69.8967 163.787 68.401 164.266C71.1532 170.847 75.7003 180.719 79.1406 187.959C81.145 188.168 82.91 189.335 83.8373 191.07Z" fill="white"/>
<path d="M132.031 174.766C130.266 174.766 128.531 174.437 126.886 173.779C123.595 172.463 121.112 169.98 119.885 166.809C117.372 160.257 121.112 152.719 128.202 150.026C131.642 148.71 135.322 148.71 138.612 150.026C141.903 151.343 144.386 153.826 145.613 156.997C146.839 160.168 146.63 163.668 145.044 166.839C143.459 170.01 140.707 172.463 137.296 173.779C135.561 174.467 133.796 174.766 132.031 174.766ZM133.467 149.966C131.822 149.966 130.146 150.266 128.531 150.894C121.89 153.437 118.39 160.437 120.723 166.51C121.86 169.441 124.133 171.745 127.215 172.971C130.296 174.198 133.736 174.198 136.967 172.971C140.198 171.745 142.771 169.441 144.237 166.48C145.702 163.518 145.882 160.287 144.775 157.356C143.638 154.424 141.365 152.12 138.283 150.894C136.758 150.266 135.112 149.966 133.467 149.966Z" fill="white"/>
</g>
<defs>
<clipPath id="clip0_274_33996">
<rect width="245" height="200" fill="white"/>
</clipPath>
</defs>
</svg>
