<svg width="183" height="200" viewBox="0 0 183 200" fill="none" xmlns="http://www.w3.org/2000/svg">
<g clip-path="url(#clip0_274_33075)">
<path d="M87.7676 109.012C87.7264 91.5915 87.6853 74.1918 87.6442 56.7716C87.6442 56.2985 87.747 55.8255 87.1506 55.4964C82.4613 52.8638 77.5252 50.0667 72.8565 47.4136L72.9799 100.559" fill="#AAE95C"/>
<path d="M138.691 74.8909C137.272 72.3612 135.853 69.8109 134.413 67.2811C133.303 65.3273 132.131 63.4146 130.938 61.3784C128.326 62.9004 125.693 64.4429 122.896 66.0883C124.48 67.0343 127.256 68.8648 127.256 68.8648C127.482 69.0705 127.832 69.4818 127.832 69.9343C127.832 72.7931 127.832 79.3334 127.832 79.3334C127.832 79.3334 131.945 81.678 133.92 82.7887C133.92 79.2923 133.92 76.0016 133.92 72.5669C135.689 73.2867 138.691 74.8909 138.691 74.8909Z" fill="#AAE95C"/>
<path d="M111.42 122.812C111.42 99.4891 111.42 74.8499 111.44 51.5475C111.44 50.5397 111.317 49.8198 110.309 49.244C105.928 46.817 101.609 44.3079 97.2696 41.7987C97.0845 41.6959 96.92 41.7164 96.7555 41.6753C96.2619 42.0661 96.5087 42.6008 96.5087 43.0739C96.4881 66.3351 96.4881 90.9332 96.4881 114.215" fill="#AAE95C"/>
<path d="M138.753 88.7117C131.966 95.1081 111.42 106.708 101.856 114.462C98.2365 117.403 88.097 127.542 90.7501 134.144C93.4238 140.746 102.247 135.728 111.194 127.46C120.14 119.192 140.646 98.1931 144.451 94.5527C148.276 90.933 142.826 84.8863 138.753 88.7117Z" fill="#D18F62"/>
<path d="M163.598 96.1778C163.845 95.6225 163.331 89.041 162.693 89.0616C151.279 89.5963 150.662 89.2672 150.806 88.3623C150.929 87.6219 152.533 86.3056 153.994 86.3056C155.084 86.3056 156.359 86.5113 157.634 85.9765C158.662 85.5652 159.074 84.4134 159.279 83.961C159.423 83.6319 159.176 83.2823 158.827 83.2823C157.819 83.2823 155.886 83.2205 153.767 83.0149C151.937 82.8298 149.88 81.6986 147.967 82.0071C146.075 82.3156 144.307 82.9532 143.031 84.0844C138.301 88.28 137.725 89.1438 137.252 90.6247C136.779 92.1055 137.869 98.7281 139.782 99.016C144.121 99.6741 158.683 102.41 162.303 99.0571L163.598 96.1778Z" fill="#D18F62"/>
<path d="M156.894 95.6224C160.904 92.7636 162.262 90.2544 163.804 87.1488C165.347 84.0432 165.943 83.385 166.848 83.6318C167.856 83.9197 167.465 85.4623 168.103 85.9147C168.144 86.3055 168 82.9737 169.501 82.768C171.003 82.5623 171.229 83.6318 171.291 84.4956C171.352 85.3594 171.352 86.902 171.352 87.3544C171.352 87.8275 173.1 86.4289 174.972 83.385C175.363 82.768 176.021 82.3361 176.741 82.3567C177.337 82.3772 177.831 82.6652 177.461 83.7964C176.7 86.0587 175.322 87.7658 175.137 88.3828C174.952 88.9998 177.851 87.519 179.065 87.8892C180.278 88.2594 181.142 89.4934 180.649 89.6785C178.612 90.4601 172.34 94.2238 171.414 94.1827C170.488 94.1415 167.979 94.6557 165.758 96.6096C163.537 98.584 160.925 100.394 159.547 100.394C158.745 100.373 152.986 98.4195 156.894 95.6224Z" fill="#D18F62"/>
<path d="M156.894 95.9312C156.791 95.9312 156.709 95.8901 156.647 95.8078C156.544 95.6638 156.585 95.4787 156.729 95.3759C160.555 92.6405 161.912 90.2958 163.537 87.0257C165.059 83.9818 165.758 83.0151 166.951 83.3442C167.63 83.5293 167.815 84.1463 167.938 84.681C168.226 83.0357 168.905 82.5626 169.481 82.4804C170.098 82.3981 170.592 82.5009 170.941 82.7889C171.455 83.2208 171.579 83.9201 171.62 84.4959C171.661 85.0307 171.682 85.8739 171.682 87.0051C172.237 86.5938 173.43 85.3598 174.725 83.2414C175.199 82.5009 175.98 82.0485 176.762 82.069C177.214 82.0896 177.543 82.2336 177.728 82.5009C177.954 82.83 177.975 83.2825 177.769 83.9201C177.276 85.4009 176.494 86.676 175.98 87.5193C175.816 87.7867 175.672 88.0129 175.569 88.2186C175.795 88.1774 176.083 88.0746 176.33 88.0129C177.255 87.7455 178.428 87.3959 179.147 87.6221C179.312 87.6633 179.415 87.8484 179.353 88.0129C179.312 88.1774 179.127 88.2597 178.962 88.2186C178.407 88.054 177.296 88.3625 176.494 88.6093C175.61 88.8767 175.157 89.0001 174.911 88.7533C174.808 88.6505 174.767 88.4859 174.828 88.3214C174.911 88.054 175.137 87.7044 175.425 87.1902C175.959 86.3264 176.659 85.1335 177.152 83.7144C177.276 83.3031 177.296 83.0151 177.194 82.8506C177.111 82.7477 176.967 82.686 176.72 82.686C176.145 82.6655 175.589 83.0151 175.219 83.5704C173.944 85.6477 172.175 87.7661 171.394 87.7661C171.352 87.7661 171.332 87.7661 171.291 87.7455C171.126 87.7044 171.003 87.5399 171.003 87.3548C171.003 86.0385 170.982 85.0924 170.941 84.5165C170.9 84.064 170.838 83.5293 170.489 83.2619C170.262 83.0768 169.933 83.0151 169.501 83.0768C168.864 83.1591 168.453 84.1669 168.391 85.8534C168.391 85.9562 168.37 86.2647 168.082 86.2647C168.082 86.2647 167.897 86.2647 167.794 86.1002C167.486 85.8328 167.404 85.4009 167.301 84.969C167.177 84.3931 167.075 84.0229 166.704 83.9201C166.067 83.7555 165.573 84.1874 164.031 87.2725C162.365 90.6249 160.966 93.0518 157.017 95.8695C157.017 95.9106 156.956 95.9312 156.894 95.9312Z" fill="#3F2D1F"/>
<path d="M165.45 94.9437C165.388 94.9437 165.326 94.9231 165.265 94.882C165.121 94.7791 165.1 94.5735 165.203 94.4501C165.964 93.4628 166.787 92.2083 166.787 91.9203C166.787 91.6118 166.931 90.9948 167.116 90.1516C167.321 89.2877 167.568 88.2388 167.712 87.231C167.733 87.0665 167.897 86.9431 168.062 86.9637C168.226 86.9842 168.35 87.1488 168.329 87.3133C168.185 88.3417 167.938 89.4111 167.733 90.275C167.568 91.0154 167.404 91.6735 167.404 91.9203C167.404 92.5579 166.087 94.3061 165.697 94.8203C165.635 94.9025 165.553 94.9437 165.45 94.9437Z" fill="#3F2D1F"/>
<path d="M167.424 90.7278C167.321 90.7278 167.239 90.6866 167.177 90.6044C167.074 90.4604 167.095 90.2753 167.239 90.1725C168 89.5966 170.776 88.0746 170.9 88.0129C171.044 87.9307 171.249 87.9924 171.332 88.1363C171.414 88.2803 171.352 88.486 171.208 88.5682C171.188 88.5888 168.37 90.1313 167.63 90.6866C167.547 90.7072 167.486 90.7278 167.424 90.7278Z" fill="#3F2D1F"/>
<path d="M52.2688 86.6547C41.0598 90.8092 65.4522 122.544 72.8152 127.439C78.9236 131.532 82.4611 135.357 91.0992 137.887C104.056 141.671 115.101 124.004 125.672 120.611C127.174 120.117 127.544 121.865 128.367 121.351C132.377 118.924 138.732 116.97 135.092 112.322C131.39 107.633 129.354 94.6347 127.894 94.6347C124.767 94.6347 119.05 100.352 119.05 100.352C118.536 101.525 119.399 101.422 114.463 104.589C90.3383 120.055 89.0837 114.029 81.3094 104.589C76.8669 99.2622 65.4933 81.7597 52.2688 86.6547Z" fill="#0039DC"/>
<path d="M94.8015 138.731C93.5674 138.731 92.2923 138.566 91.0171 138.175C84.4357 136.242 80.6925 133.507 76.7436 130.607C75.4479 129.661 74.1316 128.673 72.6508 127.686C69.3807 125.506 63.1283 118.411 58.1099 111.191C54.449 105.926 48.4229 96.1982 49.1016 90.3983C49.3278 88.3827 50.3562 87.0253 52.1455 86.3671C57.2873 84.4544 62.7787 85.709 68.4551 90.0486C73.165 93.6684 77.1139 98.7279 79.7259 102.08C80.4251 102.985 81.0421 103.767 81.5563 104.384C82.235 105.206 82.8726 106.009 83.4691 106.79C89.6803 114.688 92.5185 118.287 114.299 104.322C118.289 101.772 118.392 101.422 118.577 100.785C118.618 100.62 118.68 100.456 118.762 100.229L118.783 100.168L118.824 100.126C119.071 99.8796 124.665 94.3266 127.894 94.3266C128.737 94.3266 129.333 96.1776 130.567 100.353C131.781 104.466 133.303 109.567 135.339 112.138C136.306 113.372 136.655 114.482 136.429 115.531C135.977 117.608 133.344 119.007 130.794 120.364C130.033 120.776 129.231 121.187 128.531 121.619C127.976 121.969 127.544 121.598 127.174 121.31C126.783 120.981 126.413 120.693 125.755 120.899C121.826 122.154 117.857 125.403 113.641 128.838C107.676 133.712 101.527 138.731 94.8015 138.731ZM52.3718 86.943C50.7881 87.5189 49.9243 88.6706 49.7186 90.46C49.2456 94.5528 52.4746 101.977 58.6036 110.821C63.5808 117.999 69.7509 125.033 72.9593 127.172C74.4607 128.18 75.7976 129.146 77.0933 130.113C81.1655 133.095 84.6825 135.687 91.1611 137.579C92.3746 137.929 93.5674 138.093 94.7603 138.093C101.28 138.093 107.347 133.157 113.229 128.344C117.487 124.869 121.518 121.598 125.549 120.303C126.536 119.974 127.153 120.488 127.544 120.817C127.914 121.125 128.017 121.166 128.161 121.064C128.881 120.632 129.683 120.2 130.465 119.788C132.892 118.513 135.401 117.176 135.771 115.367C135.956 114.503 135.648 113.557 134.804 112.487C132.706 109.834 131.164 104.651 129.93 100.497C129.21 98.0903 128.305 95.067 127.832 94.923C125.014 94.923 119.79 100.003 119.256 100.517C119.194 100.682 119.153 100.805 119.112 100.949C118.865 101.813 118.597 102.265 114.566 104.836C103.872 111.685 97.3929 114.523 92.8682 114.359C88.4463 114.174 86.1222 111.233 82.9343 107.16C82.3379 106.399 81.7003 105.597 81.0216 104.775C80.5074 104.158 79.8904 103.376 79.1911 102.471C73.8643 95.5606 63.8481 82.7062 52.3718 86.943Z" fill="white"/>
<path d="M52.1249 76.1865C52.1249 76.1865 50.7881 81.1843 52.5774 87.9508C52.7831 88.7324 58.6241 88.8969 59.5085 88.9792C65.4112 89.4728 66.0077 97.9258 71.5608 105.721C78.9854 116.148 87.5413 124.334 85.0733 132.334C80.4663 147.266 74.9543 142.824 76.1883 164.789C76.8876 177.212 83.0783 186.076 78.0188 191.999C73.4118 197.388 36.2678 180.523 23.9893 182.065C26.7658 175.936 32.7303 177.705 32.504 171.453C32.1955 163.329 27.3211 152.696 23.3723 145.25C14.5902 128.673 8.31724 111.315 7.88533 110.06C3.71023 98.0081 13.9115 92.4139 19.0738 90.4394C22.9815 88.9381 30.2622 87.5601 30.653 78.9014C30.8998 73.7596 28.7197 66.0059 28.7197 66.0059L52.1249 76.1865Z" fill="url(#paint0_linear_274_33075)"/>
<path d="M58.1306 51.0125C57.9866 51.0125 57.8426 50.8891 57.8221 50.7451C57.8015 50.5806 57.9249 50.4161 58.0894 50.3955L67.4268 49.1409C67.5914 49.1203 67.7559 49.2437 67.7765 49.4083C67.7971 49.5728 67.6737 49.7374 67.5091 49.7579L58.1717 51.0125C58.1511 51.0125 58.1511 51.0125 58.1306 51.0125Z" fill="white"/>
<path d="M40.9573 15.1644C40.9573 15.1644 41.5537 15.0204 41.3481 13.7042C40.9778 11.3595 38.4275 12.573 37.3992 11.7092C35.5893 10.2283 39.9906 7.28726 37.7283 4.69581C36.124 2.88592 33.5737 4.38731 32.0106 2.08381C31.0646 0.705818 29.8511 0.109375 28.6377 0.00653963C27.4242 -0.116862 25.1001 1.54906 23.0846 1.38453C21.0896 1.21999 18.6215 1.73417 16.7294 2.68025C14.8372 3.62633 14.3436 6.81422 13.089 7.73973C11.6287 8.80921 7.86498 8.27447 6.19906 10.0021C4.28633 11.9765 5.00617 14.7942 2.72324 16.8098C-1.8632 20.8409 3.34024 24.8515 3.58705 27.9982C3.83385 31.1244 7.20684 31.6386 6.65153 36.225C6.36359 38.6519 10.0862 38.9399 13.8705 35.6697C14.8372 34.8265 11.5465 39.6597 11.8138 41.7781C12.0195 43.5057 12.6365 46.9199 12.6365 46.9199C12.1224 60.1033 18.5393 58.787 19.3002 62.5919C20.0612 66.3968 21.4803 73.0194 23.7016 73.9243C25.9228 74.8498 30.5504 73.6981 29.9128 71.6825C29.2752 69.667 52.989 75.0761 66.1519 46.8582C70.7383 36.9243 61.5243 14.6091 40.9573 15.1644Z" fill="#774D2F"/>
<path d="M40.9573 15.1644C40.9573 15.1644 41.5537 15.0204 41.3481 13.7042C40.9778 11.3595 38.4275 12.573 37.3992 11.7092C35.5893 10.2283 39.9906 7.28726 37.7283 4.69581C36.124 2.88592 33.5737 4.38731 32.0106 2.08381C31.0646 0.705818 29.8511 0.109375 28.6377 0.00653963C27.4242 -0.116862 25.1001 1.54906 23.0846 1.38453C21.0896 1.21999 18.6215 1.73417 16.7294 2.68025C14.8372 3.62633 14.3436 6.81422 13.089 7.73973C11.6287 8.80921 7.86498 8.27447 6.19906 10.0021C4.28633 11.9765 5.00617 14.7942 2.72324 16.8098C-1.8632 20.8409 3.34024 24.8515 3.58705 27.9982C3.83385 31.1244 7.20684 31.6386 6.65153 36.225C6.36359 38.6519 10.0862 38.9399 13.8705 35.6697C14.8372 34.8265 11.5465 39.6597 11.8138 41.7781C12.0195 43.5057 12.6365 46.9199 12.6365 46.9199C12.1224 60.1033 18.5393 58.787 19.3002 62.5919C20.0612 66.3968 21.4803 73.0194 23.7016 73.9243C25.9228 74.8498 30.5504 73.6981 29.9128 71.6825C29.2752 69.667 52.989 75.0761 66.1519 46.8582C70.7383 36.9243 61.5243 14.6091 40.9573 15.1644Z" fill="#774D2F"/>
<path d="M64.0952 52.432C63.3959 50.6632 63.0463 50.293 63.2108 47.3725C63.4165 46.3647 63.5399 45.3158 63.6016 44.2463C63.7867 41.0995 63.3754 38.0351 62.4293 35.238C59.5088 26.4764 51.6316 19.9567 42.0062 19.4014C40.7517 19.3397 39.5176 19.3602 38.3248 19.4836C34.3142 19.9155 30.5916 21.3758 27.4242 23.6587C23.6399 26.3736 20.6577 30.2196 18.9918 34.7649C18.9712 34.8266 18.7655 35.7521 18.5393 36.9244C18.1074 38.9811 17.5521 41.7371 17.5521 41.7783C17.511 42.6626 17.511 43.547 17.5521 44.4314C17.5932 45.1924 17.6755 45.9328 17.7783 46.6732C17.8195 46.8994 17.84 47.1257 17.8812 47.3519C18.3953 50.1696 19.4031 52.8433 20.8017 55.2291C20.8017 55.2291 20.8222 55.2496 20.8428 55.3113C21.0073 55.5993 21.1925 55.8872 21.3981 56.1752C22.447 57.8822 24.5654 61.5637 25.4498 64.6488C28.4526 75.2408 48.1558 81.2258 55.3337 78.84C63.6427 76.0634 66.8306 59.2808 64.0952 52.432Z" fill="#D18F62"/>
<path opacity="0.1" d="M41.5157 61.6936C41.675 60.1684 40.6227 58.8086 39.1654 58.6564C37.708 58.5041 36.3974 59.6171 36.2381 61.1423C36.0787 62.6674 37.131 64.0272 38.5884 64.1795C40.0458 64.3317 41.3564 63.2187 41.5157 61.6936Z" fill="#C10E1A"/>
<path d="M34.4373 45.5831C35.6919 44.0406 37.4812 43.0739 39.4145 42.6831C41.3684 42.2718 43.4662 42.7037 45.2144 43.6703C45.6874 43.9172 45.8931 44.5136 45.6463 44.9866C45.3789 45.5214 44.7002 45.6859 44.2066 45.3363C42.8492 44.4519 41.2655 43.9583 39.6407 44.1434C38.4273 44.2668 37.1933 44.7398 36.1649 45.4391C35.8153 45.6859 35.4656 45.9533 35.2188 46.2207C34.7869 46.7143 34.0671 46.1178 34.4373 45.5831Z" fill="#8C6239"/>
<path d="M62.1822 43.4029C61.0716 42.642 59.0766 42.6625 57.8837 43.1561C57.4518 43.3412 57.1022 43.6086 56.8554 43.9171C56.5263 44.349 55.9093 44.4313 55.4774 44.1022C55.0455 43.7731 54.9632 43.1561 55.2923 42.7242C55.827 42.1072 56.6086 41.7164 57.3284 41.5108C58.0071 41.3257 58.6653 41.2845 59.3234 41.3051C60.578 41.4079 62.1617 41.737 63.0049 42.7448C63.3545 43.3412 62.6141 43.8965 62.1822 43.4029Z" fill="#8C6239"/>
<path d="M51.4669 79.9506C44.8649 79.9506 34.746 76.701 29.0695 71.189C28.9461 71.0656 28.9461 70.8805 29.0695 70.7571C29.1929 70.6337 29.378 70.6337 29.5014 70.7571C35.1162 76.2074 45.1529 79.4158 51.6315 79.3541C51.796 79.3541 51.94 79.4981 51.94 79.6626C51.94 79.8272 51.796 79.9711 51.6315 79.9711C51.5903 79.9506 51.5286 79.9506 51.4669 79.9506Z" fill="#3F2D1F"/>
<path d="M25.5936 54.8585C21.8504 53.5011 19.3001 58.2727 20.4313 60.4939C21.5624 62.7151 24.2773 67.8158 26.8893 66.6229C29.4807 65.4094 25.5936 54.8585 25.5936 54.8585Z" fill="#D18F62"/>
<path d="M23.9689 73.8833C24.4214 74.5826 28.9667 75.3641 29.234 73.6365C29.5425 71.6004 27.2596 64.2785 26.766 64.1963C25.5114 63.97 23.1462 72.6082 23.9689 73.8833Z" fill="#0198FF"/>
<path d="M64.7945 38.8987C64.7945 38.8987 68.3938 31.9882 64.2804 26.1472C62.4088 23.494 60.7428 23.7614 59.6322 22.877C58.5422 22.0338 58.0897 19.8125 55.5599 19.2367C52.9891 18.6608 52.4338 15.4935 45.5438 15.3906C43.9807 15.3701 40.073 15.3084 36.2475 16.3778C36.227 16.3778 36.227 16.3778 36.2064 16.3778C31.8256 16.8509 27.7328 18.4551 24.2775 20.9437C24.2775 20.9437 24.257 20.9643 24.2364 20.9643C13.1302 25.9004 13.2948 48.668 13.3359 48.8531C13.7884 51.7942 14.5699 53.8098 15.8039 55.4757C18.7245 59.3629 20.0819 56.9154 21.7067 57.4707C25.5733 58.787 28.103 62.7358 27.5271 68.4946C27.2392 71.3945 30.1391 72.8754 30.0774 75.2406C30.0363 77.071 33.5327 79.9504 34.3759 76.4129C35.0135 73.7186 30.0774 75.2406 32.5455 65.1216C34.8284 55.6814 23.9485 52.0204 24.8534 45.1716C25.2853 41.922 27.342 39.1661 30.715 36.1633C31.7228 35.2583 33.1419 34.6208 34.4376 33.9009C35.7128 33.1811 36.5972 31.2683 38.1603 30.8364C39.7439 30.384 42.0063 31.4123 43.8573 31.3095C45.2147 31.2478 45.2147 31.2478 46.1814 30.4045C47.0041 29.6847 47.2509 27.6691 49.5749 29.5201C52.4338 31.8031 52.9274 30.2194 53.9146 29.7875C56.2592 28.7797 60.1875 30.7953 63.1286 36.081L64.7945 38.8987Z" fill="#774D2F"/>
<path d="M32.7717 78.3872C32.6894 78.3872 32.6072 78.3872 32.5455 78.3667C31.1881 78.1816 29.7072 76.5362 29.7484 75.2199C29.7689 74.2327 29.1931 73.3689 28.5966 72.4639C27.8562 71.3739 27.0335 70.1193 27.1981 68.4534C27.7122 63.2088 25.5733 59.116 21.5833 57.7585C21.4187 57.6968 21.3365 57.5323 21.3982 57.3678C21.4599 57.2032 21.6244 57.121 21.7889 57.1827C26.0669 58.6429 28.3704 62.9826 27.8151 68.5356C27.6711 69.9753 28.4115 71.086 29.1108 72.1349C29.7484 73.081 30.4065 74.0682 30.3654 75.2611C30.3448 76.2483 31.5994 77.6468 32.6278 77.7702C33.327 77.8525 33.8001 77.3795 34.0469 76.3511C34.232 75.6107 33.9029 75.2816 33.3682 74.7263C32.2575 73.5951 30.5505 71.9086 32.237 65.0393C33.471 59.9592 30.7973 56.6274 28.2264 53.4189C26.1286 50.7863 24.1336 48.3183 24.5449 45.1304C24.9768 41.8397 26.6428 39.1454 30.0774 36.0809C30.8179 35.4228 31.949 34.8469 33.0391 34.2916C33.4916 34.0654 33.9029 33.8597 34.2731 33.6334C34.7667 33.3455 35.2192 32.8725 35.6717 32.3583C36.3504 31.5973 37.0702 30.8158 38.0574 30.5484C38.9418 30.3016 39.9496 30.5073 41.0397 30.7541C41.9857 30.9597 42.9524 31.1654 43.7956 31.0214C44.7828 30.8569 45.9963 30.4867 46.1197 29.7463C46.4282 27.813 40.4638 24.2138 38.1397 22.9797C38.0163 22.918 37.9546 22.7741 37.9752 22.6301C38.0163 22.4861 38.1397 22.3833 38.2837 22.3833C38.3454 22.3833 45.0914 22.4039 49.7806 29.047C50.3976 29.9314 50.9735 30.425 51.5288 30.5073C52.1253 30.6101 52.6394 30.2605 53.1536 29.9108C53.3798 29.7463 53.6061 29.6023 53.8323 29.4995C56.2592 28.4506 60.3315 30.3427 63.4371 35.937C63.5194 36.0809 63.4577 36.2866 63.3137 36.3689C63.1697 36.4511 62.9641 36.3894 62.8818 36.2455C59.9407 31.0009 56.1358 29.1498 54.0174 30.0548C53.8529 30.1165 53.6678 30.2605 53.4621 30.4044C52.9068 30.7952 52.2281 31.2682 51.3848 31.1037C50.665 30.9803 49.9452 30.4044 49.2253 29.3761C46.0786 24.8719 41.9446 23.5351 39.7645 23.1443C42.2531 24.584 47.0452 27.6485 46.6956 29.7874C46.5516 30.6924 45.6261 31.2888 43.8779 31.5767C42.9318 31.7413 41.8829 31.515 40.8957 31.3094C39.9085 31.0831 38.9624 30.898 38.222 31.1037C37.3993 31.3299 36.7617 32.0498 36.1241 32.7285C35.6511 33.2632 35.1369 33.798 34.561 34.1271C34.1703 34.3327 33.7589 34.559 33.3065 34.7852C32.2575 35.3199 31.1675 35.8752 30.4888 36.4923C27.1158 39.495 25.5733 42.0042 25.1619 45.1715C24.7712 48.092 26.6839 50.4778 28.6995 52.987C31.2498 56.1749 34.1497 59.7741 32.8334 65.1421C31.2498 71.6618 32.7923 73.2044 33.8206 74.2327C34.3965 74.8086 34.9313 75.3433 34.6639 76.4334C34.2731 78.1199 33.327 78.3872 32.7717 78.3872Z" fill="#3F2D1F"/>
<path d="M17.4697 30.5899C17.408 30.5899 17.3463 30.5899 17.2846 30.5694C16.7704 30.4665 16.4414 29.9729 16.5442 29.4587C17.8193 23.1858 21.8916 18.7022 27.7326 17.1391L27.7738 17.1185C27.7738 17.1185 29.0078 16.8306 29.9333 16.0902C31.7432 14.6094 34.2729 13.2725 40.5253 13.4988C41.0395 13.5193 41.4508 13.9512 41.4303 14.4654C41.4097 14.9796 40.9778 15.3909 40.4636 15.3704C34.5609 15.1441 32.5453 16.3781 31.1262 17.5505C29.9333 18.5171 28.4319 18.8873 28.2057 18.949C23.0845 20.327 19.5058 24.2759 18.3952 29.829C18.2924 30.2814 17.9016 30.5899 17.4697 30.5899Z" fill="#001074"/>
<path d="M56.1151 63.3117C56.0123 63.3117 55.93 63.2706 55.8683 63.1883C55.7655 63.0443 55.8066 62.8592 55.93 62.7564C56.0534 62.6741 56.1768 62.5713 56.3413 62.4685C56.9995 62.016 58.1307 61.2756 58.1512 60.5969C58.1924 59.6097 56.7938 58.1905 55.5598 56.9359C54.2641 55.6197 53.0301 54.3651 53.0712 53.3573C53.0712 53.1928 53.2357 53.0488 53.4003 53.0693C53.5648 53.0693 53.7088 53.2133 53.6882 53.3984C53.6471 54.1388 54.8399 55.3523 55.9917 56.504C57.3903 57.9232 58.8299 59.3834 58.7682 60.638C58.7271 61.6252 57.5548 62.4068 56.691 63.0032C56.547 63.106 56.403 63.1883 56.3002 63.2706C56.2385 63.2911 56.1768 63.3117 56.1151 63.3117Z" fill="#3F2D1F"/>
<path d="M55.8476 51.8352C55.7654 51.8352 55.6831 51.8146 55.6008 51.7735C55.354 51.6295 55.2512 51.321 55.3951 51.0536C56.115 49.7168 57.5547 48.7913 59.0561 48.709C60.7014 48.6062 62.2645 49.5934 62.717 50.9919C62.7993 51.2799 62.6553 51.5678 62.3674 51.6501C62.0794 51.7324 61.7915 51.5884 61.7092 51.3005C61.4007 50.3544 60.2695 49.6757 59.1178 49.7579C57.9866 49.8196 56.876 50.56 56.3207 51.5678C56.2178 51.7324 56.0327 51.8352 55.8476 51.8352Z" fill="#201814"/>
<path d="M38.5716 54.9616C38.5099 54.9616 38.4276 54.9411 38.3659 54.9205C38.0985 54.8177 37.9751 54.4886 38.078 54.2212C38.695 52.7198 40.1964 51.5886 41.8829 51.3213C43.5488 51.0539 45.3175 51.6709 46.387 52.9255C46.5721 53.1517 46.5516 53.4808 46.3253 53.6659C46.0991 53.851 45.77 53.8304 45.5849 53.6042C44.7417 52.6376 43.3431 52.144 42.0474 52.3702C40.7105 52.5759 39.5382 53.4602 39.0652 54.612C38.9829 54.8382 38.7772 54.9616 38.5716 54.9616Z" fill="#201814"/>
<path d="M43.0756 61.3581C42.8699 61.3581 42.6437 61.3581 42.438 61.3375C38.3452 60.9879 35.3012 57.3681 35.6509 53.2752C35.8154 51.2802 36.7409 49.4909 38.2629 48.1952C39.7849 46.8995 41.7181 46.2825 43.6926 46.447C45.667 46.6115 47.4769 47.537 48.7521 49.0796C50.0272 50.6015 50.6442 52.5348 50.4797 54.5298C50.3152 56.5248 49.3896 58.3142 47.8677 59.6099C46.5103 60.7411 44.8238 61.3581 43.0756 61.3581ZM36.2679 53.3164C35.9594 57.0801 38.7359 60.3914 42.4997 60.7205C44.3096 60.8645 46.0783 60.3092 47.4769 59.1368C48.8755 57.9645 49.7187 56.2986 49.8832 54.4887C50.0272 52.6582 49.4719 50.8895 48.2996 49.4909C47.1273 48.0924 45.4819 47.2491 43.6514 47.0846C41.8415 46.9406 40.0728 47.4959 38.6742 48.6682C37.2757 49.8406 36.4119 51.4859 36.2679 53.3164Z" fill="white"/>
<path d="M60.8457 58.7047C60.5783 58.7047 60.2904 58.6842 60.023 58.6636C55.9302 58.2111 52.9891 54.5091 53.4416 50.4162V50.3957C53.4416 50.3545 53.4621 50.3134 53.4621 50.2723C53.4621 50.2106 53.4827 50.1283 53.4827 50.0666C54.0791 46.1177 57.6784 43.3617 61.6684 43.8142C65.7612 44.2667 68.7023 47.9687 68.2498 52.0616C68.0236 54.036 67.0569 55.8253 65.5144 57.0799C64.157 58.1494 62.5322 58.7047 60.8457 58.7047ZM54.038 50.4985C53.6267 54.2417 56.3415 57.6352 60.0847 58.0466C61.8946 58.2522 63.6839 57.7175 65.1031 56.5863C66.5222 55.4346 67.4066 53.8098 67.6122 51.9999C68.0236 48.2567 65.3087 44.8631 61.5655 44.4518C57.9252 44.0405 54.6345 46.5702 54.0791 50.19C54.0586 50.2517 54.0586 50.2928 54.0586 50.334C54.0586 50.3751 54.0586 50.4368 54.038 50.4985Z" fill="white"/>
<path d="M49.5335 50.56C49.4307 50.56 49.3484 50.5188 49.2867 50.4366C49.1838 50.2926 49.2044 50.1075 49.3484 50.0047C49.4307 49.943 51.4874 48.3799 53.8114 49.2025C53.976 49.2642 54.0582 49.4288 53.9965 49.5933C53.9348 49.7579 53.7703 49.8401 53.6058 49.7784C51.5902 49.0791 49.7392 50.4777 49.7186 50.4983C49.6569 50.5394 49.5952 50.56 49.5335 50.56Z" fill="white"/>
<path d="M26.5192 54.9201C26.3753 54.9201 26.2313 54.8173 26.2107 54.6528C26.1902 54.4882 26.293 54.3237 26.4781 54.3031L35.7949 52.8634C35.9595 52.8429 36.124 52.9457 36.1446 53.1308C36.1651 53.2953 36.0623 53.4599 35.8772 53.4804L26.5604 54.9201C26.5604 54.9201 26.5398 54.9201 26.5192 54.9201Z" fill="white"/>
<path d="M88.6523 190.745C87.2743 191.753 84.1892 193.069 82.1942 194.282C77.4227 197.244 71.4788 199.486 64.9179 200C49.4927 196.874 32.4221 192.226 18.9713 185.5C22.8173 178.466 28.5349 170.939 28.2881 168.759C26.9924 156.85 10.0658 131.944 7.53603 124.313C4.65665 115.634 2.25031 107.119 8.39984 96.4246C11.7523 90.5835 22.3031 87.5191 22.6322 87.5396C29.2136 96.6097 36.988 107.901 52.8451 106.523C62.7378 105.659 58.9947 93.7714 58.7273 86.9638C58.7273 86.9638 61.6272 86.5319 65.5761 91.3034C67.8179 93.9977 69.381 101.69 73.4533 105.988C78.4099 111.212 87.4594 121.763 87.4594 130.278C87.4799 139.78 81.8446 144.14 81.1042 148.665C77.8957 167.895 86.5956 174.188 87.953 181.86C88.1381 182.929 86.5544 183.999 86.7807 186.014C86.8629 186.385 88.8991 190.56 88.6523 190.745Z" fill="#0039DC"/>
<path d="M16.0713 90.4805C8.02963 90.7273 -0.855306 101.34 2.41485 113.927C5.685 126.514 3.69 136.962 2.22974 151.174C0.769486 165.385 5.37649 165.365 9.28422 165.427C17.4288 165.571 29.8512 140.561 28.4732 116.868C27.0952 93.1747 16.0713 90.4805 16.0713 90.4805Z" fill="#0039DC"/>
<g opacity="0.4">
<path opacity="0.4" d="M57.1228 67.4458C56.876 67.4047 56.5881 67.2196 56.5675 67.0962C56.547 66.9522 55.8065 66.7465 55.6009 66.6026C54.7371 66.0267 53.9761 66.438 53.3591 67.0139C53.2562 67.1167 52.886 67.4458 52.5364 67.199C51.8783 66.7671 51.2612 66.7465 50.2946 67.3635C49.945 67.5898 49.2251 68.1245 49.2457 68.2685C49.2662 68.3713 48.8755 68.8444 48.4641 69.1323C48.1556 69.3585 48.4024 69.7493 48.7521 69.955C49.0811 70.1401 49.513 71.5386 50.8705 72.0734C52.6598 72.7727 55.0044 72.3613 56.2385 71.2713C57.5136 70.1606 57.2257 68.8855 57.493 68.4125C57.6987 68.0422 57.493 67.5281 57.1228 67.4458Z" fill="#C10E1A"/>
</g>
<path d="M9.44866 109.958C8.37917 114.153 0.111242 148.562 3.03176 156.604C5.95227 164.645 7.55649 166.64 11.4848 165.9C15.4131 165.159 22.1179 159.647 19.7527 135.214C17.3875 110.78 18.7038 115.655 18.7038 115.655C18.7038 115.655 17.223 109.299 14.8166 108.765C13.5826 108.477 9.44866 109.958 9.44866 109.958Z" fill="#D18F62"/>
<path d="M15.9479 115.572C17.2436 116.066 24.0307 112.076 21.9123 106.728C19.7939 101.381 22.0768 100.188 21.4804 96.9385C20.8839 93.6889 16.133 88.9379 14.138 86.8812C12.143 84.8245 12.2869 83.7139 11.4437 80.0941C10.6004 76.4538 9.98343 75.9396 8.93451 75.2609C7.88559 74.5822 6.30193 75.302 5.78776 76.1453C5.25302 77.0091 5.33529 82.9118 7.98843 86.182C8.4409 86.7373 8.79054 87.2103 9.07848 87.6011C9.09905 87.6422 9.11962 87.6833 9.16075 87.7039C9.16075 87.7039 2.39421 91.4882 4.30694 98.4193C6.21967 105.371 11.1969 113.783 15.9479 115.572Z" fill="#D18F62"/>
<path d="M17.1406 116.292C12.4719 115.037 9.92163 111.294 8.11173 107.86C6.32241 104.425 4.61535 99.4476 4.06004 98.9746C3.68983 98.6661 3.68983 94.7789 3.99834 91.9818C4.12174 90.9123 2.04447 87.9506 0.728183 86.1613C0.0906058 85.2975 0.0906058 84.1046 0.728183 83.2408C2.68205 80.6082 6.58978 75.5693 7.8238 76.6594C8.97555 77.6877 8.91385 78.6749 8.37911 79.8678C7.72096 81.3281 6.11674 83.1997 5.68483 84.3926C5.58199 84.7011 7.02168 87.8684 7.24792 87.6833C11.6081 84.3103 18.1896 81.4515 18.7654 82.9117C19.2385 84.1252 19.2385 85.2358 18.6626 85.8322C18.0456 86.4698 12.8216 89.2875 12.0195 90.0485C9.53086 92.4137 7.51529 95.3753 7.51529 95.3753C7.51529 95.3753 18.5186 89.5137 19.7527 91.5293C20.9867 93.5449 20.5959 94.3058 18.025 95.437C15.4336 96.5682 12.2868 97.1235 11.8961 98.3575C11.5053 99.5916 11.7932 101.216 11.7932 101.216C11.7932 101.216 17.6343 97.6171 18.5803 99.427C19.5264 101.237 16.8527 102.574 14.8371 103.705C12.8216 104.836 14.7137 109.525 16.8938 111.726C19.0534 113.927 17.1406 116.292 17.1406 116.292Z" fill="#D18F62"/>
<path d="M17.4905 110.348C17.4082 110.348 17.326 110.307 17.2643 110.245C14.7345 107.674 13.6445 105.885 13.809 104.631C13.8913 104.096 14.1792 103.684 14.6934 103.397L15.0636 103.191C17.326 101.936 18.9919 100.867 18.3132 99.5299C18.2309 99.386 18.1075 99.2831 17.9224 99.242C16.5856 98.8718 13.1714 100.702 11.9786 101.443C11.8963 101.504 11.7729 101.504 11.6906 101.463C11.5878 101.422 11.5261 101.34 11.5055 101.237C11.485 101.175 11.2176 99.53 11.6084 98.2342C11.9169 97.247 13.4388 96.7328 15.3721 96.0747C16.2154 95.7868 17.0792 95.4988 17.9019 95.1286C19.2798 94.5116 19.9174 94.0591 20.082 93.5655C20.2259 93.1336 20.0408 92.5783 19.5061 91.6734C19.3621 91.4266 18.4777 90.8095 13.3154 92.9691C10.4566 94.162 7.70062 95.6222 7.68006 95.6428C7.55665 95.7045 7.39212 95.6839 7.30985 95.5811C7.20702 95.4782 7.20702 95.3137 7.28928 95.1903C7.30985 95.1697 9.34599 92.167 11.8346 89.8223C12.2665 89.411 13.7473 88.5266 15.331 87.6011C16.6678 86.799 18.1898 85.9146 18.4572 85.6267C18.9302 85.1536 18.9302 84.1664 18.4983 83.0352C18.4983 83.0146 18.4572 82.9324 18.2721 82.8912C16.8735 82.5005 11.5055 84.804 7.45382 87.9507C7.30985 88.0536 7.12475 88.033 7.02191 87.889C6.91908 87.7451 6.93965 87.56 7.08361 87.4571C10.6623 84.6806 16.5239 81.7601 18.4366 82.2948C18.8274 82.3976 19.0125 82.6444 19.0742 82.8295C19.6089 84.2281 19.5472 85.4004 18.9096 86.0791C18.6011 86.4082 17.4699 87.0869 15.6395 88.1564C14.2204 88.9996 12.6367 89.9457 12.2459 90.2954C10.724 91.7556 9.34599 93.4627 8.54387 94.5116C9.63392 93.9769 11.3204 93.1542 13.0686 92.4138C18.4983 90.1514 19.6501 90.7273 20.0408 91.3648C20.699 92.4343 20.8841 93.1336 20.699 93.7712C20.4522 94.5939 19.5061 95.1492 18.1898 95.7251C17.3465 96.0953 16.4622 96.4038 15.5984 96.6917C13.9736 97.247 12.431 97.7612 12.2254 98.4605C11.9786 99.2214 12.0197 100.168 12.0814 100.723C13.2743 100.024 16.5239 98.2548 18.1075 98.6867C18.4777 98.7895 18.7245 98.9952 18.8891 99.3037C19.9174 101.278 17.4082 102.677 15.3927 103.787L15.0225 103.993C14.6728 104.178 14.4877 104.445 14.4466 104.775C14.3026 105.782 15.4132 107.51 17.7168 109.875C17.8402 109.999 17.8402 110.204 17.7168 110.307C17.6551 110.328 17.5728 110.348 17.4905 110.348Z" fill="#3F2D1F"/>
<path d="M5.68477 84.6809C5.64363 84.6809 5.62306 84.6809 5.58193 84.6603C5.41739 84.5986 5.33513 84.4135 5.39683 84.2695C5.62307 83.6114 6.17837 82.8093 6.75425 81.966C7.26842 81.205 7.80317 80.4029 8.11167 79.7242C8.58471 78.6547 8.66698 77.8115 7.63863 76.886C7.51523 76.7626 7.49466 76.5775 7.61806 76.4541C7.74147 76.3307 7.92657 76.3101 8.04997 76.4335C9.44853 77.6881 9.16059 78.9427 8.68755 80.0121C8.35848 80.7526 7.80317 81.5547 7.28899 82.3362C6.73368 83.1589 6.21951 83.9404 6.01384 84.5163C5.93157 84.5986 5.80817 84.6809 5.68477 84.6809Z" fill="#3F2D1F"/>
<path d="M5.64387 134.371C8.60551 134.391 10.8679 139.924 20.884 140.274C25.1208 140.418 25.4088 138.875 25.6556 139.06C25.8201 139.184 27.1364 139.595 27.342 140.171C27.9385 141.857 27.1569 145.189 27.0541 145.847C26.9101 146.711 24.5655 147.164 23.8457 150.228C22.735 154.876 18.889 167.628 10.1686 167.443C1.4482 167.258 0.68722 156.131 2.64108 144.593C2.74392 143.996 0.687219 142.988 0.74892 142.392C0.934023 140.438 2.12691 137.003 2.70278 134.823C2.82619 134.371 3.15526 133.98 3.58717 133.795L4.03964 133.589L4.16304 134.371" fill="#0039DC"/>
<path d="M49.8834 68.7416C51.7961 68.6387 53.277 68.1245 55.1074 67.816C55.4159 67.7749 55.7039 67.6721 56.1358 67.6309L56.5677 67.5898C56.8556 67.5487 57.123 67.7749 57.1641 68.0628C56.4648 70.4075 53.4004 71.4564 51.1586 70.8188C50.521 70.6543 48.4026 69.8522 49.1224 68.9472C49.287 68.7416 49.6572 68.7621 49.8834 68.7416Z" fill="white"/>
<path d="M43.0345 57.8202C41.9239 57.8202 41.0396 56.9153 41.0396 55.8047V54.7557C41.0396 53.6451 41.9445 52.7607 43.0551 52.7607C44.1657 52.7607 45.0501 53.6657 45.0501 54.7763V55.8252C45.0501 56.9358 44.1452 57.8202 43.0345 57.8202Z" fill="#201814"/>
<path d="M59.4675 55.4755C58.3569 55.4755 57.4725 54.5706 57.4725 53.4599V52.411C57.4725 51.3004 58.3775 50.416 59.4881 50.416C60.5987 50.416 61.4831 51.321 61.4831 52.4316V53.4805C61.4831 54.5911 60.5782 55.4755 59.4675 55.4755Z" fill="#201814"/>
<path d="M19.5674 57.162C19.5263 57.162 19.5057 57.162 19.4646 57.1414C16.9348 56.2776 14.8164 53.9124 14.076 51.1153C13.4384 48.7501 13.8909 46.4671 15.2895 44.8629C18.2511 41.4694 18.2922 41.0375 18.4568 38.6311L18.4773 38.2815C18.683 35.3815 26.4368 30.2809 26.7658 30.0547C26.9098 29.9518 27.0949 29.993 27.1977 30.137C27.3006 30.2809 27.2594 30.466 27.1155 30.5689C24.9354 31.988 19.2795 36.1631 19.1149 38.302L19.0943 38.6517C18.9092 41.1814 18.8681 41.7162 15.7625 45.2537C14.5079 46.6934 14.1171 48.7706 14.693 50.9302C15.3923 53.5216 17.3462 55.7223 19.6908 56.5244C19.8553 56.5861 19.9376 56.7506 19.8759 56.9152C19.8142 57.0797 19.6908 57.162 19.5674 57.162Z" fill="#3F2D1F"/>
<path d="M86.6159 136.819C86.5747 136.819 86.5336 136.819 86.4925 136.798C86.3279 136.736 86.2457 136.551 86.3279 136.387C87.6236 133.158 87.7059 129.661 86.5953 126C85.7932 123.347 84.3741 120.817 82.3791 118.452C80.3018 116.005 77.2579 112.159 74.6664 107.799C74.5842 107.655 74.6253 107.469 74.7693 107.367C74.9132 107.284 75.1189 107.326 75.2012 107.469C77.7926 111.809 80.7954 115.614 82.8727 118.041C84.9294 120.447 86.3896 123.059 87.2123 125.795C88.3641 129.6 88.2818 133.24 86.9449 136.592C86.8627 136.757 86.7393 136.819 86.6159 136.819Z" fill="white"/>
<path d="M57.1432 114.914C56.4028 114.914 55.6624 114.688 55.0248 114.236C54.4284 113.824 53.7908 113.372 53.1121 112.899C44.8236 107.058 30.9615 97.2679 23.146 88.1979C23.0432 88.0745 23.0432 87.8688 23.1871 87.766C23.3105 87.6632 23.5162 87.6632 23.619 87.8071C31.3934 96.8155 45.2144 106.564 53.4823 112.405C54.161 112.878 54.7986 113.331 55.395 113.763C56.3617 114.441 57.534 114.524 58.5829 113.968C59.6318 113.413 60.2283 112.364 60.1872 111.171C60.002 105.474 58.7269 97.6587 56.5879 89.144C56.5468 88.9794 56.6496 88.8149 56.8142 88.7738C56.9787 88.7326 57.1432 88.8355 57.1844 89C59.3233 97.5559 60.5985 105.412 60.7836 111.151C60.8247 112.57 60.0843 113.845 58.8503 114.524C58.3156 114.77 57.7397 114.914 57.1432 114.914Z" fill="white"/>
<path d="M61.71 122.046C63.731 121.197 64.6773 118.861 63.8237 116.83C62.97 114.798 60.6396 113.84 58.6185 114.689C56.5975 115.539 55.6511 117.874 56.5048 119.905C57.3585 121.937 59.6889 122.895 61.71 122.046Z" fill="#8EBF30"/>
<path d="M23.0026 152.799C22.982 152.799 22.9409 152.799 22.9203 152.778C22.7558 152.737 22.6529 152.552 22.6941 152.388C24.072 147.452 25.594 146.547 26.4167 146.053C26.6635 145.909 26.7663 145.847 26.7663 145.765C26.7869 145.683 26.8075 145.559 26.828 145.395C27.0337 144.367 27.5479 141.652 27.0543 140.253C26.9514 139.945 26.1699 139.616 25.8408 139.472C25.7585 139.43 25.6968 139.41 25.6351 139.389C25.6351 139.389 25.6351 139.389 25.6146 139.41C25.1827 139.801 24.1954 140.685 20.8636 140.582C14.3233 140.377 10.9503 137.888 8.72906 136.263C7.47448 135.358 6.5901 134.68 5.62345 134.68C5.45891 134.68 5.31494 134.536 5.31494 134.371C5.31494 134.206 5.45891 134.062 5.62345 134.062C6.7752 134.062 7.80355 134.823 9.0787 135.77C11.3616 137.456 14.5084 139.76 20.8636 139.965C23.9281 140.068 24.833 139.266 25.1621 138.957C25.2855 138.834 25.5323 138.628 25.7997 138.813C25.8202 138.834 25.9436 138.875 26.0259 138.916C26.7046 139.204 27.4039 139.554 27.589 140.068C28.1443 141.611 27.6096 144.367 27.3833 145.539C27.3628 145.703 27.3216 145.827 27.3216 145.909C27.2599 146.279 26.972 146.444 26.6635 146.629C25.9642 147.04 24.5451 147.884 23.2288 152.593C23.2699 152.717 23.1465 152.799 23.0026 152.799Z" fill="white"/>
<path d="M127.73 119.459C127.647 119.459 127.565 119.418 127.503 119.357C127.38 119.233 127.38 119.028 127.503 118.925L130.732 115.799L125.447 117.794C125.303 117.855 125.159 117.794 125.076 117.67C125.035 117.588 120.305 109.896 120.86 100.908C120.881 100.744 121.004 100.6 121.189 100.62C121.354 100.641 121.498 100.785 121.477 100.949C120.984 108.888 124.727 115.819 125.467 117.115L131.905 114.688C132.049 114.626 132.193 114.688 132.275 114.811C132.357 114.935 132.337 115.099 132.234 115.202L127.935 119.377C127.894 119.439 127.812 119.459 127.73 119.459Z" fill="white"/>
<path d="M35.3217 190.477C35.5272 190.21 35.7328 189.922 35.9178 189.614C35.7328 189.922 35.5272 190.189 35.3217 190.477Z" fill="#F1F5FB"/>
<path d="M36.4116 181.798C36.391 181.654 36.391 181.531 36.3705 181.408C36.3705 181.531 36.391 181.675 36.4116 181.798Z" fill="#F1F5FB"/>
<path d="M36.2679 180.811C36.2473 180.667 36.2062 180.523 36.1857 180.379C36.2062 180.544 36.2473 180.688 36.2679 180.811Z" fill="#F1F5FB"/>
<path d="M36.4322 182.313C36.4322 182.169 36.4116 182.025 36.4116 181.881C36.4322 182.025 36.4322 182.169 36.4322 182.313Z" fill="#F1F5FB"/>
<path d="M35.2805 178.034C35.2188 177.911 35.1572 177.808 35.075 177.685C35.1366 177.808 35.2188 177.911 35.2805 178.034Z" fill="#F1F5FB"/>
<path d="M36.165 180.358C36.1239 180.214 36.1034 180.091 36.0623 179.947C36.1034 180.091 36.1445 180.235 36.165 180.358Z" fill="#F1F5FB"/>
<path d="M35.3009 178.096C35.3626 178.22 35.4242 178.363 35.4859 178.487C35.4448 178.343 35.3626 178.22 35.3009 178.096Z" fill="#F1F5FB"/>
<path d="M36.4324 183.3C36.4324 183.156 36.4529 183.012 36.4529 182.868C36.4324 183.012 36.4324 183.156 36.4324 183.3Z" fill="#F1F5FB"/>
<path d="M35.507 186.857C35.5686 186.714 35.6303 186.57 35.692 186.405C35.6508 186.57 35.5892 186.714 35.507 186.857Z" fill="#F1F5FB"/>
<path d="M35.7329 186.344C35.7946 186.2 35.8357 186.056 35.8974 185.912C35.8562 186.056 35.7946 186.2 35.7329 186.344Z" fill="#F1F5FB"/>
<path d="M36.309 184.328C36.3295 184.184 36.3501 184.04 36.3706 183.917C36.3501 184.061 36.3295 184.184 36.309 184.328Z" fill="#F1F5FB"/>
<path d="M35.877 178.94C36.494 179.886 36.9465 180.935 37.1933 182.025C36.9259 180.935 36.4734 179.886 35.877 178.94Z" fill="#F1F5FB"/>
<path d="M36.2882 184.369C36.2676 184.513 36.2265 184.657 36.2059 184.821C36.247 184.677 36.2676 184.534 36.2882 184.369Z" fill="#F1F5FB"/>
<path d="M36.0618 185.418C36.0207 185.562 35.9796 185.686 35.9385 185.83C35.9796 185.686 36.0207 185.542 36.0618 185.418Z" fill="#F1F5FB"/>
<path d="M36.4116 183.403C36.391 183.547 36.391 183.691 36.3705 183.834C36.391 183.691 36.4116 183.547 36.4116 183.403Z" fill="#F1F5FB"/>
<path d="M35.8973 179.475C35.9384 179.618 35.9796 179.742 36.0207 179.886C36.0001 179.742 35.959 179.598 35.8973 179.475Z" fill="#F1F5FB"/>
<path d="M35.0338 177.623C34.9927 177.562 34.9515 177.5 34.9104 177.438C34.643 177.006 34.3345 176.595 33.9849 176.204C33.9849 176.184 33.9643 176.184 33.9643 176.163C33.8821 176.081 33.7998 175.999 33.7381 175.896C33.7175 175.875 33.697 175.855 33.6764 175.834C33.4502 175.587 33.2034 175.361 32.936 175.135C32.8948 175.094 32.8537 175.073 32.8126 175.032C32.7509 174.97 32.6686 174.929 32.6069 174.867C32.5452 174.826 32.5041 174.785 32.4424 174.744C32.3807 174.703 32.319 174.641 32.2573 174.6C32.175 174.538 32.1133 174.497 32.031 174.456C31.9693 174.415 31.9282 174.374 31.8665 174.353C31.7431 174.271 31.6197 174.189 31.4757 174.106C31.4346 174.086 31.3729 174.045 31.3318 174.024C31.2289 173.962 31.1467 173.921 31.0438 173.86C30.9821 173.839 30.941 173.798 30.8793 173.777C30.7764 173.736 30.6736 173.674 30.5708 173.633C30.5296 173.613 30.4679 173.592 30.4268 173.572C30.2828 173.51 30.1183 173.428 29.9743 173.366C28.7814 172.872 27.5269 172.626 26.2928 172.564C26.0872 172.564 25.8815 172.543 25.6758 172.564C25.3468 172.564 25.0383 172.584 24.7092 172.605C24.3595 172.646 24.0099 172.687 23.6603 172.749C23.1461 172.852 22.6319 172.975 22.1383 173.14C21.6447 173.304 21.1511 173.51 20.6986 173.736C19.3001 174.415 18.0455 175.402 17.0377 176.616C16.4824 177.294 16.0093 178.035 15.6186 178.857C15.5569 179.001 15.4952 179.145 15.4335 179.289C15.4129 179.33 15.4129 179.351 15.3923 179.392C15.3306 179.536 15.2895 179.68 15.2278 179.824C15.2278 179.845 15.2072 179.886 15.2072 179.906C15.1661 180.03 15.125 180.174 15.0838 180.297C15.0838 180.318 15.0633 180.338 15.0633 180.359C15.0221 180.503 14.981 180.647 14.9604 180.791C14.9604 180.832 14.9399 180.852 14.9399 180.893C14.8987 181.037 14.8782 181.181 14.8576 181.325C14.8576 181.346 14.8576 181.367 14.8576 181.387C14.837 181.51 14.8165 181.654 14.7959 181.778C14.7959 181.819 14.7959 181.86 14.7753 181.881C14.7548 182.025 14.7548 182.169 14.7342 182.292C14.7342 182.333 14.7342 182.374 14.7342 182.415C14.7342 182.539 14.7136 182.662 14.7136 182.765C14.7136 182.806 14.7136 182.827 14.7136 182.868C14.7136 183.012 14.7136 183.135 14.7136 183.279C14.7136 183.32 14.7136 183.382 14.7136 183.423C14.7136 183.547 14.7342 183.691 14.7342 183.814C14.7342 183.855 14.7342 183.896 14.7548 183.937C14.7548 184.04 14.7753 184.143 14.7959 184.225C14.7959 184.287 14.8165 184.328 14.8165 184.39C14.837 184.513 14.8576 184.637 14.8782 184.76C14.8987 184.822 14.8987 184.883 14.9193 184.925C14.9399 185.007 14.9604 185.11 14.981 185.192C15.0016 185.274 15.0221 185.357 15.0427 185.418C15.0633 185.5 15.0838 185.583 15.1044 185.686C15.125 185.747 15.1455 185.809 15.1661 185.871C15.2072 185.974 15.2278 186.076 15.2689 186.179C15.2895 186.241 15.3101 186.323 15.3512 186.385C15.3718 186.447 15.3923 186.529 15.4335 186.591C15.454 186.673 15.4952 186.734 15.5157 186.817C15.5569 186.899 15.598 187.002 15.6391 187.084C15.6597 187.146 15.7008 187.208 15.742 187.29C15.7625 187.352 15.8037 187.413 15.8448 187.475C15.8859 187.578 15.9476 187.681 16.0093 187.763C16.0505 187.825 16.071 187.886 16.1122 187.927C16.1533 187.989 16.1944 188.051 16.2356 188.112C16.2973 188.215 16.359 188.318 16.4207 188.421C16.4412 188.462 16.4824 188.503 16.503 188.544C16.5647 188.627 16.6264 188.729 16.6881 188.812C16.7086 188.853 16.7498 188.894 16.7703 188.935C16.8526 189.038 16.9349 189.141 17.0171 189.244C17.0377 189.264 17.0377 189.285 17.0583 189.305C17.1611 189.429 17.2639 189.532 17.3668 189.655C17.3873 189.696 17.4285 189.717 17.449 189.758C17.5313 189.84 17.6136 189.922 17.6753 190.005C17.7164 190.046 17.737 190.066 17.7781 190.107C17.8604 190.19 17.9426 190.272 18.0455 190.354C18.066 190.375 18.1072 190.395 18.1277 190.437C18.2511 190.539 18.354 190.642 18.4774 190.745C18.4979 190.766 18.5391 190.786 18.5597 190.807C18.6625 190.889 18.7448 190.951 18.8476 191.033C18.8887 191.054 18.9299 191.095 18.971 191.115C19.0738 191.177 19.1561 191.259 19.2589 191.321C19.3001 191.341 19.3206 191.362 19.3618 191.403C19.4852 191.485 19.6291 191.568 19.7731 191.65C19.7937 191.671 19.8142 191.671 19.8348 191.691C19.9582 191.753 20.061 191.835 20.1844 191.897C20.2256 191.917 20.2667 191.938 20.3284 191.959C20.4312 192.02 20.5341 192.061 20.6575 192.123C20.6986 192.144 20.7398 192.164 20.8015 192.185C20.9454 192.246 21.11 192.329 21.2539 192.39C26.7453 194.612 33.1622 192.144 35.5891 186.899C35.6508 186.755 35.7125 186.611 35.7742 186.447C35.7948 186.426 35.7948 186.385 35.8154 186.364C35.8771 186.22 35.9182 186.076 35.9799 185.932C35.9799 185.912 36.0005 185.871 36.0005 185.85C36.0416 185.706 36.0827 185.583 36.1239 185.439C36.1239 185.418 36.1444 185.398 36.1444 185.377C36.1856 185.233 36.2267 185.089 36.2678 184.945C36.2678 184.904 36.2884 184.883 36.2884 184.842C36.3295 184.698 36.3501 184.554 36.3707 184.39C36.3707 184.369 36.3707 184.369 36.3707 184.349C36.3912 184.205 36.4118 184.061 36.4324 183.937C36.4324 183.917 36.4324 183.876 36.4529 183.855C36.4735 183.711 36.4941 183.567 36.4941 183.423C36.4941 183.403 36.4941 183.362 36.4941 183.341C36.4941 183.197 36.5146 183.053 36.5146 182.909V182.888C36.5146 182.744 36.5146 182.601 36.5146 182.436C36.5146 182.395 36.5146 182.374 36.5146 182.333C36.5146 182.189 36.4941 182.045 36.4941 181.901C36.4941 181.881 36.4941 181.86 36.4941 181.84C36.4735 181.696 36.4735 181.572 36.4529 181.449C36.4529 181.428 36.4529 181.408 36.4529 181.387C36.4324 181.243 36.4118 181.099 36.3912 180.955C36.3912 180.935 36.3707 180.893 36.3707 180.873C36.3501 180.729 36.309 180.585 36.2884 180.441V180.42C36.2473 180.276 36.2267 180.153 36.1856 180.009C36.1856 179.989 36.165 179.947 36.165 179.927C36.1239 179.783 36.0827 179.659 36.0416 179.515C36.0416 179.495 36.021 179.454 36.021 179.433C35.9799 179.31 35.9182 179.166 35.8771 179.042C35.8771 179.022 35.8771 179.022 35.8565 179.001C35.7948 178.857 35.7331 178.734 35.6714 178.611C35.6508 178.59 35.6508 178.549 35.6303 178.528C35.5686 178.405 35.5069 178.261 35.4452 178.137C35.4452 178.117 35.4246 178.096 35.4246 178.076C35.3629 177.952 35.3012 177.85 35.2189 177.726C35.0544 177.664 35.0544 177.644 35.0338 177.623Z" fill="#AAE95C"/>
<path d="M16.4205 188.585C16.4822 188.668 16.5439 188.771 16.6056 188.853C16.6261 188.894 16.6673 188.935 16.6878 188.976C16.7701 189.079 16.8524 189.182 16.9346 189.285C16.9552 189.305 16.9552 189.326 16.9758 189.346C17.0786 189.47 17.1814 189.573 17.2843 189.696C17.3048 189.737 17.346 189.758 17.3665 189.799C17.4488 189.881 17.5311 189.963 17.5928 190.046C17.6339 190.087 17.6545 190.107 17.6956 190.149C17.7779 190.231 17.8602 190.313 17.963 190.395C17.9836 190.416 18.0247 190.436 18.0453 190.478C18.1687 190.58 18.2715 190.683 18.3949 190.786C18.4155 190.807 18.4566 190.827 18.4772 190.848C18.58 190.93 18.6623 190.992 18.7651 191.074C18.8062 191.095 18.8474 191.136 18.8885 191.156C18.9913 191.218 19.0736 191.3 19.1764 191.362C19.2176 191.383 19.2381 191.403 19.2793 191.444C19.4027 191.526 19.5466 191.609 19.6906 191.691C19.7112 191.712 19.7318 191.712 19.7523 191.732C19.8757 191.794 19.9786 191.876 20.102 191.938C20.1431 191.958 20.1842 191.979 20.2459 192C20.3488 192.061 20.4516 192.102 20.575 192.164C20.6161 192.185 20.6573 192.205 20.719 192.226C20.8629 192.287 21.0275 192.37 21.1714 192.431C26.6628 194.653 33.0797 192.185 35.5066 186.94C35.5683 186.796 35.63 186.652 35.6917 186.488C35.7123 186.467 35.7123 186.426 35.7329 186.405C35.7946 186.261 35.8357 186.117 35.8974 185.973C35.8974 185.953 35.918 185.912 35.918 185.891C35.9591 185.747 36.0002 185.624 36.0414 185.48C36.0414 185.459 36.0619 185.439 36.0619 185.418C36.1031 185.274 36.1442 185.13 36.1853 184.986C36.1853 184.945 36.2059 184.924 36.2059 184.883C36.2471 184.739 36.2676 184.595 36.2882 184.431C36.2882 184.41 36.2882 184.41 36.2882 184.39C36.3088 184.246 36.3293 184.102 36.3499 183.978C36.3499 183.958 36.3499 183.917 36.3705 183.896C36.391 183.752 36.4116 183.608 36.4116 183.464C36.4116 183.444 36.4116 183.403 36.4116 183.382C36.4116 183.238 36.4322 183.094 36.4322 182.95V182.929C36.4322 182.786 36.4322 182.642 36.4322 182.477C36.4322 182.436 36.4322 182.415 36.4322 182.374C36.4322 182.23 36.4116 182.086 36.4116 181.942C36.4116 181.922 36.4116 181.901 36.4116 181.881C36.391 181.737 36.391 181.613 36.3705 181.49C36.3705 181.469 36.3705 181.449 36.3705 181.428C36.3499 181.284 36.3293 181.14 36.3088 180.996C36.3088 180.976 36.2882 180.935 36.2882 180.914C36.2676 180.77 36.2265 180.626 36.2059 180.482V180.461C36.1648 180.317 36.1442 180.194 36.1031 180.05C36.1031 180.03 36.0825 179.988 36.0825 179.968C36.0414 179.824 36.0002 179.7 35.9591 179.557C35.9591 179.536 35.9385 179.495 35.9385 179.474C35.8974 179.351 35.8357 179.207 35.7946 179.083C35.7946 179.063 35.7946 179.063 35.774 179.042C35.7123 178.898 35.6506 178.775 35.5889 178.652C35.5683 178.631 35.5683 178.59 35.5478 178.569C35.4861 178.446 35.4244 178.302 35.3627 178.179C35.3627 178.158 35.3421 178.137 35.3421 178.117C35.2804 177.993 35.2187 177.891 35.1364 177.767C35.1159 177.747 35.1159 177.726 35.0953 177.705C35.0336 177.603 34.9719 177.5 34.9102 177.397L35.9385 179.001C36.5556 179.947 37.008 180.996 37.2548 182.086C37.3782 182.559 37.4399 183.032 37.4811 183.526C37.4811 183.567 37.4811 183.608 37.5016 183.649C37.625 185.274 37.3371 186.94 36.5967 188.544C36.4116 188.956 36.2059 189.326 35.9591 189.696C35.774 189.984 35.5683 190.272 35.3627 190.56C34.9719 191.053 34.5606 191.506 34.0875 191.938C33.9641 192.061 33.8201 192.164 33.6967 192.287C32.689 193.11 31.5578 193.748 30.3238 194.2C30.1798 194.241 30.0358 194.303 29.9124 194.344C28.3082 194.858 26.5806 195.023 24.8735 194.776C24.5239 194.735 24.1742 194.653 23.8246 194.57C23.2898 194.447 22.7757 194.282 22.2615 194.077C22.1381 194.015 21.9941 193.974 21.8707 193.912C21.4799 193.748 21.1097 193.542 20.7601 193.336C19.4644 192.575 18.4155 191.568 17.5928 190.416C17.5105 190.313 17.4488 190.21 17.3871 190.107L16.3588 188.503C16.3793 188.524 16.3793 188.544 16.3999 188.565C16.3793 188.503 16.3999 188.544 16.4205 188.585Z" fill="#0030B9"/>
<path d="M26.6422 177.171C26.6422 177.13 26.6217 177.089 26.56 177.089L25.2642 176.904C25.2231 176.904 25.182 176.924 25.182 176.966L25.0586 178.302C23.1664 178.282 21.9118 179.187 21.7884 180.688C21.6239 182.621 23.3721 183.341 24.5855 183.794L24.421 185.768C23.5572 185.542 22.7139 185.11 22.1175 184.555L22.0558 184.534L21.9941 184.575L21.1508 186.015C21.1303 186.056 21.1303 186.097 21.1714 186.118C21.8296 186.755 23.0224 187.331 24.2565 187.578L24.1331 188.894C24.1331 188.935 24.1742 188.977 24.2153 188.997L25.511 189.182C25.5316 189.182 25.5316 189.182 25.5522 189.182C25.5727 189.162 25.5933 189.141 25.5933 189.121L25.7167 187.763C27.5883 187.784 28.8429 186.879 28.9663 185.398C29.1308 183.609 27.6911 182.889 26.1898 182.333L26.3543 180.338C26.4366 180.359 26.5188 180.38 26.5805 180.4C26.6628 180.421 26.7245 180.462 26.8068 180.482C26.9507 180.544 27.1153 180.606 27.2592 180.688C27.5677 180.832 27.8557 181.017 28.1436 181.223L28.2053 181.243L28.267 181.202L29.0486 179.721C29.0691 179.68 29.0486 179.639 29.028 179.619C28.3904 179.104 27.506 178.714 26.5188 178.487L26.6422 177.171ZM25.8812 185.912L26.0047 184.37C26.5188 184.637 26.7245 184.904 26.7039 185.233C26.6834 185.624 26.3954 185.85 25.8812 185.912ZM24.7706 181.778C24.2359 181.511 24.0097 181.243 24.0508 180.914C24.0919 180.503 24.3799 180.256 24.9146 180.195L24.7706 181.778Z" fill="white"/>
<path d="M97.4878 198.129C97.0359 198.129 96.5841 197.985 96.1938 197.739L54.3767 170.135C53.4525 169.518 53.206 167.875 53.3703 166.479C53.1855 165.411 53.74 164.363 54.7259 163.932L106.607 141.216L109.154 127.003C109.298 126.14 109.914 125.463 110.735 125.196L178.308 103.219C178.555 103.137 178.801 103.096 179.048 103.096C179.849 103.096 180.588 103.506 181.019 104.184C181.944 104.78 182.313 105.93 181.923 106.978L162.165 159.803C161.98 160.317 161.61 160.748 161.138 161.015L159.269 162.124C159.145 162.823 158.755 163.418 158.139 163.767L98.679 197.821C98.3093 198.026 97.8986 198.129 97.4878 198.129Z" fill="#0030B9"/>
<path d="M179.089 103.671C179.746 103.671 180.342 104.061 180.629 104.595C181.328 104.985 181.759 105.868 181.431 106.752L161.672 159.577C161.528 159.968 161.261 160.276 160.892 160.481L158.694 161.734C158.673 162.309 158.406 162.884 157.811 163.233L98.3509 197.287C98.0839 197.451 97.7758 197.513 97.4677 197.513C97.1391 197.513 96.7899 197.41 96.5024 197.225L54.7058 169.641C54.028 169.19 53.8021 167.731 53.9664 166.458C53.8021 165.677 54.1513 164.815 54.9728 164.466L107.141 141.627L109.75 127.106C109.873 126.469 110.325 125.935 110.941 125.75L178.514 103.773C178.719 103.712 178.904 103.671 179.089 103.671ZM179.089 102.5C178.781 102.5 178.473 102.541 178.165 102.644L110.592 124.62C109.565 124.949 108.805 125.832 108.62 126.9L106.115 140.805L54.5209 163.398C53.2886 163.932 52.6108 165.185 52.7957 166.499C52.6314 167.957 52.8778 169.847 54.0691 170.627L95.8862 198.232C96.3586 198.54 96.9337 198.725 97.5088 198.725C98.0222 198.725 98.5152 198.581 98.967 198.334L158.427 164.281C159.105 163.891 159.598 163.254 159.803 162.515L161.508 161.549C162.103 161.2 162.555 160.666 162.802 160.029L182.56 107.203C183.033 105.951 182.601 104.554 181.513 103.794C180.938 102.972 180.054 102.5 179.089 102.5Z" fill="white"/>
<path d="M96.5227 197.246L54.7056 169.642C53.5348 168.882 53.6992 165.02 54.9726 164.466L114.925 140.312C115.398 140.107 115.932 140.107 116.384 140.333L157.687 160.132C158.961 160.748 159.043 162.535 157.811 163.254L98.3506 197.308C97.7961 197.636 97.0772 197.616 96.5227 197.246Z" fill="#080E3F"/>
<path d="M96.5229 195.151L54.7263 167.546C53.5556 166.787 53.7199 165.02 54.9933 164.466L114.967 138.217C115.439 138.012 115.973 138.012 116.425 138.238L157.729 158.037C159.002 158.653 159.084 160.44 157.852 161.159L98.3919 195.212C97.7963 195.541 97.0774 195.52 96.5229 195.151Z" fill="#001074"/>
<path d="M100.158 192.173L70.9931 173.852C70.0483 173.236 70.1715 171.798 71.1985 171.346L120.019 149.986C120.41 149.822 120.841 149.822 121.211 150.007L140.024 159.228C141.072 159.721 100.61 192.46 100.158 192.173Z" fill="#0030B9"/>
<path d="M113.077 160.749L96.5021 149.801C96.0503 149.493 96.0913 148.795 96.6048 148.569L120.389 138.156C120.574 138.074 120.779 138.074 120.964 138.156L137.333 146.002C137.847 146.248 137.867 146.967 137.374 147.234L113.796 160.728C113.57 160.892 113.282 160.892 113.077 160.749Z" fill="#0030B9"/>
<path d="M160.193 159.804L100.713 193.878C99.4187 194.617 97.8372 193.508 98.1042 192.029L109.77 127.106C109.894 126.469 110.345 125.935 110.962 125.75L178.534 103.774C179.931 103.322 181.245 104.677 180.732 106.074L160.974 158.9C160.83 159.27 160.563 159.598 160.193 159.804Z" fill="#0030B9"/>
<path d="M160.891 160.502L101.41 194.576C100.116 195.315 98.535 194.206 98.802 192.727L110.468 127.824C110.591 127.188 111.043 126.654 111.659 126.469L179.232 104.492C180.629 104.04 181.943 105.396 181.43 106.793L161.671 159.619C161.528 159.988 161.261 160.296 160.891 160.502Z" fill="#080E3F"/>
<path d="M100.528 195.11C100.117 195.11 99.7061 194.987 99.3364 194.72C98.6791 194.247 98.3505 193.467 98.4943 192.666L110.16 127.763C110.304 127.003 110.838 126.387 111.557 126.182L179.13 104.205C179.89 103.959 180.691 104.164 181.245 104.739C181.8 105.314 181.964 106.136 181.697 106.896L161.939 159.722C161.774 160.173 161.446 160.523 161.035 160.749L101.555 194.823C101.246 195.007 100.877 195.11 100.528 195.11ZM179.787 104.698C179.643 104.698 179.479 104.719 179.315 104.78L111.742 126.757C111.228 126.901 110.859 127.352 110.756 127.886L99.0899 192.789C98.9872 193.364 99.2131 193.919 99.6855 194.247C100.158 194.576 100.754 194.617 101.267 194.33L160.748 160.256C161.056 160.091 161.282 159.824 161.405 159.516L181.163 106.69C181.369 106.136 181.245 105.561 180.835 105.15C180.547 104.862 180.177 104.698 179.787 104.698Z" fill="black"/>
</g>
<defs>
<linearGradient id="paint0_linear_274_33075" x1="2.70939" y1="108.492" x2="95.3502" y2="162.57" gradientUnits="userSpaceOnUse">
<stop offset="0.0335196" stop-color="#A2704C"/>
<stop offset="0.0421492" stop-color="#A5724E"/>
<stop offset="0.1032" stop-color="#B97F57"/>
<stop offset="0.1734" stop-color="#C7885D"/>
<stop offset="0.2611" stop-color="#CF8D61"/>
<stop offset="0.419" stop-color="#D18F62"/>
</linearGradient>
<clipPath id="clip0_274_33075">
<rect width="183" height="200" fill="white"/>
</clipPath>
</defs>
</svg>
