<svg width="225" height="200" viewBox="0 0 225 200" fill="none" xmlns="http://www.w3.org/2000/svg">
<g clip-path="url(#clip0_274_1092)">
<path d="M203.021 84.5609L180.363 88.7355L178.27 26.9247L107.663 76.9038L56.6978 11.8047" stroke="#A7E35D" stroke-width="5" stroke-linecap="round" stroke-linejoin="round"/>
<path d="M202.497 82.3364C203.735 82.1082 204.928 82.929 205.156 84.1676C205.384 85.4061 204.563 86.5985 203.325 86.8268C202.086 87.0551 200.894 86.2342 200.666 84.9957C200.437 83.7571 201.258 82.5647 202.497 82.3364Z" fill="#A7E35D"/>
<path d="M58.575 10.5008C57.7979 9.50753 56.3626 9.33267 55.3693 10.1098C54.3761 10.8869 54.2012 12.3222 54.9783 13.3155C55.7555 14.3087 57.1907 14.4836 58.184 13.7065C59.1773 12.9293 59.3521 11.4941 58.575 10.5008Z" fill="white"/>
<path d="M58.813 10.3138C59.6921 11.4358 59.493 13.0654 58.371 13.9445C57.249 14.8236 55.6195 14.6245 54.7404 13.5025C53.8612 12.3805 54.0604 10.751 55.1824 9.87184C56.3043 8.99271 57.9339 9.19185 58.813 10.3138C59.6921 11.4358 57.9339 9.19185 58.813 10.3138ZM55.2188 13.1285C55.8915 13.9882 57.1373 14.1388 57.997 13.4661C58.8567 12.7934 59.0073 11.5475 58.3346 10.6878C57.6619 9.82813 56.4161 9.67756 55.5564 10.3503C54.6967 11.023 54.5461 12.2688 55.2188 13.1285C55.8915 13.9882 54.5461 12.2688 55.2188 13.1285Z" fill="#A7E35D"/>
<path d="M163.856 156.904L134.887 189.386C134.887 189.386 75.9826 180.66 58.4657 173.564C40.9487 166.465 15.7552 138.933 15.7552 138.933C12.3601 131.385 9.74943 123.408 8.03003 115.097L34.2654 109.41L68.4129 121.783C68.4129 121.783 163.499 156.768 163.859 156.904H163.856Z" fill="#0030B9"/>
<path d="M75.1813 159.42L111.291 152.851L126.661 164.379L109.074 177.28L78.0955 174.586L75.1813 159.42Z" fill="#00289B" stroke="#0080ED" stroke-linecap="round" stroke-linejoin="round"/>
<path d="M146.512 157.98L127.999 152.846L96.766 172.129L129.561 177.284L146.512 157.98Z" fill="#0039DC" stroke="#0080ED" stroke-linecap="round" stroke-linejoin="round"/>
<path d="M10.6748 131.714C10.6748 131.714 10.6748 131.702 10.6724 131.697Z" fill="white"/>
<path d="M215.851 131.252C214.938 133.681 216.206 136.216 214.008 143.138C211.81 150.061 198.983 158.1 198.983 158.1C193.752 162.709 200.899 162.821 199 165.067C194.648 170.213 189.395 174.157 186.609 176.282C166.355 191.742 140.892 200.655 113.435 199.963C67.9783 198.816 29.2991 171.636 11.294 133.052C10.5606 131.481 10.2935 129.72 10.6359 128.02C11.0123 126.165 12.0712 124.37 14.2981 123.318C17.5062 121.801 21.115 121.305 33.2212 136.554C42.707 148.5 49.3806 142.9 52.3337 138.951C54.3227 136.289 56.7075 136.828 57.4627 140.838C57.6449 141.799 57.8222 142.771 57.98 143.64C58.1403 144.519 59.2161 144.838 59.85 144.209C61.431 142.645 64.4399 144.466 72.3958 144.043C98.3033 142.664 78.7342 169.599 114.011 169.103C136.336 168.79 124.675 152.852 149.215 145.981C162.47 142.271 168.517 153.66 170.083 152.793C171.65 151.926 171.713 148.058 170.035 146.292C169.071 145.28 159.184 135.043 168.323 125.421C177.461 115.797 186.58 121.781 189.057 124.877C191.537 127.979 192.367 126.772 194.206 127.673C196.049 128.571 197.853 133.037 205.472 132.964C213.09 132.889 216.4 122.107 215.927 113.412C215.453 104.718 217.77 105.736 217.77 105.736C217.77 105.736 219.858 107.387 221.184 113.971C222.51 120.557 216.762 128.829 215.849 131.255L215.851 131.252Z" fill="white"/>
<path d="M209.591 98.3701C211.958 98.3701 213.877 96.451 213.877 94.0837C213.877 91.7164 211.958 89.7974 209.591 89.7974C207.223 89.7974 205.304 91.7164 205.304 94.0837C205.304 96.451 207.223 98.3701 209.591 98.3701Z" fill="white"/>
<path d="M84.6162 8.16956C86.8721 8.16956 88.7009 6.34074 88.7009 4.08478C88.7009 1.82882 86.8721 0 84.6162 0C82.3602 0 80.5314 1.82882 80.5314 4.08478C80.5314 6.34074 82.3602 8.16956 84.6162 8.16956Z" fill="white"/>
<path d="M221.551 99.5622C222.491 100.427 224.388 94.5838 224.49 93.3914C225.366 83.1745 224.201 59.1686 219.902 50.4161C216.781 44.0607 221.019 71.6488 220.587 77.4505C220.174 82.99 216.548 86.6546 220.162 94.5959C220.949 96.325 221.279 99.3121 221.551 99.5622Z" fill="white"/>
<path d="M185.915 149.398C188.981 149.398 191.466 146.913 191.466 143.847C191.466 140.78 188.981 138.295 185.915 138.295C182.849 138.295 180.363 140.78 180.363 143.847C180.363 146.913 182.849 149.398 185.915 149.398Z" fill="#F1F5FB"/>
<path d="M11.3815 58.542C-0.348314 53.2065 -3.4204 74.2691 5.06487 82.2662C13.5501 90.2634 -6.95391 103.156 8.44052 116.555C18.3975 125.22 55.3184 95.8611 48.3242 85.365C41.3276 74.8689 34.5156 64.6546 42.894 60.7471C59.3594 53.0681 59.0122 36.8746 43.4332 27.8284C31.4921 20.8949 25.2338 32.6247 24.4081 45.6416C23.58 58.6585 21.574 63.1804 11.379 58.542H11.3815Z" fill="white"/>
<path d="M119.873 109.281C119.873 109.281 114.81 104.407 115.614 102.805C116.418 101.207 118.225 90.3802 119.342 89.166C120.077 88.1363 119.995 87.3446 120.558 86.8176C120.434 86.327 121.411 82.9028 122.708 80.7171C123.06 80.552 123.332 80.45 123.502 80.4257C123.502 80.4257 130.588 77.5527 130.756 80.6953C130.821 81.9338 131.203 82.9781 131.725 83.8936C132.019 84.4036 132.354 84.8723 132.706 85.3095C134.144 87.092 135.846 88.3573 135.822 89.7852C133.986 90.8562 131.686 91.7013 131.686 91.7013C131.686 91.7013 131.679 91.7086 131.666 91.728C131.521 91.9515 130.493 93.513 130.115 93.9599L129.075 95.4558C128.179 97.491 124.563 103.402 124.493 105.622C124.42 107.841 119.864 109.281 119.864 109.281H119.873Z" fill="#DEEEB1" stroke="white" stroke-linecap="round" stroke-linejoin="round"/>
<path d="M136.285 69.8107C137.228 75.3137 133.949 83.612 129.388 82.1597C124.825 80.7099 132.72 93.3188 140.696 91.172C148.671 89.0252 150.752 74.8838 154.514 68.7081C158.276 62.5324 136.285 69.8107 136.285 69.8107Z" fill="url(#paint0_linear_274_1092)"/>
<path d="M83.006 81.8096C87.3628 87.082 89.7112 101.384 97.8467 105.196C101.463 106.891 125.505 97.5295 126.686 96.8471C127.866 96.1646 132.067 80.0902 120.422 84.1119C115.893 85.6758 103.566 93.8721 101.045 93.3233C99.4447 88.7625 92.3607 82.0428 90.005 78.23C88.0646 76.3794 87.6688 73.0014 83.839 71.2528C80.0092 69.5043 79.5988 69.6306 78.6687 69.1594C77.7385 68.6883 74.1346 65.6162 73.3551 67.3332C72.5731 69.0501 75.6087 71.2237 76.5121 71.5151C77.4156 71.8065 78.4647 72.6274 77.4131 72.7901C76.3616 72.9504 75.9924 73.7445 74.341 72.5861C72.6896 71.4277 72.8548 71.7094 72.4031 71.163C71.9514 70.619 70.3753 68.341 68.7093 68.5984C68.3207 68.6591 68.107 69.0866 68.2503 69.4533C68.8914 71.0877 70.4821 75.1336 70.776 75.7723C71.1451 76.5761 71.9829 76.4329 72.2914 76.853C72.6022 77.2731 74.0083 78.0405 74.9676 78.6914C75.9269 79.3422 77.0294 80.5249 77.9523 80.9354C78.8751 81.3458 81.7602 80.9086 83.0036 81.8096H83.006Z" fill="#D18F62"/>
<path d="M79.2078 78.689C76.8036 76.6296 76.8934 75.2041 75.8273 75.0608C74.7612 74.9175 74.2366 75.1045 75.1376 76.5713C76.0386 78.0382 76.8789 80.2335 76.8789 80.2335" stroke="#3F2D1F" stroke-linecap="round" stroke-linejoin="round"/>
<path d="M72.2938 76.8508C71.1403 74.0605 69.8532 72.5353 69.8386 72.0472C69.824 71.5591 71.5774 71.1657 72.6071 72.6058C73.6368 74.0435 74.2415 74.381 74.2415 74.381" stroke="#3F2D1F" stroke-linecap="round" stroke-linejoin="round"/>
<path d="M68.4252 69.8905C69.4136 69.2858 70.504 69.5724 71.8372 71.8965" stroke="#3F2D1F" stroke-linecap="round" stroke-linejoin="round"/>
<path d="M123.091 80.6417C121.284 80.8797 108.401 89.9381 107.469 90.4432C107.337 90.5136 107.201 90.4626 106.82 89.9988C106.439 89.5349 101.077 92.6993 100.921 92.998C100.766 93.2967 113.732 114.823 117.355 115.054C120.617 115.263 141.626 99.2976 145.009 93.797C155.534 76.6856 138.661 86.4167 135.822 85.115C134.005 84.282 134.263 83.7963 134.005 78.9854C133.838 75.8453 123.089 80.6392 123.089 80.6392L123.091 80.6417Z" fill="url(#paint1_linear_274_1092)"/>
<path d="M107.459 91.0068C109.513 95.6648 113.552 102.423 113.979 102.486C114.407 102.55 110.23 96.0606 110.135 94.4553" stroke="#7AA321" stroke-linecap="round" stroke-linejoin="round"/>
<path d="M38.0322 96.9493C35.1495 94.1055 30.5936 90.1616 30.1565 89.3577C29.7193 88.5515 37.0559 113.871 37.0559 113.871L40.519 113.208C40.519 113.208 41.8523 105.449 41.7916 105.068C41.7308 104.687 38.0322 96.9493 38.0322 96.9493Z" stroke="#A7E35D" stroke-linecap="round" stroke-linejoin="round"/>
<path d="M39.9409 93.3504C38.0515 93.0104 32.5388 90.8272 30.205 89.0349C27.8711 87.2451 29.7872 94.0863 29.7872 94.0863L35.8659 114.442L43.7124 114.581L40.2639 97.9015L39.9434 93.348L39.9409 93.3504Z" fill="#0198FF"/>
<path d="M39.9409 93.3504C38.0515 93.0104 32.5388 90.8272 30.205 89.0349C27.8711 87.2451 29.7872 94.0863 29.7872 94.0863L29.916 96.3545L38.9355 99.072L40.2615 97.9015L39.9409 93.348V93.3504Z" fill="#39AFFF"/>
<path d="M31.4047 119.345C28.5633 120.691 23.0554 120.46 21.2753 116.647C20.1703 114.287 20.8746 109.944 20.8746 109.944L21.8217 110.061L21.336 107.05C20.8479 104.036 16.5348 99.8563 15.8184 97.4083C15.102 94.9579 15.2501 87.6796 15.8888 82.0722C16.53 76.4623 19.3786 75.0974 22.5381 75.1582C22.9218 75.1654 23.2667 75.2723 23.5751 75.4617C25.8215 76.8217 26.2829 82.5239 26.8585 86.6475C26.8585 86.6475 27.0965 91.2374 27.4972 94.0764C27.8955 96.9178 31.888 107.176 33.6754 110.508C35.4652 113.842 33.7385 118.24 31.4047 119.348V119.345Z" fill="#001074"/>
<path d="M30.7562 119.265C30.5741 119.35 30.3822 119.428 30.1807 119.503C32.6092 117.898 30.3312 110.204 30.3312 110.204L21.1563 109.893C21.1465 109.821 21.1247 109.687 21.0858 109.439C21.0203 109.024 20.8988 108.283 20.6851 106.967C20.1994 103.956 15.8863 99.7762 15.1699 97.3258C14.4535 94.8754 14.5992 87.5971 15.2379 81.9872C15.8766 76.3798 18.7302 75.0149 21.8872 75.0756C25.0467 75.1364 25.5567 81.8682 26.21 86.5626C26.21 86.5626 26.4504 91.1525 26.8487 93.9914C27.2494 96.8328 31.2419 107.091 33.0293 110.423C34.8167 113.755 33.0925 118.158 30.7586 119.265H30.7562Z" fill="url(#paint2_linear_274_1092)"/>
<path d="M38.9744 112.23C38.5809 113.684 37.4152 116.691 31.4046 119.343C33.7385 118.236 35.4651 113.835 33.6753 110.503C31.8879 107.169 27.8954 96.9106 27.4971 94.0717C27.0964 91.2327 26.8584 86.6428 26.8584 86.6428C26.2829 82.5168 25.8215 76.817 23.5751 75.457C26.2659 76.8097 29.1728 84.3624 30.2802 87.0654C31.3925 89.7781 31.0501 93.8653 35.0766 100.374C39.1031 106.88 39.3726 110.775 38.9768 112.23H38.9744Z" fill="#071CA0"/>
<mask id="mask0_274_1092" style="mask-type:luminance" maskUnits="userSpaceOnUse" x="12" y="62" width="153" height="95">
<path d="M163.857 156.905C163.857 156.905 167.179 96.3055 149.662 89.2094C132.145 82.1108 65.4308 64.8756 65.4308 64.8756C62.0357 57.3277 14.6722 73.9437 12.9528 65.6332C12.9528 65.6332 24.1094 106.95 34.7342 115.413C41.437 120.751 68.4106 122.512 68.4106 122.512C68.4106 122.512 163.497 156.769 163.857 156.905Z" fill="white"/>
</mask>
<g mask="url(#mask0_274_1092)">
<path d="M38.9258 114.497C37.6386 114.412 37.8232 115.58 38.5299 115.622C44.3827 119.158 41.0556 120.914 66.8465 122.817C70.7419 123.104 69.2508 124.717 69.8846 124.794C70.5185 124.872 70.8633 126.132 72.6798 126.499C74.494 126.866 74.3361 126.417 76.2401 127.798C78.144 129.178 86.8527 135.123 92.2441 136.072C97.6354 137.022 110.074 140.143 109.992 139.737C109.907 139.331 96.5644 109.203 95.8431 109.257C95.1219 109.31 83.3314 110.359 73.525 108.074C63.7186 105.789 43.4501 96.4388 39.1977 98.0441C37.1384 98.8212 38.6975 98.6925 38.9112 99.8631C39.1249 101.034 40.6694 107.025 40.616 109.23C40.5577 111.576 39.9142 114.561 38.9258 114.495V114.497Z" fill="#001074"/>
<path d="M105.256 131.927C108.493 134.348 108.425 136.724 109.474 136.925C110.524 137.127 115.565 145.697 119.138 146.477C124.854 147.722 135.251 145.899 140.122 142.659C142.204 141.275 144.239 134.467 145.259 129.091C146.281 123.714 144.946 114.821 141.793 114.289C138.639 113.757 129.724 110.651 129.267 111.455C128.81 112.259 128.575 113.507 124.981 110.682C119.648 106.491 108.556 103.171 103.311 97.192C96.6033 89.547 88.475 94.7708 74.4916 93.4812C66.3536 92.7308 57.2903 90.8511 56.535 91.1863C55.7798 91.5214 55.7433 91.8031 54.3688 91.349C52.9942 90.8924 50.7648 90.4043 48.4043 90.397C46.0438 90.3897 45.3225 90.4456 44.3972 90.4018C43.472 90.3581 42.0197 89.9647 40.82 89.8166C40.0138 89.717 39.3192 92.5147 38.8335 92.4564C38.6319 92.4321 38.3964 92.7551 38.4474 92.9518C38.4765 93.0587 38.6271 93.0295 39.0763 93.1922C39.4698 93.3379 39.5353 98.1998 39.5353 98.1998C39.5353 98.1998 42.4059 99.1178 43.5303 99.5064C44.067 99.691 50.0241 103.798 51.0126 105.065C52.001 106.333 54.4805 106.333 54.9735 106.394C55.4665 106.454 58.2204 109.067 59.9228 109.779C61.6228 110.491 68.8889 113.995 76.5048 113.058C79.2053 112.725 82.8457 113.262 85.0751 114.405C87.897 115.853 93.9902 119.678 96.6931 122.407C100.035 125.785 100.88 128.654 105.256 131.927Z" fill="#071CA0"/>
<path d="M108.906 137.353C109.955 137.554 115.565 145.695 119.135 146.474C124.852 147.72 135.248 145.896 140.12 142.656C142.201 141.272 144.236 134.465 145.256 129.088C146.279 123.712 144.943 114.818 141.791 114.286C138.636 113.755 129.721 110.648 129.265 111.452C128.808 112.256 128.572 113.504 124.978 110.68C119.645 106.488 109.521 103.581 103.308 97.1896C96.222 89.8967 88.4726 94.7683 74.4891 93.4788C66.3511 92.7284 57.2879 90.8487 56.5326 91.1838C55.7773 91.5189 55.7409 91.8007 54.3663 91.3465C52.9918 90.89 50.7624 90.4018 48.4019 90.3945C46.0413 90.3873 45.3201 90.4431 44.3948 90.3994C43.4695 90.3557 42.0173 89.9623 40.8176 89.8141C40.0113 89.7146 39.3168 92.5122 38.8311 92.4539C38.6295 92.4296 38.3939 92.7526 38.4449 92.9494C38.4741 93.0562 38.6246 93.0271 39.0739 93.1898C39.4673 93.3355 39.5329 98.1974 39.5329 98.1974C39.5329 98.1974 42.4034 99.1154 43.5278 99.5039C44.0645 99.6885 50.0217 103.795 51.0101 105.063C51.9985 106.331 54.4781 106.331 54.971 106.391C55.464 106.452 58.218 109.065 59.9204 109.777C61.6203 110.488 70.2659 115.008 77.8818 114.07C80.5823 113.738 85.7065 114.687 87.9334 115.831C90.7554 117.278 91.6005 121.113 94.3059 123.843C97.6475 127.221 107.857 137.151 108.904 137.353H108.906Z" fill="url(#paint3_linear_274_1092)"/>
<path d="M40.8225 89.8142C40.5335 89.0565 39.3216 92.5123 38.8359 92.454C38.6344 92.4297 38.3988 92.7527 38.4498 92.9494C38.4789 93.0563 38.6295 93.0272 39.0788 93.1899C39.4722 93.3356 39.5378 98.1975 39.5378 98.1975C39.5378 98.1975 42.6244 100.094 42.2529 99.4482C40.2323 95.9511 42.8284 95.0598 40.8225 89.8118V89.8142Z" fill="#001074"/>
</g>
<path d="M30.1807 119.503C29.8577 119.617 29.508 119.717 29.1437 119.794C26.1833 120.433 22.1107 119.743 20.6268 116.565C19.5243 114.204 20.2261 109.859 20.2261 109.859L30.3337 110.202C30.3337 110.202 32.6116 117.895 30.1831 119.501L30.1807 119.503Z" fill="#071CA0"/>
<path d="M31.2493 109.296L30.3313 110.204L21.1563 109.893C21.1733 109.978 20.2262 109.862 20.2262 109.862L21.0859 109.442L22.1496 108.922L31.2517 109.298L31.2493 109.296Z" fill="#0080ED"/>
<path d="M23.5727 75.4569C23.5727 75.4569 23.5508 75.4448 23.5387 75.4375" stroke="#A7E35D" stroke-linecap="round" stroke-linejoin="round"/>
<path d="M143.994 139.635C149.052 138.649 152.469 129.521 152.212 125.518C151.913 120.877 150.75 119.114 150.721 118.466C154.169 115.824 153.72 106.884 157.659 102.69C158.64 101.646 159.237 99.9095 159.237 99.9095C159.237 99.9095 162.829 96.461 163.448 94.9286C164.068 93.3962 166.506 90.584 167.091 91.944C167.674 93.3039 168.51 99.5817 168.223 101.019C168.002 102.141 169.233 100.461 169.787 99.6643C169.959 99.4165 170.049 99.1251 170.047 98.824C170.04 97.5126 169.95 93.7751 169.197 92.522C168.971 92.1455 168.619 90.8439 168.34 89.6296C168.06 88.4153 157.569 77.7832 156.962 77.4942C156.355 77.2052 156.986 75.566 156.389 74.3104C155.791 73.0573 154.036 71.9451 153.521 71.7751C153.006 71.6051 153.205 71.5273 153.205 71.5273L152.515 72.6518C152.515 72.6518 151.104 73.6572 150.708 74.2522C150.313 74.8471 149.596 75.4446 149.596 75.4446C149.596 75.4446 145.652 75.2381 144.266 76.0323C144.266 76.0323 142.243 75.0317 141.57 75.2697C140.897 75.5077 140.475 76.314 140.475 76.314C140.475 76.314 139.297 88.4032 137.823 89.5082C137.121 90.0352 136.113 90.2367 134.755 91.876C133.068 92.6361 132.006 93.9596 131.03 94.5716C129.17 95.7373 125.364 103.96 124.998 106.061C124.745 107.508 123.281 108.451 122.547 109.371C122.547 109.371 126.246 112.458 129.374 115.231C131.557 117.167 133.417 119.989 133.529 124.285C133.799 134.727 137.677 135.628 137.665 136.86C137.653 138.091 139.256 141.712 140.761 142.542C142.267 143.373 143.994 139.635 143.994 139.635Z" fill="url(#paint4_linear_274_1092)"/>
<path d="M157.758 99.7276C156.598 98.6979 157.059 98.4332 155.804 98.1709C154.548 97.9086 137.585 93.9307 135.795 92.4809C134.908 91.762 134.755 91.8786 134.755 91.8786" stroke="#A7E35D" stroke-linecap="round" stroke-linejoin="round"/>
<path d="M149.203 118.602C141.818 117.582 125.556 113.757 123.269 108.606" stroke="#A7E35D" stroke-linecap="round" stroke-linejoin="round"/>
<path d="M135.661 78.1038C134.25 80.8286 135.01 79.8062 132.747 81.7223L131.538 90.0789L131.278 91.706C131.278 91.706 131.271 91.7133 131.258 91.7327L129.707 93.9645L128.667 95.4605C127.771 97.4956 124.155 103.407 124.084 105.626C124.046 106.77 122.824 107.853 121.641 108.492C119.793 107.348 116.597 106.134 113.571 104.288C114.468 101.192 117.94 90.2416 118.926 89.1706C119.662 88.1409 119.58 87.3492 120.143 86.8222C120.107 86.6863 120.158 86.3195 120.281 85.8144C120.731 83.9372 122.132 80.1414 123.613 79.1384C125.488 77.8683 129.172 76.9017 129.172 76.9017L129.313 76.3043C129.988 73.4508 130.637 71.1947 130.952 70.845C131.8 69.9075 132.47 70.4758 134.636 70.7915C134.753 70.8085 135.581 72.7271 135.584 72.8461C135.618 74.7646 136.876 75.753 135.659 78.1014L135.661 78.1038Z" fill="url(#paint5_linear_274_1092)"/>
<path d="M133.425 73.1448C133.16 72.5207 130.785 71.032 130.955 70.845C131.691 70.0509 132.106 70.4638 134.272 70.777C134.389 70.794 136.725 72.3604 136.725 72.477C136.759 74.3955 137.048 76.1198 135.831 78.4682C134.42 81.193 134.641 79.7893 132.378 81.7054L131.819 81.6326C131.819 81.6326 134.265 75.1217 133.422 73.14L133.425 73.1448Z" fill="#7AA321"/>
<path d="M129.561 94.1737L131.275 91.7063C131.275 91.7063 132.822 83.2089 133.726 77.9511C134.488 73.5045 134.5 74.25 133.522 74.1626C132.623 76.3021 131.159 83.7674 131.159 83.7674L130.554 90.8296L129.558 94.1737H129.561Z" fill="#A7E35D"/>
<path d="M145.798 97.6658C145.643 96.9008 145.439 96.42 144.785 96.1893C144.134 95.9586 141.822 95.6404 141.822 95.6404L141.818 95.2737C141.818 95.2737 132.482 94.1882 131.55 94.1323C131.55 94.1323 130.79 96.811 131.448 100.094C132.108 103.375 132.414 106.115 132.235 106.676C132.235 106.676 133.587 107.191 135.18 107.273C136.774 107.356 138.466 107.225 138.466 107.225C138.466 107.225 138.714 105.503 138.998 104.84C139.28 104.177 140.436 101.073 140.436 101.073C140.436 101.073 146.636 101.782 145.798 97.6658ZM143.804 99.2662C142.49 99.5528 141.577 99.0865 141.798 97.6707C142.017 96.2573 142.901 96.6167 144.691 96.964C144.691 96.964 145.118 98.9821 143.804 99.2662Z" fill="white"/>
<path d="M166.914 89.8823C164.444 86.4119 162.574 85.0544 160.651 83.6896C158.727 82.3247 158.681 82.2664 157.945 81.2635C157.21 80.2605 156.318 79.6679 156.318 79.6679L155.57 79.1992" stroke="#A7E35D" stroke-linecap="round" stroke-linejoin="round"/>
<path d="M156.442 77.8052C155.573 79.1991 155.876 78.4852 155.243 79.697C154.611 80.9064 152.6 84.1461 149.259 85.1296C145.917 86.1132 146.956 85.9529 144.472 85.6566C141.988 85.3603 140.482 85.8169 140.482 85.8169" stroke="#A7E35D" stroke-linecap="round" stroke-linejoin="round"/>
<path d="M130.328 91.8248C128.133 91.1011 123.946 90.2414 123.106 89.236C122.263 88.2306 120.082 86.7808 120.082 86.7808" stroke="#A7E35D" stroke-linecap="round" stroke-linejoin="round"/>
<path d="M166.79 91.6187C168.57 92.6678 168.995 97.5734 168.947 99.2102C168.898 100.847 169.991 105.107 169.787 105.694C169.583 106.282 168.631 106.833 168.908 107.467C169.182 108.101 169.061 110.658 168.327 111.467C167.594 112.276 167.582 118.935 167.599 119.998C167.613 121.065 167.239 122.026 167.388 122.451C167.536 122.876 168.58 125.203 168.065 126.436C167.55 127.668 166.591 127.575 166.496 128.43C166.402 129.283 165.212 131.75 164.59 132.93C163.968 134.111 160.76 137.032 159.422 136.466C158.081 135.9 157.382 135.325 157.382 135.325C157.382 135.325 156.318 135.5 156.423 135.286C156.527 135.072 156.301 134.169 155.816 133.856C155.332 133.542 152.955 131.182 152.948 130.754C152.94 130.329 153.21 130.431 153.21 130.431C153.21 130.431 153.161 131.298 155.082 130.533C157.324 129.642 160.923 127.709 161.486 125.412C162.05 123.114 161.637 122.867 161.435 121.844C161.103 120.164 158.341 119.433 157.576 118.111C156.811 116.79 154.167 113.565 153.666 112.725C153.465 112.385 153.9 111.921 154.026 111.001C154.215 109.638 154.677 107.275 155.811 105.218C156.945 103.161 159.24 99.9072 159.24 99.9072L162.552 96.3227C162.552 96.3227 163.592 94.0326 164.704 92.9665C165.816 91.9004 166.241 91.2884 166.793 91.6138L166.79 91.6187Z" fill="url(#paint6_linear_274_1092)"/>
<path d="M161.511 127.277C163.446 125.757 161.819 121.468 161.819 121.468C161.819 121.468 165.304 123.6 165.593 125.035C165.879 126.468 164.133 130.861 164.133 130.861C164.133 130.861 163.555 131.349 163.495 131.617C163.434 131.884 161.882 133.557 158.271 135.102L157.501 132.556C157.015 132.085 155.612 130.72 155.612 130.72L154.606 131.16L156.658 133.154L157.054 134.798" stroke="#7AA321" stroke-linecap="round" stroke-linejoin="round"/>
<path d="M166.322 123.906C164.923 122.862 163.568 121.283 164.801 121.851C166.035 122.42 166.732 122.799 166.732 122.799" stroke="#7AA321" stroke-linecap="round" stroke-linejoin="round"/>
<path d="M153.902 130.873C153.659 130.917 153.411 130.834 153.246 130.655C152.049 129.355 151.668 128.909 150.427 125.786C149.101 122.449 147.411 118.213 146.245 115.62C145.079 113.026 145.167 111.8 143.77 111.023C142.374 110.243 141.128 108.776 140.635 107.875C140.142 106.974 138.988 104.487 139.088 104.06C139.188 103.633 139.554 103.147 139.554 103.147C139.554 103.147 139.348 102.423 139.664 102.081C139.979 101.738 140.169 101.469 140.169 101.469C140.169 101.469 139.858 100.905 140.278 100.403C140.696 99.8999 140.914 99.045 142.126 99.3826C143.338 99.7201 143.775 100.548 143.984 100.208C144.193 99.8683 143.241 99.2247 142.957 99.1931C142.672 99.1616 142.036 99.3122 142.114 98.5496C142.192 97.7846 143.008 96.4416 144.074 96.6213C145.142 96.8011 145.769 97.1483 146.286 97.9036C146.801 98.6589 146.91 98.8167 147.466 99.1834C148.023 99.5477 148.652 100.143 148.853 100.602C149.055 101.061 149.688 101.886 149.839 102.486C149.99 103.089 150.252 106.457 150.327 106.828C150.402 107.2 153.407 112.703 154.711 114.167C156.015 115.634 157.683 118.366 158.312 118.855C158.941 119.343 161.093 120.598 161.321 121.475C161.525 122.257 162.492 124.307 160.918 126.597C159.344 128.887 155.901 130.271 155.073 130.565C154.621 130.725 154.193 130.82 153.9 130.873H153.902Z" fill="#D18F62"/>
<path d="M144.895 112.212C144.516 112.217 145.009 114.029 145.662 114.201C146.376 114.391 147.738 115.027 147.792 114.961C147.845 114.896 148.098 114.971 148.392 114.961C148.685 114.952 149.412 114.566 149.412 114.566C149.412 114.566 150.06 114.799 151.374 113.912C152.481 113.164 152.365 112.278 152.365 112.278L152.515 111.778C152.515 111.778 152.884 110.52 152.906 110.308C152.928 110.097 151.935 108.587 151.801 108.499C150.619 107.734 151.464 108.669 151.405 108.924C151.347 109.179 150.871 109.577 150.871 109.577C150.871 109.577 149.596 109.225 148.639 109.995C147.665 110.782 147.537 112.088 147.537 112.088C147.537 112.088 146.799 112.552 146.813 112.659C146.828 112.766 146.82 112.926 146.687 112.917C146.184 112.873 145.677 112.846 145.548 112.652C145.407 112.438 144.895 112.215 144.895 112.215V112.212Z" fill="#00289B"/>
<path d="M151.586 113.358C152.352 112.535 152.378 111.315 151.646 110.634C150.913 109.953 149.698 110.067 148.933 110.891C148.168 111.714 148.141 112.933 148.874 113.615C149.607 114.296 150.821 114.181 151.586 113.358Z" stroke="#0080ED" stroke-linecap="round" stroke-linejoin="round"/>
<path d="M147.493 99.7591C146.884 98.1441 146.483 96.636 146.262 96.2086C146.041 95.7811 145.832 93.4983 145.006 93.5906C144.181 93.6829 143.321 94.8656 143.581 96.3276C143.841 97.7895 147.491 99.7591 147.491 99.7591H147.493Z" fill="#D18F62"/>
<path d="M143.353 103.132C141.232 102.205 140.169 101.469 140.169 101.469" stroke="#3F2D1F" stroke-linecap="round" stroke-linejoin="round"/>
<path d="M139.554 103.149C139.77 103.395 142.214 105.418 142.214 105.418" stroke="#3F2D1F" stroke-linecap="round" stroke-linejoin="round"/>
<path d="M143.598 100.167C143.598 100.167 145.094 101.187 145.256 101.185C145.419 101.182 143.588 99.5308 143.588 99.5308" stroke="#3F2D1F" stroke-linecap="round" stroke-linejoin="round"/>
<path d="M156.212 42.3099C156.212 42.3099 156.214 42.3099 156.216 42.3099C156.216 42.3099 156.221 42.3099 156.221 42.3123C162.926 46.1227 167.04 53.5807 162.956 60.9221C161.127 64.2079 157.491 66.6971 157.491 66.6971C156.061 66.1629 150.56 72.9214 147.894 73.9171C144.234 75.2844 138.168 73.1036 135.246 71.7582C132.536 70.5123 131.268 63.9966 131.258 60.4582C131.258 60.3684 131.261 60.2834 131.266 60.196C131.266 60.162 131.266 60.1304 131.266 60.0964C131.278 59.8584 131.302 59.6228 131.343 59.3946C131.492 58.5276 131.951 57.544 132.427 56.592C132.929 55.5915 134.335 53.7215 134.335 53.7142C134.688 52.4684 134.552 48.9373 136.38 45.6515C140.465 38.3101 149.504 38.4995 156.209 42.305L156.212 42.3099Z" fill="#D18F62"/>
<path d="M151.167 56.0941C150.454 53.1435 147.063 51.9316 144.404 53.09C143.802 53.328 143.435 52.4465 144.035 52.1915C145.562 51.6475 147.323 51.6305 148.792 52.3591C150.235 53.0609 151.413 54.3966 151.67 56.014C151.714 56.3418 151.228 56.422 151.167 56.0941Z" fill="#3F2D1F"/>
<path d="M134.741 49.4471C136.827 48.6578 139.328 49.4568 140.647 51.2734C140.805 51.4919 140.756 51.7979 140.538 51.9558C140.31 52.1209 139.984 52.0529 139.838 51.8125C138.879 50.2291 136.713 49.3791 134.913 49.928C134.605 50.0227 134.442 49.571 134.743 49.4471H134.741Z" fill="#3F2D1F"/>
<path d="M140.807 53.4885C140.239 54.9966 139.353 56.3857 138.189 57.5028C137.655 58.076 136.929 58.5398 136.647 59.2902C136.254 60.7886 138.012 61.4225 139.158 61.7309C139.617 61.9082 140.37 61.998 140.509 62.5566C140.514 62.6003 140.482 62.6416 140.438 62.6465C140.395 62.6513 140.356 62.6197 140.348 62.576C140.317 62.3866 140.076 62.2555 139.846 62.1656C139.09 61.8863 138.294 61.7673 137.556 61.3836C136.761 61.0169 136.12 60.1184 136.421 59.2174C136.72 58.4087 137.483 57.9303 138.039 57.3474C138.42 56.9783 138.777 56.5921 139.1 56.1769C139.746 55.3439 140.271 54.4162 140.674 53.4326C140.708 53.3501 140.844 53.3986 140.807 53.4861V53.4885Z" fill="#3F2D1F"/>
<path opacity="0.35" d="M147.697 73.9801C143.991 75.3692 138.639 73.3899 135.249 71.7604C132.215 70.3033 131.271 63.9988 131.261 60.4605C131.261 60.3706 131.263 60.2856 131.268 60.1982C131.268 60.1642 131.268 60.1326 131.268 60.0986C131.28 59.8606 131.305 59.625 131.346 59.3968C131.494 58.5298 131.953 57.5462 132.429 56.5942C132.677 58.3962 132.473 59.6858 138.532 61.818C140.511 62.515 146.136 64.9921 149.242 65.8275C154.038 67.117 156.811 56.3805 158.939 56.8517C158.99 56.8638 160.495 57.7162 159.597 59.4453C158.713 61.1477 156.127 64.8197 155.051 67.168C153.416 70.7283 151.095 71.6535 149.429 73.0888C149.147 73.3316 147.959 73.8829 147.695 73.9801H147.697Z" fill="url(#paint7_linear_274_1092)"/>
<path d="M141.06 35.0874C142.119 34.8713 143.573 35.4784 144.652 35.1457C145.786 34.7936 146.578 33.2903 147.566 33.0523C149.217 32.6565 150.543 33.6643 150.917 33.7274C151.374 33.8051 152.914 33.0499 154.4 33.6497C155.349 34.0334 155.932 35.6314 156.991 36.0977C158.05 36.564 159.624 35.918 160.546 36.3697C161.955 37.0545 162.37 38.6816 162.752 39.0313C163.096 39.3495 165.314 40.7192 166.001 41.4914C166.489 42.0403 165.913 44.9545 166.382 45.6272C170.006 50.8243 166.161 49.1 164.444 58.0443C163.893 60.9124 157.802 69.2811 157.933 64.56C157.958 63.7246 158.548 62.4642 158.15 61.4588C157.827 60.6477 156.306 60.2178 155.927 59.244C155.602 58.411 156.435 57.085 156.102 56.1185C155.898 55.5283 154.9 54.7026 155.221 53.7968C155.471 53.0901 156.967 52.7768 157.275 52.0361C157.608 51.2347 156.722 50.1054 156.843 49.4351C157.013 48.505 157.635 46.4821 156.734 46.2149C155.833 45.9478 155.284 47.1475 154.257 46.2271C153.511 45.5568 150.206 47.876 148.865 46.0862C148.248 45.2629 146.811 44.8574 146.026 44.6388C145.244 44.4202 144.285 43.4707 144.263 42.8466C144.234 42.0451 145.677 41.6906 145.601 41.2996C145.519 40.8697 142.954 40.5152 141.551 40.8163C140.178 41.1102 137.633 44.09 138.112 42.7591C138.602 41.3967 135.474 36.2288 141.062 35.0923L141.06 35.0874Z" fill="#3F2D1F"/>
<path d="M134.938 64.0575C136.545 65.6554 140.229 66.5734 142.464 66.3476C142.782 66.3136 142.876 66.7798 142.566 66.8673C140.198 67.4841 136.895 66.6341 135.1 64.9779C134.909 64.7763 134.717 64.5335 134.583 64.2882C134.442 64.0502 134.777 63.8365 134.94 64.0575H134.938Z" fill="#3F2D1F"/>
<path d="M158.468 61.0313C160.5 59.6665 161.268 61.6846 160.391 64.8295C159.512 67.9721 157.945 67.6272 154.514 68.7079C154.514 68.7079 156.549 62.3184 158.468 61.0313Z" fill="#E09D6C"/>
<path d="M158.468 61.0313C160.5 59.6665 161.268 61.6846 160.391 64.8295C159.512 67.9721 157.945 67.6272 154.514 68.7079C154.514 68.7079 156.549 62.3184 158.468 61.0313Z" fill="#D18F62"/>
<path d="M155.755 66.6802C154.121 70.2404 148.608 73.6695 148.345 73.7666C144.64 75.1557 139.583 73.8929 136.727 72.4795" stroke="#3F2D1F" stroke-linecap="round" stroke-linejoin="round"/>
<path d="M157.452 63.2389C158.356 62.1169 159.971 61.7696 159.934 63.1685C159.896 64.7154 158.664 66.5271 158.164 66.3984C157.664 66.2697 157.54 65.8641 157.239 65.75C157.049 65.6771 156.381 65.9321 156.381 65.9321" stroke="#3F2D1F" stroke-linecap="round" stroke-linejoin="round"/>
<path d="M138.799 53.578C138.542 52.7378 137.832 51.9898 136.941 51.7494C136.05 51.5065 135.018 51.8392 134.585 52.5848" stroke="#201814" stroke-width="1.7" stroke-linecap="round" stroke-linejoin="round"/>
<path d="M144.411 55.7617C145.189 55.1643 146.332 55.0113 147.299 55.3731C148.265 55.735 149.021 56.5995 149.208 57.5588" stroke="#201814" stroke-width="1.7" stroke-linecap="round" stroke-linejoin="round"/>
<path d="M144.373 57.1414C144.222 57.8798 144.697 58.6011 145.436 58.7524C146.174 58.9037 146.896 58.4278 147.047 57.6893L147.19 56.9899C147.342 56.2514 146.866 55.5302 146.127 55.3788C145.389 55.2275 144.667 55.7035 144.516 56.4419L144.373 57.1414Z" fill="#201814"/>
<path d="M134.44 53.7844C134.289 54.5229 134.765 55.2442 135.504 55.3955C136.242 55.5468 136.963 55.0708 137.115 54.3324L137.258 53.6329C137.409 52.8945 136.933 52.1732 136.195 52.0219C135.456 51.8706 134.735 52.3465 134.584 53.085L134.44 53.7844Z" fill="#201814"/>
<path d="M140.594 76.1173C140.516 76.2363 140.475 76.314 140.475 76.314C140.475 76.314 139.294 88.4032 137.823 89.5082C137.189 89.9842 136.305 90.193 135.137 91.4413C135.013 91.5724 134.887 91.7182 134.756 91.876C134.702 91.9003 134.649 91.9246 134.593 91.9537C132.997 92.7211 131.975 93.9816 131.03 94.5717C129.17 95.7374 125.362 103.958 124.998 106.061C124.745 107.508 123.281 108.448 122.547 109.371C122.273 109.055 121.972 108.713 121.641 108.346C122.824 107.708 124.048 106.77 124.087 105.626C124.157 103.407 127.774 97.4956 128.67 95.4605L129.709 93.9646C130.085 93.5201 131.115 91.9562 131.261 91.7327C131.273 91.7133 131.28 91.706 131.28 91.706C131.28 91.706 132.257 91.3466 133.447 90.8002C134.08 90.5063 134.777 90.1639 135.416 89.7899C135.982 89.4596 136.506 89.1099 136.902 88.7529C138.59 87.2424 139.513 77.164 139.457 76.297C139.423 75.8089 140.091 75.9206 140.599 76.1173H140.594Z" fill="#A7E35D"/>
<path d="M129.707 93.9647C129.585 94.108 129.532 94.1371 129.595 93.9695C129.918 93.122 130.413 92.3667 130.326 91.8276C130.916 89.6249 130.717 88.4568 131.159 84.9791C131.21 84.5808 131.261 84.2239 131.312 83.9033C131.788 80.9575 132.324 80.8676 133.114 76.8071C133.993 72.3022 133.711 73.4752 131.12 71.0078" stroke="#A7E35D" stroke-linecap="round" stroke-linejoin="round"/>
<path d="M134.933 131.201C138.593 133.013 143.522 138.292 143.522 138.292" stroke="#A7E35D" stroke-linecap="round" stroke-linejoin="round"/>
<path d="M144.074 96.6216C145.142 96.8013 145.769 97.1486 146.286 97.9038C146.801 98.6591 146.91 98.817 147.466 99.1837" stroke="#3F2D1F" stroke-linecap="round" stroke-linejoin="round"/>
<path d="M129.172 76.9043C128.509 78.4173 128.832 80.1172 129.362 80.3941C129.891 80.6709 130.481 81.7541 130.481 81.7541" stroke="#A7E35D" stroke-linecap="round" stroke-linejoin="round"/>
<path d="M129.539 129.836C128.23 127.952 125.168 123.398 128.648 124.45C129.881 124.821 133.318 122.179 133.318 122.179" stroke="#0080ED" stroke-linecap="round" stroke-linejoin="round"/>
<path d="M122.807 127.607C117.416 119.229 100.448 105.371 95.6829 105.908C89.1817 106.639 74.9287 109.301 70.6083 104.143C66.5988 99.3535 59.3521 102.302 57.3826 99.963C54.7816 96.8715 54.1624 102.282 52.2535 98.8823" stroke="#0080ED" stroke-linecap="round" stroke-linejoin="round"/>
<path d="M39.1977 98.0445C39.103 97.9959 39.0059 98.1174 38.9233 98.1514C37.2865 98.8119 38.7096 98.7488 38.9112 99.8635C39.1249 101.034 40.6694 107.025 40.616 109.23C40.5577 111.576 39.9142 114.561 38.9258 114.495C37.6386 114.41 37.8232 115.578 38.5299 115.62C45.4512 111.924 43.0882 100.092 39.1977 98.0445Z" fill="#001074"/>
<path d="M156.569 160.392L155.196 171.333" stroke="#A7E35D" stroke-width="8" stroke-linecap="round" stroke-linejoin="round"/>
<path d="M161.35 166.548L150.412 165.176" stroke="#A7E35D" stroke-width="8" stroke-linecap="round" stroke-linejoin="round"/>
<path d="M28.4735 66.2866L27.9611 70.3665" stroke="#A7E35D" stroke-width="5" stroke-linecap="round" stroke-linejoin="round"/>
<path d="M30.2584 68.5818L26.176 68.0693" stroke="#A7E35D" stroke-width="5" stroke-linecap="round" stroke-linejoin="round"/>
<path d="M199.189 73.8372C207.057 73.8372 213.435 67.4591 213.435 59.5914C213.435 51.7237 207.057 45.3457 199.189 45.3457C191.322 45.3457 184.943 51.7237 184.943 59.5914C184.943 67.4591 191.322 73.8372 199.189 73.8372Z" fill="#39AFFF"/>
<path d="M195.401 56.5119C196.722 56.5823 197.863 57.8014 198.997 59.244C199.017 59.2391 199.036 59.2415 199.048 59.2585C200.372 60.4509 201.81 64.1132 201.972 64.5843C201.987 64.6159 202.011 64.6353 202.043 64.6232L210.394 62.3428C210.394 62.3428 210.411 62.3379 210.419 62.3331C210.496 62.2869 210.555 62.1193 210.516 62.0368C208.864 58.4644 206.018 53.8624 203.099 54.5156C205.338 54.4015 208.386 58.5883 209.581 61.5219C209.61 61.5948 209.564 61.7308 209.503 61.7648C209.498 61.7672 209.491 61.7696 209.486 61.7721L202.443 63.8266C202.419 63.8339 202.402 63.8169 202.39 63.7902C202.269 63.3919 200.994 60.179 199.998 59.142C199.988 59.1274 197.747 56.4026 196.712 56.1767C196.17 56.3152 195.714 56.4342 195.401 56.5143" fill="#8EBF30"/>
<path d="M193.264 57.3355C191.69 58.2753 191.063 59.6547 190.51 60.9953C189.956 62.3309 189.47 63.6278 188.183 64.3976C188.149 64.4171 188.113 64.4389 188.079 64.4583C188.071 64.4608 188.067 64.4656 188.059 64.4681C187.85 64.5943 188.033 64.6575 188.033 64.6575L195.442 62.6709C195.733 62.5884 195.967 62.4888 196.161 62.3747C196.768 62.0128 196.957 61.5053 197.154 60.9928C197.353 60.4804 197.562 59.9607 198.211 59.5746C198.422 59.4483 198.679 59.3366 199 59.2419C197.866 57.7993 196.724 56.5826 195.403 56.5098H195.398C195.121 56.5826 194.959 56.6215 194.959 56.6215C194.898 56.6385 194.84 56.6579 194.779 56.6749C194.191 56.8546 193.693 57.078 193.266 57.333" fill="#7AA321"/>
<path d="M196.644 56.1625C196.668 56.1649 196.69 56.1698 196.715 56.1746C197.752 56.4005 199.993 59.1253 200 59.1399C200.996 60.1793 202.271 63.3898 202.392 63.7881C202.405 63.8148 202.422 63.8318 202.446 63.8245L209.489 61.77C209.489 61.77 209.501 61.7651 209.506 61.7627C209.566 61.7262 209.613 61.5902 209.583 61.5198C208.389 58.5837 205.343 54.3994 203.102 54.5135C202.99 54.5184 202.878 54.5354 202.771 54.5645C201.946 54.7807 197.798 55.8905 196.644 56.1625Z" fill="#A7E35D"/>
<mask id="mask1_274_1092" style="mask-type:luminance" maskUnits="userSpaceOnUse" x="196" y="54" width="14" height="10">
<path d="M196.644 56.1625C196.668 56.1649 196.69 56.1698 196.715 56.1746C197.752 56.4005 199.993 59.1253 200 59.1399C200.996 60.1793 202.271 63.3898 202.392 63.7881C202.405 63.8148 202.422 63.8318 202.446 63.8245L209.489 61.77C209.489 61.77 209.501 61.7651 209.506 61.7627C209.566 61.7262 209.613 61.5902 209.583 61.5198C208.389 58.5837 205.343 54.3994 203.102 54.5135C202.99 54.5184 202.878 54.5354 202.771 54.5645C201.946 54.7807 197.798 55.8905 196.644 56.1625Z" fill="white"/>
</mask>
<g mask="url(#mask1_274_1092)">
<path d="M202.237 54.3312C201.183 53.7435 199.495 53.7678 198.466 54.3847C197.436 55.0039 197.455 55.9802 198.509 56.5679C199.563 57.1556 201.251 57.1313 202.281 56.5145C203.31 55.8952 203.291 54.9189 202.237 54.3312Z" stroke="white" stroke-width="2" stroke-miterlimit="10"/>
</g>
<path d="M114.011 35.2138C119.228 35.2138 123.458 30.9842 123.458 25.7668C123.458 20.5494 119.228 16.3198 114.011 16.3198C108.794 16.3198 104.564 20.5494 104.564 25.7668C104.564 30.9842 108.794 35.2138 114.011 35.2138Z" fill="#39AFFF"/>
<path d="M117.259 21.2095L108.994 23.3054C108.436 23.4469 108.099 24.0137 108.24 24.5714L109.505 29.5572C109.646 30.1149 110.213 30.4524 110.771 30.311L119.036 28.215C119.593 28.0736 119.931 27.5068 119.789 26.949L118.525 21.9632C118.383 21.4055 117.817 21.068 117.259 21.2095Z" fill="#0039DC"/>
<path d="M111.856 23.8313L109.895 24.3286L110.392 26.2895L112.353 25.7922L111.856 23.8313Z" stroke="white" stroke-width="2" stroke-miterlimit="10"/>
<path d="M78.6516 58.7264C81.8549 57.9371 84.5384 56.2468 86.4958 54.0077L88.322 51.9168C88.3075 51.9338 88.2905 51.9484 88.2759 51.9654C91.4621 48.3517 92.7468 43.2907 91.2411 38.283C88.8126 30.2106 80.0553 25.3341 71.6818 27.3959C68.4105 28.2022 65.6857 29.9483 63.7186 32.2579C63.7599 32.2117 63.7963 32.1607 63.8376 32.1146L62.0114 34.2055C58.8567 37.8168 57.5939 42.856 59.0923 47.8393C61.5208 55.9117 70.2781 60.7882 78.6516 58.7264ZM81.7723 56.2566C81.6897 56.2833 81.6096 56.31 81.527 56.3367C81.6096 56.31 81.6922 56.2833 81.7723 56.2566ZM84.8371 54.8383C84.8784 54.814 84.9148 54.7873 84.9561 54.763C84.9172 54.7873 84.8784 54.814 84.8371 54.8383ZM85.7114 54.2627C85.7745 54.219 85.8377 54.1753 85.8984 54.1292C85.8377 54.1753 85.7745 54.2166 85.7114 54.2627ZM87.455 52.8226C87.506 52.7741 87.557 52.7255 87.608 52.6745C87.557 52.7231 87.506 52.7716 87.455 52.8226ZM63.1819 32.9306C63.2402 32.8528 63.3009 32.7751 63.3616 32.6974C63.3009 32.7751 63.2426 32.8528 63.1819 32.9306ZM60.3454 40.3206C60.3527 40.2234 60.3648 40.1263 60.3746 40.0291C60.3648 40.1263 60.3551 40.2234 60.3454 40.3206ZM60.445 39.473C60.4596 39.3783 60.4717 39.2836 60.4887 39.1913C60.4741 39.286 60.4596 39.3807 60.445 39.473ZM60.6053 38.5745C60.6198 38.5089 60.6295 38.4433 60.6441 38.3777C60.6295 38.4433 60.6174 38.5089 60.6053 38.5745ZM60.8505 37.5836C60.8675 37.5229 60.8894 37.4622 60.9088 37.4015C60.8894 37.4622 60.87 37.5229 60.8505 37.5836ZM61.1031 36.8016C61.1347 36.7118 61.1687 36.6243 61.2002 36.5369C61.1662 36.6243 61.1347 36.7142 61.1031 36.8016ZM61.4042 36.0245C61.4407 35.9346 61.4795 35.8472 61.5184 35.7574C61.4795 35.8448 61.4407 35.9346 61.4042 36.0245ZM62.2639 34.3003C62.2834 34.2663 62.3052 34.2322 62.3271 34.1982C62.3077 34.2322 62.2834 34.2663 62.2639 34.3003ZM62.7011 33.6081C62.7521 33.5328 62.8031 33.46 62.8565 33.3847C62.8055 33.46 62.7521 33.5328 62.7011 33.6081ZM60.3114 40.9228C60.309 41.003 60.3017 41.0807 60.2993 41.1608C60.2993 41.0807 60.3066 41.003 60.3114 40.9228ZM60.3041 42.0035C60.3041 42.0497 60.3114 42.0958 60.3114 42.1444C60.3114 42.0982 60.3041 42.0521 60.3041 42.0035ZM60.36 42.8535C60.3697 42.9482 60.3818 43.0429 60.3916 43.1401C60.3818 43.0454 60.3697 42.9507 60.36 42.8535ZM60.6951 44.8911C60.6733 44.8012 60.6563 44.7113 60.6368 44.6191C60.6563 44.7089 60.6733 44.7988 60.6951 44.8911ZM60.5178 44.0241C60.5008 43.9221 60.4838 43.8201 60.4668 43.7205C60.4814 43.8225 60.4984 43.9245 60.5178 44.0241Z" fill="#0030B9"/>
<path d="M74.8534 33.6956L73.0271 35.7866C73.0077 35.7259 72.9421 35.6895 72.8741 35.704L74.7004 33.6131C74.7684 33.5961 74.834 33.6325 74.8534 33.6956Z" fill="#39AFFF"/>
<path d="M79.2514 38.2635L77.4252 40.3545L77.6899 37.9381L79.5186 35.8472L79.2514 38.2635Z" fill="#39AFFF"/>
<path d="M79.1981 38.3438L77.3718 40.4324L77.4253 40.3546L79.2515 38.2637L79.1981 38.3438Z" fill="#39AFFF"/>
<path d="M79.198 38.3438L77.3718 40.4323L77.2747 40.4469L79.1009 38.3583L79.198 38.3438Z" fill="#0030B9"/>
<path d="M75.4072 35.5318L73.5809 37.6227L73.0272 35.7868L74.8535 33.6958L75.4072 35.5318Z" fill="#39AFFF"/>
<path d="M79.5187 35.8473L77.6924 37.9383C77.6973 37.88 77.6584 37.8266 77.6026 37.8096C76.4782 37.4599 75.0526 37.3919 73.5809 37.6226L75.4072 35.5316C76.8789 35.3009 78.3044 35.3689 79.4288 35.7186C79.4847 35.7356 79.5235 35.789 79.5187 35.8473Z" fill="#39AFFF"/>
<path d="M74.7028 33.6128L72.8741 35.7038L71.0309 36.1579L72.8571 34.0669L74.7028 33.6128Z" fill="#39AFFF"/>
<path d="M70.9678 36.1972L72.794 34.1062C72.8086 34.0892 72.8305 34.0747 72.8572 34.0674L71.0309 36.1583C71.0066 36.1656 70.9848 36.1778 70.9678 36.1972Z" fill="#39AFFF"/>
<path d="M70.9678 36.1969L72.794 34.106C72.7697 34.1327 72.76 34.1715 72.7697 34.208L70.9435 36.2989C70.9313 36.2625 70.9435 36.2236 70.9678 36.1969Z" fill="#0030B9"/>
<path d="M79.1009 38.3584L77.2747 40.4494C76.2693 40.1895 75.2881 40.1094 74.3556 40.2065L76.1818 38.1156C77.1144 38.0184 78.0931 38.0986 79.1009 38.3584Z" fill="#0030B9"/>
<path d="M73.3356 36.0853L71.5093 38.1762L70.9459 36.299L72.7722 34.208L73.3356 36.0853Z" fill="#0030B9"/>
<path d="M77.027 40.9182L75.2007 43.0092L74.358 40.2042L76.1843 38.1133L77.027 40.9182Z" fill="#39AFFF"/>
<path d="M71.7473 41.2118L73.5736 39.1208C73.7096 38.9654 73.8917 38.8245 74.1224 38.6958L72.2962 40.7868C72.0655 40.9155 71.8833 41.0563 71.7473 41.2118Z" fill="#0030B9"/>
<path d="M69.0978 39.7598L70.924 37.6689C71.4875 37.0253 72.301 36.4813 73.3356 36.0854L71.5093 38.1764C70.4748 38.5723 69.6612 39.1163 69.0978 39.7598Z" fill="#39AFFF"/>
<path d="M74.7928 40.9228L72.9641 43.0137L72.2963 40.7868L74.1225 38.6958L74.7928 40.9228Z" fill="#0030B9"/>
<path d="M71.5191 42.2345C71.405 41.858 71.4851 41.5108 71.7474 41.2121L73.5737 39.1211C73.3114 39.4222 73.2312 39.7671 73.3454 40.1435C72.7965 40.7701 72.0655 41.6079 71.5191 42.2345Z" fill="#39AFFF"/>
<path d="M81.7019 46.953L79.8756 49.0439C80.7134 48.0871 80.9951 46.9117 80.6212 45.6731C79.8683 43.1717 77.5394 42.9726 75.2007 43.0115L77.0269 40.9205C79.3656 40.8816 81.6946 41.0808 82.4474 43.5822C82.8214 44.8207 82.5373 45.9961 81.7019 46.953Z" fill="#39AFFF"/>
<path d="M72.964 43.0136C72.097 42.9407 71.6599 42.7052 71.519 42.2365L73.3453 40.1455C73.4862 40.6142 73.9233 40.8498 74.7903 40.9226C74.2414 41.5492 73.5104 42.387 72.964 43.0136Z" fill="#39AFFF"/>
<path d="M79.0913 45.5128L77.265 47.6038C77.5079 47.3269 77.5807 47.0112 77.4787 46.6737C77.3403 46.2147 76.9129 45.9743 76.0653 45.8795L77.8916 43.7886C78.7391 43.8833 79.1665 44.1237 79.305 44.5827C79.407 44.9203 79.3317 45.236 79.0913 45.5128Z" fill="#0030B9"/>
<path d="M79.0913 45.5127L77.265 47.6037C77.1314 47.7567 76.9469 47.8975 76.7113 48.0262L78.5376 45.9353C78.7731 45.8066 78.9577 45.6657 79.0913 45.5127Z" fill="#39AFFF"/>
<path d="M78.5376 45.9378L76.7113 48.0288L76.0653 45.8795L77.8916 43.7886L78.5376 45.9378Z" fill="#39AFFF"/>
<path d="M81.7019 46.9531L79.8757 49.0441C79.3171 49.6828 78.5133 50.2244 77.4908 50.6251L79.3171 48.5341C80.3395 48.1334 81.1434 47.5918 81.7019 46.9531Z" fill="#0030B9"/>
<path d="M76.483 46.5401L74.6543 48.631L73.8262 45.8747L75.6524 43.7837L76.483 46.5401Z" fill="#0030B9"/>
<path d="M79.8878 50.426L78.0615 52.517L77.4908 50.6227L79.3171 48.5317L79.8878 50.426Z" fill="#39AFFF"/>
<path d="M79.8028 50.5688L77.9766 52.6598L76.1333 53.1139L77.9596 51.023L79.8028 50.5688Z" fill="#0030B9"/>
<path d="M79.8635 50.5326L78.0372 52.6236C78.0615 52.5945 78.0712 52.5556 78.0591 52.5167L79.8853 50.4258C79.8975 50.4646 79.8853 50.5035 79.8635 50.5326Z" fill="#39AFFF"/>
<path d="M69.0978 39.7599L70.924 37.6689C70.0838 38.6306 69.8021 39.8182 70.1809 41.0786C70.9969 43.7888 73.763 43.8058 75.6524 43.7864L73.8261 45.8774C71.9392 45.8968 69.1706 45.8798 68.3547 43.1696C67.9758 41.9092 68.2575 40.7216 69.0978 39.7599Z" fill="#0030B9"/>
<path d="M76.483 46.5404L74.6567 48.6314C73.372 48.7989 71.978 48.6508 70.8973 48.2379L72.7236 46.147C73.8043 46.5598 75.1983 46.708 76.483 46.5404Z" fill="#39AFFF"/>
<path d="M72.7236 46.147L70.8949 48.2379L70.7881 48.2428L72.6143 46.1518L72.7236 46.147Z" fill="#39AFFF"/>
<path d="M77.027 40.918C79.3657 40.8792 81.6946 41.0783 82.4475 43.5797C83.0692 45.6464 81.8719 47.5333 79.3171 48.5315L79.8878 50.4257C79.9072 50.4864 79.8708 50.5544 79.8028 50.569L77.9596 51.0231C77.8964 51.0377 77.8236 50.9989 77.8066 50.9381L77.2553 49.107C75.4242 49.4252 73.5275 49.3013 72.2744 48.784C72.221 48.7622 72.187 48.7088 72.1991 48.6529L72.5609 46.2341L72.6168 46.1491L72.7261 46.1442C73.8068 46.5571 75.2008 46.7052 76.4854 46.5377L75.6573 43.7813C73.7703 43.8007 71.0018 43.7837 70.1858 41.0735C69.5544 38.9704 70.7614 37.0688 73.3405 36.0804L72.7771 34.2032C72.7577 34.1424 72.7989 34.0793 72.8621 34.0623L74.7053 33.6082C74.7733 33.5912 74.8389 33.6276 74.8583 33.6907L75.4096 35.5267C76.8813 35.296 78.3068 35.364 79.4312 35.7137C79.4871 35.7307 79.526 35.7841 79.5211 35.8424L79.2564 38.2588L79.203 38.3389L79.1058 38.3535C78.1004 38.0937 77.1193 38.0135 76.1867 38.1107L77.0294 40.9156L77.027 40.918ZM74.7903 40.9205L74.1201 38.6935C73.4425 39.0724 73.1729 39.5702 73.3429 40.1409C73.4838 40.6096 73.9209 40.8452 74.7879 40.918M78.5327 45.9329C79.1932 45.5711 79.4604 45.1048 79.3001 44.5803C79.1617 44.1213 78.7343 43.8808 77.8867 43.7861L78.5327 45.9329Z" fill="#0030B9"/>
<path d="M73.3454 40.1456C73.173 39.5749 73.4449 39.0771 74.1225 38.6982L74.7928 40.9252C73.9258 40.8523 73.4887 40.6168 73.3478 40.1481L73.3454 40.1456Z" fill="#39AFFF"/>
<path d="M77.8915 43.7886C78.739 43.8833 79.1665 44.1237 79.3049 44.5827C79.4627 45.1073 79.1956 45.576 78.5375 45.9354L77.8915 43.7886Z" fill="#39AFFF"/>
<path d="M79.8635 50.5327L78.0373 52.6237C78.0227 52.6407 78.0008 52.6552 77.9766 52.6601L79.8028 50.5691C79.8295 50.5619 79.849 50.5497 79.8635 50.5327Z" fill="#0030B9"/>
<path d="M72.556 46.2364L70.7297 48.3273L70.788 48.2423L72.6143 46.1514L72.556 46.2364Z" fill="#0030B9"/>
<path d="M77.804 50.938L75.9778 53.029L75.4265 51.1979L77.2528 49.1069L77.804 50.938Z" fill="#0030B9"/>
<path d="M77.9595 51.023L76.1332 53.114C76.0701 53.1285 75.9972 53.0897 75.9802 53.029L77.8065 50.938C77.8259 50.9987 77.8963 51.04 77.9595 51.023Z" fill="#0030B9"/>
<path d="M72.1966 48.6527L70.3704 50.7437L70.7298 48.3273L72.556 46.2363L72.1966 48.6527Z" fill="#0030B9"/>
<path d="M77.2528 49.107L75.4266 51.1979C73.5955 51.5161 71.6988 51.3922 70.4457 50.8749C70.3922 50.8531 70.3582 50.7997 70.3704 50.7438L72.1966 48.6528C72.1869 48.7087 72.2209 48.7621 72.2719 48.784C73.525 49.3013 75.4241 49.4251 77.2528 49.107Z" fill="#0030B9"/>
<path d="M88.3245 51.9194L86.4982 54.0104C84.5408 56.2495 81.8573 57.9397 78.6541 58.729C70.2805 60.7908 61.5233 55.9143 59.0947 47.8419C57.5963 42.8586 58.8592 37.8194 62.0138 34.2082L63.8401 32.1172C60.6854 35.7284 59.4226 40.7676 60.921 45.7509C63.3495 53.8234 72.1068 58.6998 80.4803 56.638C83.6836 55.8488 86.3671 54.1585 88.3245 51.9194Z" fill="#0080ED"/>
<path d="M71.6842 27.3959C80.0578 25.3341 88.815 30.2106 91.2435 38.283C93.6721 46.3555 88.8539 54.5736 80.4803 56.633C72.1068 58.6924 63.3495 53.8183 60.921 45.7459C58.4924 37.6735 63.3106 29.4553 71.6842 27.3959ZM79.3195 48.5314C81.8743 47.5333 83.0716 45.6463 82.4499 43.5797C81.697 41.0783 79.3681 40.8791 77.0294 40.918L76.1867 38.113C77.1192 38.0159 78.0979 38.096 79.1058 38.3559L79.2029 38.3413L79.2563 38.2612L79.521 35.8448C79.5259 35.7865 79.4871 35.7331 79.4312 35.7161C78.3068 35.3664 76.8812 35.2984 75.4096 35.5291L74.8583 33.6931C74.8388 33.6324 74.7733 33.596 74.7053 33.6106L72.862 34.0647C72.7989 34.0793 72.7576 34.1424 72.777 34.2055L73.3404 36.0828C70.7613 37.0712 69.5544 38.9727 70.1858 41.0758C71.0018 43.7861 73.7679 43.8031 75.6573 43.7836L76.4854 46.54C75.2007 46.7076 73.8067 46.5595 72.726 46.1466L72.6167 46.1515L72.5609 46.2365L72.199 48.6553C72.1893 48.7111 72.2233 48.7646 72.2743 48.7864C73.5274 49.3037 75.4265 49.4275 77.2552 49.1094L77.8065 50.9405C77.8259 51.0012 77.8964 51.0425 77.9595 51.0255L79.8028 50.5714C79.8708 50.5544 79.9048 50.4888 79.8878 50.4281L79.3171 48.5338" fill="#39AFFF"/>
</g>
<defs>
<linearGradient id="paint0_linear_274_1092" x1="127.999" y1="79.0636" x2="155.116" y2="78.6707" gradientUnits="userSpaceOnUse">
<stop stop-color="#D18F62"/>
<stop offset="0.4" stop-color="#CE8D60"/>
<stop offset="0.62" stop-color="#C6885D"/>
<stop offset="0.79" stop-color="#B87F56"/>
<stop offset="0.94" stop-color="#A5724D"/>
<stop offset="0.97" stop-color="#A2704C"/>
</linearGradient>
<linearGradient id="paint1_linear_274_1092" x1="125.053" y1="114.938" x2="124.518" y2="78.0208" gradientUnits="userSpaceOnUse">
<stop stop-color="#BFEC81"/>
<stop offset="0.63" stop-color="#F1FFC9"/>
</linearGradient>
<linearGradient id="paint2_linear_274_1092" x1="21.2679" y1="118.059" x2="28.05" y2="76.045" gradientUnits="userSpaceOnUse">
<stop offset="0.14" stop-color="#000D5B"/>
<stop offset="0.33" stop-color="#000E63"/>
<stop offset="0.62" stop-color="#031379"/>
<stop offset="0.99" stop-color="#061B9E"/>
<stop offset="1" stop-color="#071CA0"/>
</linearGradient>
<linearGradient id="paint3_linear_274_1092" x1="85.1259" y1="137.876" x2="96.3719" y2="93.3315" gradientUnits="userSpaceOnUse">
<stop offset="0.14" stop-color="#000D5B"/>
<stop offset="0.25" stop-color="#021272"/>
<stop offset="0.38" stop-color="#041686"/>
<stop offset="0.52" stop-color="#051995"/>
<stop offset="0.7" stop-color="#061B9D"/>
<stop offset="1" stop-color="#071CA0"/>
</linearGradient>
<linearGradient id="paint4_linear_274_1092" x1="140.117" y1="142.483" x2="151.615" y2="71.2575" gradientUnits="userSpaceOnUse">
<stop stop-color="#7AA321"/>
<stop offset="0.04" stop-color="#7CA622"/>
<stop offset="0.26" stop-color="#86B42A"/>
<stop offset="0.54" stop-color="#8CBC2E"/>
<stop offset="1" stop-color="#8EBF30"/>
</linearGradient>
<linearGradient id="paint5_linear_274_1092" x1="121.956" y1="108.532" x2="128.228" y2="69.6776" gradientUnits="userSpaceOnUse">
<stop stop-color="#7AA321"/>
<stop offset="0.04" stop-color="#7CA622"/>
<stop offset="0.26" stop-color="#86B42A"/>
<stop offset="0.54" stop-color="#8CBC2E"/>
<stop offset="1" stop-color="#8EBF30"/>
</linearGradient>
<linearGradient id="paint6_linear_274_1092" x1="161.656" y1="136.5" x2="161.006" y2="91.5986" gradientUnits="userSpaceOnUse">
<stop stop-color="#BFEC81"/>
<stop offset="0.63" stop-color="#F1FFC9"/>
</linearGradient>
<linearGradient id="paint7_linear_274_1092" x1="142.255" y1="74.0646" x2="146.7" y2="54.0007" gradientUnits="userSpaceOnUse">
<stop offset="0.09" stop-color="#754C24"/>
<stop offset="0.27" stop-color="#7D542C" stop-opacity="0.62"/>
<stop offset="0.46" stop-color="#855B33" stop-opacity="0.29"/>
<stop offset="0.6" stop-color="#8A6037" stop-opacity="0.09"/>
<stop offset="0.7" stop-color="#8C6239" stop-opacity="0.01"/>
<stop offset="0.72" stop-color="#8C6239" stop-opacity="0.2"/>
<stop offset="0.77" stop-color="#8C6239" stop-opacity="0.54"/>
<stop offset="0.82" stop-color="#8C6239" stop-opacity="0.79"/>
<stop offset="0.85" stop-color="#8C6239" stop-opacity="0.94"/>
<stop offset="0.88" stop-color="#8C6239"/>
</linearGradient>
<clipPath id="clip0_274_1092">
<rect width="225" height="200" fill="white"/>
</clipPath>
</defs>
</svg>
