<svg width="308" height="308" viewBox="0 0 308 308" fill="none" xmlns="http://www.w3.org/2000/svg">
<path d="M154.755 222.38C157.146 220.505 158.163 217.799 157.025 216.335C155.888 214.872 153.027 215.206 150.635 217.081C148.244 218.956 147.227 221.663 148.364 223.126C149.502 224.589 152.363 224.255 154.755 222.38Z" stroke="#312783" stroke-width="2" stroke-linecap="round" stroke-linejoin="round"/>
<path d="M161.22 219.716H191.144" stroke="#312783" stroke-width="2" stroke-linecap="round" stroke-linejoin="round"/>
<path d="M299.858 47.3912L257.693 145.975L245.323 174.897L198.61 284.119C198.232 285.003 197.214 285.721 196.334 285.721H34.3315C33.4514 285.721 33.0469 285.003 33.4247 284.119L134.673 47.3912C135.051 46.5073 136.069 45.7886 136.949 45.7886H298.952C299.832 45.7886 300.236 46.5073 299.858 47.3912Z" fill="white"/>
<path d="M285.292 55.3862H142.403C141.523 55.3862 140.505 56.1005 140.127 56.9844L133.286 72.979C132.909 73.8628 133.317 74.5771 134.193 74.5771H277.082C277.962 74.5771 278.98 73.8628 279.358 72.979L286.199 56.9844C286.577 56.1005 286.168 55.3862 285.292 55.3862Z" fill="white"/>
<mask id="mask0_4037_114511" style="mask-type:luminance" maskUnits="userSpaceOnUse" x="126" y="83" width="52" height="15">
<path d="M131.798 83.8447H177.532L171.794 97.2547H126.063L131.798 83.8447Z" fill="white"/>
</mask>
<g mask="url(#mask0_4037_114511)">
<mask id="mask1_4037_114511" style="mask-type:luminance" maskUnits="userSpaceOnUse" x="126" y="83" width="52" height="15">
<path d="M131.798 83.8447H177.532L171.794 97.2547H126.063L131.798 83.8447Z" fill="white"/>
</mask>
<g mask="url(#mask1_4037_114511)">
<path d="M164.091 96.9738L162.935 89.809C162.913 89.6438 162.748 89.5322 162.522 89.5322C162.295 89.5322 162.05 89.6394 161.868 89.809L155.401 96.197C155.401 96.197 155.401 96.197 155.396 96.197L154.609 96.9693C154.583 96.9961 154.556 97.0318 154.543 97.063C154.503 97.1612 154.543 97.2416 154.636 97.2461H155.507H155.516C155.61 97.2461 155.712 97.197 155.796 97.1166L157.583 95.3399C157.583 95.3399 157.628 95.3131 157.641 95.3176C158.361 95.514 159.139 95.6122 159.952 95.6122C160.766 95.6122 161.593 95.5185 162.459 95.331C162.482 95.3265 162.495 95.331 162.499 95.3533L162.704 96.6122L162.784 97.1166C162.797 97.197 162.859 97.2461 162.953 97.2461H163.82C163.913 97.2461 164.024 97.1612 164.064 97.063C164.077 97.0318 164.082 96.9961 164.077 96.9693M162.246 94.2686C161.628 94.3757 161.024 94.4293 160.45 94.4293C159.877 94.4293 159.281 94.3712 158.739 94.2596C158.726 94.2596 158.717 94.2462 158.717 94.2328C158.717 94.2195 158.726 94.2016 158.739 94.1882L161.748 91.2107C161.748 91.2107 161.784 91.1884 161.797 91.1884C161.815 91.1884 161.824 91.1973 161.828 91.2107L162.308 94.1971C162.308 94.1971 162.308 94.2284 162.29 94.2418C162.29 94.2418 162.259 94.2686 162.246 94.2686Z" fill="#0030B9"/>
<path d="M135.687 96.9738L134.532 89.809C134.509 89.6438 134.345 89.5322 134.118 89.5322C133.892 89.5322 133.647 89.6394 133.465 89.809L126.997 96.197C126.997 96.197 126.997 96.197 126.993 96.197L126.206 96.9693C126.179 96.9961 126.153 97.0318 126.139 97.063C126.099 97.1612 126.139 97.2416 126.233 97.2461H127.104H127.113C127.206 97.2461 127.309 97.197 127.393 97.1166L129.18 95.3399C129.18 95.3399 129.224 95.3131 129.238 95.3176C129.958 95.514 130.736 95.6122 131.549 95.6122C132.362 95.6122 133.189 95.5185 134.056 95.331C134.078 95.3265 134.092 95.331 134.096 95.3533L134.3 96.6122L134.381 97.1166C134.394 97.197 134.456 97.2461 134.549 97.2461H135.416C135.51 97.2461 135.621 97.1612 135.661 97.063C135.674 97.0318 135.678 96.9961 135.674 96.9693L135.687 96.9738ZM133.856 94.273C133.238 94.3802 132.634 94.4337 132.06 94.4337C131.487 94.4337 130.891 94.3757 130.349 94.2641C130.336 94.2641 130.327 94.2507 130.327 94.2373C130.327 94.2239 130.336 94.2061 130.349 94.1927L133.358 91.2152C133.358 91.2152 133.394 91.1928 133.407 91.1928C133.425 91.1928 133.434 91.2018 133.438 91.2152L133.918 94.2016C133.918 94.2016 133.918 94.2328 133.9 94.2462C133.887 94.2596 133.869 94.273 133.856 94.273Z" fill="#0030B9"/>
<path d="M143.772 92.8173C143.11 92.5495 142.203 92.4959 141.474 92.4557C141.288 92.4468 141.114 92.4334 140.963 92.4245C139.754 92.3263 139.963 91.8442 140.074 91.5853C140.363 90.9157 141.354 90.6925 142.137 90.63C142.537 90.5943 142.932 90.6166 143.306 90.6925C143.332 90.6969 143.377 90.7103 143.417 90.7192L143.688 90.7862C143.688 90.7862 143.723 90.7907 143.741 90.7907C143.857 90.7907 143.99 90.7148 144.066 90.6032L144.492 89.9648C144.492 89.9648 144.519 89.9246 144.528 89.9023C144.577 89.7863 144.541 89.6836 144.439 89.6568L144.199 89.5943C144.168 89.5854 144.128 89.5765 144.075 89.5675C143.581 89.4648 143.057 89.4381 142.514 89.4827C139.919 89.7014 139.074 91.0273 138.834 91.5853C138.541 92.2593 138.354 93.42 140.367 93.5851C140.532 93.5985 140.71 93.6075 140.901 93.6209H140.91C142.781 93.728 143.661 93.9467 143.292 94.8529C143.163 95.1654 142.972 95.402 142.692 95.5895C142.074 96.0047 141.168 96.0984 140.87 96.0984C140.852 96.0984 140.834 96.0984 140.816 96.0984C140.799 96.0984 139.061 96.2011 138.052 95.4868L137.812 95.3127C137.785 95.2904 137.745 95.2815 137.7 95.2815C137.607 95.2815 137.5 95.3306 137.42 95.4154L136.856 96.0047C136.82 96.0448 136.794 96.0805 136.776 96.1252C136.736 96.2145 136.749 96.2993 136.807 96.3439L136.989 96.4912C137.976 97.1921 139.47 97.268 140.065 97.268C140.221 97.268 140.332 97.2635 140.381 97.259C140.648 97.259 142.03 97.2099 143.221 96.4109C143.83 96.0002 144.288 95.4556 144.541 94.8351C144.812 94.1744 144.897 93.2861 143.772 92.8307" fill="#0030B9"/>
<path d="M172.065 92.8173C171.403 92.5495 170.496 92.4959 169.767 92.4557C169.581 92.4468 169.407 92.4334 169.256 92.4245C168.047 92.3263 168.256 91.8442 168.367 91.5853C168.656 90.9157 169.647 90.6925 170.43 90.63C170.83 90.5943 171.225 90.6166 171.599 90.6925C171.625 90.6969 171.67 90.7103 171.71 90.7192L171.981 90.7862C171.981 90.7862 172.016 90.7907 172.034 90.7907C172.15 90.7907 172.283 90.7148 172.359 90.6032L172.785 89.9648C172.785 89.9648 172.812 89.9246 172.821 89.9023C172.87 89.7863 172.834 89.6836 172.732 89.6568L172.492 89.5943C172.461 89.5854 172.421 89.5765 172.368 89.5675C171.874 89.4648 171.35 89.4381 170.807 89.4827C168.212 89.7014 167.367 91.0273 167.127 91.5853C166.834 92.2593 166.647 93.42 168.66 93.5851C168.825 93.5985 169.003 93.6075 169.194 93.6209H169.203C171.074 93.728 171.954 93.9467 171.585 94.8529C171.456 95.1654 171.265 95.402 170.985 95.5895C170.367 96.0047 169.461 96.0984 169.163 96.0984C169.145 96.0984 169.127 96.0984 169.109 96.0984C169.092 96.0984 167.354 96.2011 166.345 95.4868L166.105 95.3127C166.078 95.2904 166.038 95.2815 165.993 95.2815C165.9 95.2815 165.793 95.3306 165.713 95.4154L165.149 96.0047C165.113 96.0448 165.087 96.0805 165.069 96.1252C165.029 96.2145 165.042 96.2993 165.1 96.3439L165.282 96.4912C166.269 97.1921 167.763 97.268 168.358 97.268C168.514 97.268 168.625 97.2635 168.674 97.259C168.94 97.259 170.323 97.2099 171.514 96.4109C172.123 96.0002 172.581 95.4556 172.834 94.8351C173.105 94.1744 173.19 93.2861 172.065 92.8307" fill="#0030B9"/>
<path d="M159.402 87.412C160.411 86.6129 161.175 85.5862 161.504 84.5907C161.557 84.4077 161.62 84.0729 161.464 83.93C161.442 83.9122 161.42 83.8988 161.402 83.8854C161.353 83.8586 161.3 83.8452 161.233 83.8497C161.224 83.8497 161.215 83.8541 161.206 83.8631C160.584 84.4166 159.477 85.2737 157.726 86.2201C156.837 86.7022 156.17 87.0236 155.614 87.287L155.463 87.3584C155.303 87.4343 155.157 87.5057 155.019 87.5727C154.752 87.7111 154.508 87.8495 154.29 87.9878C153.774 88.3226 152.712 89.1038 152.134 90.1975C152.134 90.1975 151.627 91.0769 151.694 92.2465L151.841 93.492L151.912 94.0857L151.925 94.1884C151.925 94.2018 151.925 94.2196 151.907 94.233C151.907 94.233 151.876 94.2598 151.863 94.2598C151.245 94.3669 150.64 94.4205 150.067 94.4205C149.494 94.4205 148.898 94.3625 148.356 94.2509C148.342 94.2509 148.333 94.2375 148.333 94.2241C148.333 94.2107 148.342 94.1928 148.356 94.1794L148.471 94.0634L150.218 92.2688C151.298 91.0903 151.552 90.1975 151.552 90.1975C151.916 89.0771 151.494 88.2825 151.267 87.9611C151.169 87.8316 151.054 87.6977 150.912 87.5682C150.832 87.5013 150.747 87.4298 150.649 87.3539L150.56 87.2825C150.232 87.0191 149.84 86.6933 149.365 86.2156C148.422 85.2692 148.049 84.4122 147.902 83.8586C147.902 83.8497 147.893 83.8452 147.885 83.8452C147.822 83.8452 147.756 83.8541 147.685 83.8809C147.653 83.8943 147.622 83.9077 147.582 83.9256C147.302 84.0684 147.084 84.4032 146.978 84.5862C146.449 85.5817 146.338 86.6129 146.667 87.4075C146.671 87.4209 146.667 87.4388 146.658 87.4522C145.818 88.5905 145.693 89.9297 146.355 90.7064L146.573 91.0725C146.573 91.0725 146.578 91.0948 146.573 91.1127C146.093 92.0992 146.204 93.0724 146.853 93.5902L147.258 93.9116C147.258 93.9116 147.271 93.9295 147.267 93.9429C147.267 93.9562 147.258 93.9696 147.244 93.9786L147.204 94.0143L145.004 96.1883C145.004 96.1883 145.004 96.1883 145 96.1883L144.213 96.9605C144.186 96.9873 144.16 97.023 144.146 97.0543C144.106 97.1525 144.146 97.2328 144.24 97.2373H145.111H145.12C145.213 97.2373 145.315 97.1882 145.4 97.1078L147.187 95.3312C147.187 95.3312 147.231 95.3044 147.244 95.3088C147.965 95.5053 148.742 95.6035 149.556 95.6035C150.369 95.6035 151.196 95.5097 152.063 95.3222C152.085 95.3222 152.098 95.3222 152.103 95.3446L152.307 96.6034L152.387 97.1078C152.401 97.1882 152.463 97.2373 152.556 97.2373H153.423C153.516 97.2373 153.627 97.1525 153.668 97.0543C153.681 97.023 153.685 96.9873 153.681 96.9605L153.205 94.0098L153.196 93.9741C153.196 93.9741 153.196 93.9473 153.205 93.9339C153.214 93.9205 153.227 93.9116 153.241 93.9027L153.925 93.5813C155.019 93.0634 155.961 92.0903 156.326 91.1037C156.33 91.0903 156.343 91.0769 156.357 91.0636L156.886 90.6975C158.21 89.9208 159.228 88.586 159.366 87.4432C159.366 87.4254 159.379 87.412 159.397 87.3986" fill="#0030B9"/>
</g>
</g>
<path d="M188.387 97.8885H267.112C267.992 97.8885 269.01 97.1742 269.388 96.2903L272.713 88.5229C273.091 87.6391 272.682 86.9248 271.806 86.9248H193.08C192.2 86.9248 191.182 87.6391 190.805 88.5229L187.48 96.2903C187.102 97.1742 187.511 97.8885 188.387 97.8885Z" fill="white"/>
<path d="M114.253 121.195H257.142C258.022 121.195 259.04 120.48 259.418 119.596L262.743 111.829C263.12 110.945 262.712 110.231 261.836 110.231H118.947C118.067 110.231 117.049 110.945 116.671 111.829L113.346 119.596C112.968 120.48 113.377 121.195 114.253 121.195Z" fill="white"/>
<path d="M95.1971 165.755H188.711C189.591 165.755 190.609 165.04 190.987 164.157L194.312 156.389C194.69 155.505 194.281 154.791 193.405 154.791H99.891C99.0109 154.791 97.993 155.505 97.6152 156.389L94.2903 164.157C93.9125 165.04 94.3214 165.755 95.1971 165.755Z" fill="white"/>
<path d="M152.289 150.903H101.549C100.669 150.903 100.265 150.189 100.642 149.305C101.02 148.421 102.038 147.707 102.918 147.707H153.658C154.538 147.707 154.943 148.421 154.565 149.305C154.187 150.189 153.169 150.903 152.289 150.903Z" fill="white"/>
<path d="M78.8748 203.913H172.389C173.269 203.913 174.287 203.199 174.665 202.315L184.048 180.379C184.426 179.495 184.017 178.781 183.141 178.781H89.6273C88.7472 178.781 87.7292 179.495 87.3514 180.379L77.968 202.315C77.5902 203.199 77.9991 203.913 78.8748 203.913Z" fill="white"/>
<path d="M142.025 174.897H91.2856C90.4055 174.897 90.001 174.183 90.3788 173.299C90.7566 172.415 91.7745 171.701 92.6547 171.701H143.394C144.275 171.701 144.679 172.415 144.301 173.299C143.923 174.183 142.905 174.897 142.025 174.897Z" fill="white"/>
<path d="M191.275 275.209H48.3862C47.5061 275.209 47.1016 274.494 47.4794 273.611L71.9136 216.484C72.2914 215.6 73.3093 214.886 74.1895 214.886H217.079C217.959 214.886 218.363 215.6 217.985 216.484L193.551 273.611C193.173 274.494 192.155 275.209 191.275 275.209Z" fill="white"/>
<path d="M183.693 273.026H21.6899C20.8098 273.026 20.4053 272.312 20.7831 271.428L122.031 34.6963C122.409 33.8124 123.427 33.0981 124.307 33.0981H286.31C287.19 33.0981 287.595 33.8124 287.217 34.6963L185.968 271.428C185.591 272.312 184.573 273.026 183.693 273.026Z" fill="white"/>
<path d="M272.651 42.6914H129.761C128.881 42.6914 127.863 43.4057 127.486 44.2895L120.645 60.2841C120.267 61.168 120.676 61.8823 121.552 61.8823H264.441C265.321 61.8823 266.339 61.168 266.717 60.2841L273.557 44.2895C273.935 43.4057 273.526 42.6914 272.651 42.6914Z" fill="white"/>
<mask id="mask2_4037_114511" style="mask-type:luminance" maskUnits="userSpaceOnUse" x="113" y="71" width="52" height="14">
<path d="M119.155 71.1533H164.89L159.156 84.5588H113.421L119.155 71.1533Z" fill="white"/>
</mask>
<g mask="url(#mask2_4037_114511)">
<mask id="mask3_4037_114511" style="mask-type:luminance" maskUnits="userSpaceOnUse" x="113" y="71" width="52" height="14">
<path d="M119.155 71.1533H164.89L159.156 84.5588H113.421L119.155 71.1533Z" fill="white"/>
</mask>
<g mask="url(#mask3_4037_114511)">
<path d="M151.448 84.278L150.292 77.1132C150.27 76.948 150.106 76.8364 149.879 76.8364C149.652 76.8364 149.408 76.9436 149.226 77.1132L142.758 83.5012C142.758 83.5012 142.758 83.5012 142.754 83.5012L141.967 84.2735C141.94 84.3003 141.914 84.336 141.9 84.3672C141.86 84.4655 141.9 84.5458 141.994 84.5503H142.865H142.874C142.967 84.5503 143.069 84.5012 143.154 84.4208L144.941 82.6441C144.941 82.6441 144.985 82.6173 144.998 82.6218C145.718 82.8182 146.496 82.9164 147.31 82.9164C148.123 82.9164 148.95 82.8227 149.817 82.6352C149.839 82.6307 149.852 82.6352 149.857 82.6575L150.061 83.9164L150.141 84.4208C150.155 84.5012 150.217 84.5503 150.31 84.5503H151.177C151.27 84.5503 151.381 84.4655 151.421 84.3672C151.435 84.336 151.439 84.3003 151.435 84.2735M149.603 81.5728C148.986 81.6799 148.381 81.7335 147.808 81.7335C147.234 81.7335 146.639 81.6754 146.096 81.5638C146.083 81.5638 146.074 81.5504 146.074 81.537C146.074 81.5237 146.083 81.5058 146.096 81.4924L149.106 78.5149C149.106 78.5149 149.141 78.4926 149.154 78.4926C149.172 78.4926 149.181 78.5015 149.186 78.5149L149.666 81.5013C149.666 81.5013 149.666 81.5326 149.648 81.546C149.648 81.546 149.617 81.5728 149.603 81.5728Z" fill="#0030B9"/>
<path d="M123.045 84.278L121.889 77.1132C121.867 76.948 121.702 76.8364 121.476 76.8364C121.249 76.8364 121.004 76.9436 120.822 77.1132L114.355 83.5012C114.355 83.5012 114.355 83.5012 114.35 83.5012L113.564 84.2735C113.537 84.3003 113.51 84.336 113.497 84.3672C113.457 84.4655 113.497 84.5458 113.59 84.5503H114.461H114.47C114.564 84.5503 114.666 84.5012 114.75 84.4208L116.537 82.6441C116.537 82.6441 116.582 82.6173 116.595 82.6218C117.315 82.8182 118.093 82.9164 118.906 82.9164C119.72 82.9164 120.547 82.8227 121.413 82.6352C121.436 82.6307 121.449 82.6352 121.453 82.6575L121.658 83.9164L121.738 84.4208C121.751 84.5012 121.813 84.5503 121.907 84.5503H122.774C122.867 84.5503 122.978 84.4655 123.018 84.3672C123.031 84.336 123.036 84.3003 123.031 84.2735L123.045 84.278ZM121.213 81.5772C120.596 81.6844 119.991 81.7379 119.418 81.7379C118.844 81.7379 118.249 81.6799 117.706 81.5683C117.693 81.5683 117.684 81.5549 117.684 81.5415C117.684 81.5281 117.693 81.5103 117.706 81.4969L120.716 78.5194C120.716 78.5194 120.751 78.497 120.764 78.497C120.782 78.497 120.791 78.506 120.796 78.5194L121.276 81.5058C121.276 81.5058 121.276 81.537 121.258 81.5504C121.245 81.5638 121.227 81.5772 121.213 81.5772Z" fill="#0030B9"/>
<path d="M131.13 80.122C130.467 79.8542 129.561 79.8006 128.832 79.7604C128.645 79.7515 128.472 79.7381 128.321 79.7292C127.111 79.631 127.32 79.1489 127.432 78.89C127.72 78.2203 128.712 77.9971 129.494 77.9346C129.894 77.8989 130.29 77.9213 130.663 77.9971C130.69 78.0016 130.734 78.015 130.774 78.0239L131.045 78.0909C131.045 78.0909 131.081 78.0954 131.099 78.0954C131.214 78.0954 131.348 78.0195 131.423 77.9079L131.85 77.2695C131.85 77.2695 131.877 77.2293 131.885 77.207C131.934 77.0909 131.899 76.9883 131.797 76.9615L131.557 76.899C131.525 76.8901 131.485 76.8811 131.432 76.8722C130.939 76.7695 130.414 76.7428 129.872 76.7874C127.276 77.0061 126.431 78.3319 126.191 78.89C125.898 79.564 125.711 80.7247 127.725 80.8898C127.889 80.9032 128.067 80.9122 128.258 80.9255H128.267C130.139 81.0327 131.019 81.2514 130.65 82.1576C130.521 82.4701 130.33 82.7067 130.05 82.8942C129.432 83.3093 128.525 83.4031 128.227 83.4031C128.209 83.4031 128.192 83.4031 128.174 83.4031C128.156 83.4031 126.418 83.5058 125.409 82.7915L125.169 82.6174C125.142 82.5951 125.102 82.5862 125.058 82.5862C124.965 82.5862 124.858 82.6353 124.778 82.7201L124.213 83.3093C124.178 83.3495 124.151 83.3852 124.133 83.4299C124.093 83.5191 124.107 83.604 124.164 83.6486L124.347 83.7959C125.333 84.4968 126.827 84.5727 127.423 84.5727C127.578 84.5727 127.689 84.5682 127.738 84.5637C128.005 84.5637 129.387 84.5146 130.579 83.7156C131.188 83.3049 131.645 82.7603 131.899 82.1398C132.17 81.4791 132.254 80.5907 131.13 80.1354" fill="#0030B9"/>
<path d="M159.427 80.122C158.764 79.8542 157.858 79.8006 157.129 79.7604C156.942 79.7515 156.769 79.7381 156.617 79.7292C155.408 79.631 155.617 79.1489 155.728 78.89C156.017 78.2203 157.009 77.9971 157.791 77.9346C158.191 77.8989 158.587 77.9213 158.96 77.9971C158.987 78.0016 159.031 78.015 159.071 78.0239L159.342 78.0909C159.342 78.0909 159.378 78.0954 159.396 78.0954C159.511 78.0954 159.644 78.0195 159.72 77.9079L160.147 77.2695C160.147 77.2695 160.173 77.2293 160.182 77.207C160.231 77.0909 160.196 76.9883 160.093 76.9615L159.853 76.899C159.822 76.8901 159.782 76.8811 159.729 76.8722C159.236 76.7695 158.711 76.7428 158.169 76.7874C155.573 77.0061 154.728 78.3319 154.488 78.89C154.195 79.564 154.008 80.7247 156.022 80.8898C156.186 80.9032 156.364 80.9122 156.555 80.9255H156.564C158.435 81.0327 159.316 81.2514 158.947 82.1576C158.818 82.4701 158.627 82.7067 158.347 82.8942C157.729 83.3093 156.822 83.4031 156.524 83.4031C156.506 83.4031 156.489 83.4031 156.471 83.4031C156.453 83.4031 154.715 83.5058 153.706 82.7915L153.466 82.6174C153.439 82.5951 153.399 82.5862 153.355 82.5862C153.261 82.5862 153.155 82.6353 153.075 82.7201L152.51 83.3093C152.475 83.3495 152.448 83.3852 152.43 83.4299C152.39 83.5191 152.404 83.604 152.461 83.6486L152.644 83.7959C153.63 84.4968 155.124 84.5727 155.72 84.5727C155.875 84.5727 155.986 84.5682 156.035 84.5637C156.302 84.5637 157.684 84.5146 158.875 83.7156C159.484 83.3049 159.942 82.7603 160.196 82.1398C160.467 81.4791 160.551 80.5907 159.427 80.1354" fill="#0030B9"/>
<path d="M146.759 74.7162C147.768 73.9171 148.533 72.8904 148.861 71.8949C148.915 71.7119 148.977 71.3771 148.821 71.2342C148.799 71.2164 148.777 71.203 148.759 71.1896C148.71 71.1628 148.657 71.1494 148.59 71.1539C148.581 71.1539 148.573 71.1583 148.564 71.1673C147.941 71.7208 146.835 72.5779 145.083 73.5243C144.194 74.0064 143.527 74.3278 142.972 74.5912L142.821 74.6626C142.661 74.7385 142.514 74.8099 142.376 74.8769C142.109 75.0153 141.865 75.1536 141.647 75.292C141.132 75.6268 140.069 76.408 139.491 77.5017C139.491 77.5017 138.985 78.3811 139.051 79.5507L139.198 80.7962L139.269 81.3899L139.282 81.4926C139.282 81.506 139.282 81.5238 139.265 81.5372C139.265 81.5372 139.234 81.564 139.22 81.564C138.602 81.6711 137.998 81.7247 137.424 81.7247C136.851 81.7247 136.255 81.6667 135.713 81.5551C135.7 81.5551 135.691 81.5417 135.691 81.5283C135.691 81.5149 135.7 81.497 135.713 81.4836L135.829 81.3676L137.576 79.573C138.656 78.3945 138.909 77.5017 138.909 77.5017C139.274 76.3813 138.851 75.5867 138.625 75.2652C138.527 75.1358 138.411 75.0019 138.269 74.8724C138.189 74.8055 138.105 74.734 138.007 74.6581L137.918 74.5867C137.589 74.3233 137.198 73.9975 136.722 73.5198C135.78 72.5734 135.406 71.7163 135.26 71.1628C135.26 71.1539 135.251 71.1494 135.242 71.1494C135.18 71.1494 135.113 71.1583 135.042 71.1851C135.011 71.1985 134.98 71.2119 134.94 71.2298C134.66 71.3726 134.442 71.7074 134.335 71.8904C133.806 72.8859 133.695 73.9171 134.024 74.7117C134.028 74.7251 134.024 74.743 134.015 74.7563C133.175 75.8947 133.051 77.2339 133.713 78.0106L133.931 78.3767C133.931 78.3767 133.935 78.399 133.931 78.4169C133.451 79.4034 133.562 80.3766 134.211 80.8944L134.615 81.2158C134.615 81.2158 134.629 81.2337 134.624 81.247C134.624 81.2604 134.615 81.2738 134.602 81.2828L134.562 81.3185L132.362 83.4925C132.362 83.4925 132.362 83.4925 132.357 83.4925L131.57 84.2647C131.544 84.2915 131.517 84.3272 131.504 84.3585C131.464 84.4567 131.504 84.537 131.597 84.5415H132.468H132.477C132.571 84.5415 132.673 84.4924 132.757 84.412L134.544 82.6354C134.544 82.6354 134.589 82.6086 134.602 82.613C135.322 82.8095 136.1 82.9077 136.913 82.9077C137.727 82.9077 138.554 82.8139 139.42 82.6264C139.443 82.6264 139.456 82.6264 139.46 82.6488L139.665 83.9076L139.745 84.412C139.758 84.4924 139.82 84.5415 139.914 84.5415H140.78C140.874 84.5415 140.985 84.4567 141.025 84.3585C141.038 84.3272 141.043 84.2915 141.038 84.2647L140.563 81.314L140.554 81.2783C140.554 81.2783 140.554 81.2515 140.563 81.2381C140.572 81.2247 140.585 81.2158 140.598 81.2069L141.283 80.8855C142.376 80.3676 143.319 79.3945 143.683 78.4079C143.687 78.3945 143.701 78.3811 143.714 78.3677L144.243 78.0017C145.568 77.225 146.586 75.8902 146.723 74.7474C146.723 74.7296 146.737 74.7162 146.755 74.7028" fill="#0030B9"/>
</g>
</g>
<path d="M175.745 85.1931H254.47C255.351 85.1931 256.368 84.4789 256.746 83.595L260.071 75.8276C260.449 74.9437 260.04 74.2295 259.164 74.2295H180.439C179.559 74.2295 178.541 74.9437 178.163 75.8276L174.838 83.595C174.46 84.4789 174.869 85.1931 175.745 85.1931Z" fill="white"/>
<path d="M101.616 108.504H244.505C245.385 108.504 246.403 107.79 246.781 106.906L250.106 99.1387C250.484 98.2548 250.075 97.5405 249.199 97.5405H106.31C105.43 97.5405 104.412 98.2548 104.034 99.1387L100.709 106.906C100.331 107.79 100.74 108.504 101.616 108.504Z" fill="white"/>
<path d="M82.5555 153.06H176.07C176.95 153.06 177.968 152.346 178.345 151.462L181.67 143.694C182.048 142.81 181.639 142.096 180.763 142.096H87.2494C86.3693 142.096 85.3514 142.81 84.9736 143.694L81.6487 151.462C81.2709 152.346 81.6798 153.06 82.5555 153.06Z" fill="white"/>
<path d="M139.647 138.208H88.9077C88.0275 138.208 87.6231 137.494 88.0009 136.61C88.3787 135.726 89.3966 135.012 90.2767 135.012H141.016C141.897 135.012 142.301 135.726 141.923 136.61C141.545 137.494 140.528 138.208 139.647 138.208Z" fill="white"/>
<path d="M66.2332 191.223H159.747C160.627 191.223 161.645 190.509 162.023 189.625L171.406 167.688C171.784 166.805 171.375 166.09 170.5 166.09H76.9857C76.1056 166.09 75.0876 166.805 74.7098 167.688L65.3264 189.625C64.9486 190.509 65.3575 191.223 66.2332 191.223Z" fill="white"/>
<path d="M129.389 162.202H78.6489C77.7688 162.202 77.3643 161.488 77.7421 160.604C78.1199 159.72 79.1378 159.006 80.0179 159.006H130.758C131.638 159.006 132.042 159.72 131.664 160.604C131.287 161.488 130.269 162.202 129.389 162.202Z" fill="white"/>
<path d="M178.635 262.513H35.7456C34.8655 262.513 34.4609 261.799 34.8388 260.915L59.273 203.789C59.6508 202.905 60.6687 202.191 61.5488 202.191H204.438C205.318 202.191 205.723 202.905 205.345 203.789L180.911 260.915C180.533 261.799 179.515 262.513 178.635 262.513Z" fill="white"/>
<path d="M282.474 45.7886L185.973 271.423C185.595 272.307 184.577 273.021 183.697 273.021H41.8438" stroke="#39AFFF" stroke-width="2" stroke-linecap="round" stroke-linejoin="round"/>
<path d="M170.967 260.33H9.04831C8.1682 260.33 7.76368 259.62 8.14151 258.741L109.337 23.5892C109.714 22.7098 110.732 22 111.612 22H273.531C274.411 22 274.815 22.7098 274.437 23.5892L173.242 258.741C172.865 259.62 171.847 260.33 170.967 260.33Z" fill="white"/>
<path d="M259.875 31.5352H117.062C116.182 31.5352 115.164 32.2449 114.786 33.1244L107.949 49.0118C107.572 49.8912 107.981 50.601 108.856 50.601H251.67C252.55 50.601 253.568 49.8912 253.946 49.0118L260.782 33.1244C261.16 32.2449 260.751 31.5352 259.875 31.5352Z" stroke="#D2DBEA" stroke-width="2" stroke-linecap="round" stroke-linejoin="round"/>
<mask id="mask4_4037_114511" style="mask-type:luminance" maskUnits="userSpaceOnUse" x="100" y="59" width="53" height="15">
<path d="M106.461 59.8018H152.174L146.439 73.1224H100.731L106.461 59.8018Z" fill="white"/>
</mask>
<g mask="url(#mask4_4037_114511)">
<mask id="mask5_4037_114511" style="mask-type:luminance" maskUnits="userSpaceOnUse" x="100" y="59" width="53" height="15">
<path d="M106.461 59.8018H152.174L146.439 73.1224H100.731L106.461 59.8018Z" fill="white"/>
</mask>
<g mask="url(#mask5_4037_114511)">
<path d="M138.74 72.8407L137.584 65.7205C137.562 65.5554 137.397 65.4482 137.17 65.4482C136.944 65.4482 136.699 65.5554 136.517 65.725L130.054 72.0729C130.054 72.0729 130.054 72.0729 130.05 72.0729L129.263 72.8407C129.236 72.8675 129.209 72.9032 129.196 72.9344C129.156 73.0326 129.196 73.113 129.289 73.113H130.161H130.17C130.263 73.113 130.365 73.0639 130.45 72.9835L132.236 71.2158C132.236 71.2158 132.281 71.189 132.294 71.1934C133.014 71.3854 133.792 71.4836 134.606 71.4836C135.419 71.4836 136.246 71.3899 137.113 71.2024C137.135 71.2024 137.148 71.2024 137.153 71.2247L137.357 72.4746L137.437 72.9791C137.45 73.0594 137.513 73.1085 137.606 73.1085H138.473C138.566 73.1085 138.677 73.0237 138.717 72.9255C138.731 72.8942 138.735 72.8585 138.731 72.8317M136.904 70.1489C136.286 70.256 135.681 70.3051 135.108 70.3051C134.535 70.3051 133.939 70.2471 133.397 70.1355C133.383 70.1355 133.374 70.1221 133.374 70.1087C133.374 70.0953 133.383 70.0774 133.397 70.064L136.406 67.1089C136.406 67.1089 136.441 67.0865 136.455 67.0865C136.473 67.0865 136.481 67.0955 136.486 67.1089L136.966 70.0774C136.966 70.0774 136.966 70.1087 136.948 70.1221C136.948 70.1221 136.917 70.1489 136.904 70.1489Z" fill="#0030B9"/>
<path d="M110.35 72.8407L109.194 65.7205C109.172 65.5554 109.008 65.4482 108.781 65.4482C108.554 65.4482 108.31 65.5554 108.127 65.725L101.664 72.0729C101.664 72.0729 101.664 72.0729 101.66 72.0729L100.873 72.8407C100.846 72.8675 100.82 72.9032 100.806 72.9344C100.766 73.0326 100.806 73.113 100.9 73.113H101.771H101.78C101.873 73.113 101.976 73.0639 102.06 72.9835L103.847 71.2158C103.847 71.2158 103.891 71.189 103.905 71.1934C104.625 71.3854 105.403 71.4836 106.216 71.4836C107.029 71.4836 107.856 71.3899 108.723 71.2024C108.745 71.2024 108.759 71.2024 108.763 71.2247L108.967 72.4746L109.047 72.9791C109.061 73.0594 109.123 73.1085 109.216 73.1085H110.083C110.177 73.1085 110.288 73.0237 110.328 72.9255C110.341 72.8942 110.345 72.8585 110.341 72.8317L110.35 72.8407ZM108.523 70.1578C107.905 70.2649 107.301 70.314 106.727 70.314C106.154 70.314 105.558 70.256 105.016 70.1444C105.003 70.1444 104.994 70.131 104.994 70.1176C104.994 70.1042 105.003 70.0864 105.016 70.073L108.025 67.1178C108.025 67.1178 108.061 67.0955 108.074 67.0955C108.092 67.0955 108.101 67.1044 108.105 67.1178L108.585 70.0864C108.585 70.0864 108.585 70.1176 108.567 70.131C108.554 70.1444 108.536 70.1578 108.523 70.1578Z" fill="#0030B9"/>
<path d="M118.431 68.7161C117.769 68.4482 116.862 68.3991 116.133 68.3545C115.946 68.3455 115.773 68.3321 115.622 68.3232C114.413 68.225 114.622 67.7474 114.733 67.4884C115.022 66.8233 116.013 66.6046 116.795 66.5376C117.195 66.5019 117.591 66.5242 117.964 66.6001C117.991 66.6046 118.036 66.618 118.071 66.6269L118.342 66.6938C118.342 66.6938 118.378 66.6983 118.396 66.6983C118.511 66.6983 118.644 66.6224 118.72 66.5108L119.147 65.8769C119.147 65.8769 119.173 65.8368 119.182 65.8144C119.231 65.6984 119.196 65.5957 119.093 65.5689L118.853 65.5064C118.822 65.4975 118.782 65.4886 118.729 65.4796C118.236 65.377 117.711 65.3502 117.169 65.3948C114.577 65.6136 113.733 66.9304 113.488 67.484C113.195 68.1536 113.008 69.3053 115.017 69.4705C115.182 69.4839 115.36 69.4928 115.551 69.5062H115.56C117.431 69.6133 118.311 69.8321 117.942 70.7293C117.813 71.0418 117.622 71.2739 117.342 71.4614C116.724 71.8766 115.817 71.9659 115.52 71.9659C115.502 71.9659 115.484 71.9659 115.466 71.9659C115.449 71.9659 113.711 72.0685 112.702 71.3588L112.461 71.1847C112.435 71.1623 112.395 71.1534 112.35 71.1534C112.257 71.1534 112.15 71.2025 112.07 71.2873L111.51 71.8721C111.475 71.9078 111.448 71.948 111.43 71.9882C111.39 72.0775 111.404 72.1623 111.461 72.2069L111.644 72.3498C112.63 73.0462 114.124 73.122 114.72 73.122C114.875 73.122 114.986 73.1176 115.035 73.1131C115.302 73.1131 116.684 73.064 117.875 72.2694C118.484 71.8632 118.942 71.323 119.196 70.7025C119.467 70.0463 119.551 69.1669 118.427 68.7116" fill="#0030B9"/>
<path d="M146.71 68.7161C146.048 68.4482 145.141 68.3991 144.412 68.3545C144.225 68.3455 144.052 68.3321 143.901 68.3232C142.692 68.225 142.9 67.7474 143.012 67.4884C143.301 66.8233 144.292 66.6046 145.074 66.5376C145.474 66.5019 145.87 66.5242 146.243 66.6001C146.27 66.6046 146.314 66.618 146.354 66.6269L146.625 66.6938C146.625 66.6938 146.661 66.6983 146.679 66.6983C146.794 66.6983 146.928 66.6224 147.003 66.5108L147.43 65.8769C147.43 65.8769 147.457 65.8368 147.466 65.8144C147.514 65.6984 147.479 65.5957 147.377 65.5689L147.137 65.5064C147.105 65.4975 147.065 65.4886 147.012 65.4796C146.519 65.377 145.994 65.3502 145.452 65.3948C142.861 65.6136 142.016 66.9304 141.771 67.484C141.478 68.1536 141.291 69.3053 143.301 69.4705C143.465 69.4839 143.643 69.4928 143.834 69.5062H143.843C145.714 69.6133 146.594 69.8321 146.225 70.7293C146.096 71.0418 145.905 71.2739 145.625 71.4614C145.007 71.8766 144.101 71.9659 143.803 71.9659C143.785 71.9659 143.767 71.9659 143.749 71.9659C143.732 71.9659 141.994 72.0685 140.985 71.3588L140.745 71.1847C140.718 71.1623 140.678 71.1534 140.634 71.1534C140.54 71.1534 140.434 71.2025 140.354 71.2873L139.793 71.8721C139.758 71.9078 139.731 71.948 139.713 71.9882C139.673 72.0775 139.687 72.1623 139.745 72.2069L139.927 72.3498C140.914 73.0462 142.407 73.122 143.003 73.122C143.158 73.122 143.269 73.1176 143.318 73.1131C143.585 73.1131 144.967 73.064 146.159 72.2694C146.768 71.8632 147.225 71.323 147.479 70.7025C147.75 70.0463 147.834 69.1669 146.71 68.7116" fill="#0030B9"/>
<path d="M134.05 63.3413C135.059 62.5512 135.824 61.5289 136.152 60.5379C136.206 60.3549 136.268 60.0245 136.112 59.8817C136.09 59.8638 136.068 59.8504 136.05 59.8371C136.001 59.8103 135.948 59.7969 135.881 59.8013C135.872 59.8013 135.864 59.8058 135.855 59.8147C135.237 60.3638 134.13 61.2164 132.379 62.1583C131.49 62.636 130.823 62.9574 130.267 63.2208L130.116 63.2922C129.956 63.3681 129.809 63.4351 129.672 63.502C129.405 63.6404 129.161 63.7788 128.943 63.9172C128.427 64.2475 127.365 65.0243 126.787 66.109C126.787 66.109 126.28 66.984 126.347 68.1446L126.493 69.3856L126.565 69.9749L126.578 70.0775C126.578 70.0909 126.578 70.1088 126.56 70.1222C126.56 70.1222 126.529 70.149 126.516 70.149C125.898 70.2561 125.293 70.3052 124.72 70.3052C124.147 70.3052 123.551 70.2472 123.009 70.1356C122.995 70.1356 122.986 70.1222 122.986 70.1088C122.986 70.0954 122.995 70.0775 123.009 70.0641L123.124 69.9481L124.867 68.1625C125.947 66.9929 126.2 66.1046 126.2 66.1046C126.565 64.9885 126.142 64.2029 125.916 63.8859C125.818 63.7565 125.702 63.627 125.56 63.4976C125.48 63.4306 125.396 63.3636 125.298 63.2877L125.209 63.2163C124.88 62.9529 124.489 62.6315 124.013 62.1539C123.071 61.212 122.697 60.3593 122.551 59.8103C122.551 59.8013 122.542 59.7969 122.533 59.7969C122.471 59.7969 122.404 59.8058 122.333 59.8326C122.302 59.846 122.271 59.8594 122.231 59.8772C121.951 60.0201 121.733 60.3504 121.626 60.5334C121.102 61.5245 120.986 62.5467 121.315 63.3369C121.319 63.3502 121.315 63.3681 121.306 63.3815C120.466 64.5154 120.342 65.8412 121.004 66.6134L121.222 66.975C121.222 66.975 121.226 66.9974 121.222 67.0107C120.742 67.9928 120.853 68.9571 121.502 69.4704L121.906 69.7918C121.906 69.7918 121.92 69.8097 121.915 69.8231C121.915 69.8365 121.906 69.8499 121.893 69.8588L121.853 69.8945L119.653 72.0551C119.653 72.0551 119.653 72.0551 119.648 72.0551L118.861 72.8229C118.835 72.8497 118.808 72.8854 118.795 72.9167C118.755 73.0149 118.795 73.0952 118.888 73.0952H119.759H119.768C119.862 73.0952 119.964 73.0461 120.048 72.9658L121.835 71.198C121.835 71.198 121.88 71.1712 121.893 71.1757C122.613 71.3676 123.391 71.4658 124.204 71.4658C125.018 71.4658 125.845 71.3721 126.711 71.1846C126.734 71.1846 126.747 71.1846 126.751 71.2069L126.956 72.4569L127.036 72.9568C127.049 73.0372 127.111 73.0863 127.205 73.0863H128.071C128.165 73.0863 128.276 73.0015 128.316 72.9033C128.329 72.872 128.334 72.8363 128.329 72.8095L127.854 69.8811L127.845 69.8454C127.845 69.8454 127.845 69.8186 127.854 69.8052C127.863 69.7918 127.876 69.7829 127.889 69.774L128.569 69.4526C129.663 68.9392 130.605 67.975 130.97 66.9929C130.974 66.9795 130.987 66.9661 131.001 66.9572L131.53 66.5956C132.854 65.8278 133.872 64.4975 134.01 63.3636C134.01 63.3458 134.023 63.3324 134.041 63.319" fill="#0030B9"/>
</g>
</g>
<path d="M163.023 73.7517H241.709C242.589 73.7517 243.607 73.0419 243.985 72.1625L247.305 64.4442C247.683 63.5648 247.274 62.855 246.398 62.855H167.713C166.833 62.855 165.815 63.5648 165.437 64.4442L162.116 72.1625C161.739 73.0419 162.148 73.7517 163.023 73.7517Z" stroke="#D2DBEA" stroke-width="2" stroke-linecap="round" stroke-linejoin="round"/>
<path d="M88.9295 96.9021H231.743C232.623 96.9021 233.641 96.1923 234.019 95.3129L237.339 87.5946C237.717 86.7152 237.308 86.0054 236.433 86.0054H93.619C92.7388 86.0054 91.7209 86.7152 91.3431 87.5946L88.0227 95.3129C87.6449 96.1923 88.0538 96.9021 88.9295 96.9021Z" stroke="#D2DBEA" stroke-width="2" stroke-linecap="round" stroke-linejoin="round"/>
<path d="M69.8826 141.167H163.348C164.228 141.167 165.246 140.457 165.624 139.578L168.944 131.86C169.322 130.98 168.913 130.271 168.037 130.271H74.5721C73.692 130.271 72.6741 130.98 72.2963 131.86L68.9758 139.578C68.598 140.457 69.007 141.167 69.8826 141.167Z" stroke="#D2DBEA" stroke-width="2" stroke-linecap="round" stroke-linejoin="round"/>
<path d="M126.943 126.413H76.2299C75.3498 126.413 74.9453 125.703 75.3232 124.824C75.701 123.945 76.7189 123.235 77.599 123.235H128.312C129.192 123.235 129.597 123.945 129.219 124.824C128.841 125.703 127.823 126.413 126.943 126.413Z" fill="#A7E35D"/>
<path d="M53.5701 179.071H147.035C147.915 179.071 148.933 178.361 149.311 177.482L158.69 155.693C159.068 154.813 158.659 154.104 157.783 154.104H64.3181C63.438 154.104 62.4201 154.813 62.0423 155.693L52.6633 177.482C52.2855 178.361 52.6944 179.071 53.5701 179.071Z" stroke="#D2DBEA" stroke-width="2" stroke-linecap="round" stroke-linejoin="round"/>
<path d="M116.688 150.243H65.975C65.0949 150.243 64.6904 149.533 65.0683 148.654C65.4461 147.774 66.464 147.064 67.3441 147.064H118.057C118.937 147.064 119.342 147.774 118.964 148.654C118.586 149.533 117.568 150.243 116.688 150.243Z" fill="#A7E35D"/>
<path d="M165.908 249.888H23.0942C22.2141 249.888 21.8096 249.179 22.1874 248.299L46.6083 191.553C46.9861 190.673 48.004 189.963 48.8841 189.963H191.698C192.578 189.963 192.982 190.673 192.604 191.553L168.184 248.299C167.806 249.179 166.788 249.888 165.908 249.888Z" stroke="#D2DBEA" stroke-width="2" stroke-linecap="round" stroke-linejoin="round"/>
<path d="M270.348 33.0933L173.331 258.728C172.954 259.611 171.936 260.326 171.056 260.326H29.2021" stroke="#39AFFF" stroke-width="2" stroke-linecap="round" stroke-linejoin="round"/>
<path d="M257.698 145.975L198.615 284.119C198.237 285.003 197.219 285.717 196.339 285.717H111.546" stroke="#39AFFF" stroke-width="2" stroke-linecap="round" stroke-linejoin="round"/>
<path d="M245.546 68.3057H245.322V68.5292H245.546V68.3057Z" fill="white"/>
</svg>
